<svg width="40" height="32" viewBox="0 0 40 32" fill="none" xmlns="http://www.w3.org/2000/svg">
<path d="M5.43696 13.1322C4.09489 14.2492 4.18074 3.04477 5.52567 1.5541C6.39215 0.593809 7.61976 0.504265 19.9313 0.504265C36.3956 0.504265 35.4833 0.075491 35.4833 7.81581C35.4833 11.8889 35.3065 13.1695 34.7679 12.9915C34.3507 12.8538 33.9804 11.5169 33.8797 9.78634L33.7063 6.81821H20.0011H6.29543V9.61816C6.29543 11.4062 5.98524 12.6758 5.43696 13.1322Z" fill="#C89700"/>
<path d="M8.01236 10.0228C8.01236 9.25999 8.33457 8.50576 8.72775 8.34619C9.1215 8.18719 11.3879 8.03623 13.7641 8.01155C18.2379 7.96448 19.4586 8.47189 19.4586 10.377C19.4586 11.3028 18.8651 11.4102 13.7355 11.4102C8.06501 11.4102 8.01236 11.3975 8.01236 10.0228Z" fill="#C89700"/>
<path d="M20.6032 10.377C20.6032 9.80873 20.9123 9.03383 21.29 8.655C22.0048 7.93808 29.4941 7.67978 31.144 8.31462C31.642 8.50633 32.0494 9.28122 32.0494 10.0366C32.0494 11.3935 31.9813 11.4102 26.3263 11.4102C21.1967 11.4102 20.6032 11.3028 20.6032 10.377Z" fill="#C89700"/>
<path d="M2.86557 18.4416C2.86957 15.6141 3.35775 15.0315 7.72621 12.6448C8.44045 12.2545 13.1695 12.0123 20.305 12.0014L31.7398 11.9842L34.4686 13.8497C37.0818 15.6354 37.198 15.8311 37.1991 18.4416L37.2003 21.1681H20.0309H2.86156L2.86557 18.4416Z" fill="#C89700"/>
<path d="M0 23.8469C0 19.6372 0.164826 16.0285 0.365707 15.8265C1.1824 15.0074 1.71693 16.2254 1.71693 18.906V21.7421H20.0011H38.2848L38.4582 18.7286C38.5532 17.0709 38.8886 15.7789 39.2033 15.8569C39.5399 15.9401 39.8415 19.1953 39.9348 23.7493C40.0881 31.2055 40.0498 31.5 38.9332 31.5C37.9385 31.5 37.7726 31.1292 37.7726 28.909V26.3174L20.174 26.4695L2.5754 26.621L2.3997 29.0605C2.2572 31.0328 2.01053 31.5 1.112 31.5C0.0663885 31.5 0 31.042 0 23.8469Z" fill="#C89700"/>
</svg>
