<svg width="214" height="202" viewBox="0 0 214 202" fill="none" xmlns="http://www.w3.org/2000/svg">
<path fill-rule="evenodd" clip-rule="evenodd" d="M101.59 0.0615096C96.5519 0.291017 90.7928 0.95394 85.7885 1.88039C78.0757 3.30829 70.1632 5.72515 62.8249 8.89447C61.369 9.5233 59.6393 10.3036 58.9811 10.6285C58.3229 10.9534 57.3928 11.4105 56.9141 11.6444C56.0454 12.0687 52.4307 14.004 51.6626 14.4559C49.9641 15.4554 46.5219 17.6285 45.0199 18.6497C42.1436 20.6053 38.2226 23.6044 35.5244 25.9128C34.6065 26.6981 31.7249 29.3626 30.6686 30.4029C22.7766 38.175 16.7216 46.2707 11.7245 55.7315C7.02409 64.6307 3.72302 73.9332 1.87579 83.4852C1.47792 85.5426 1.36528 86.2076 1.40807 86.2472C1.42606 86.2639 1.49866 85.9373 1.56944 85.5214C2.0653 82.6073 3.17146 78.1316 4.18711 74.9301C4.74171 73.1819 5.9481 69.8711 5.96152 70.0603C5.9634 70.0866 5.81799 70.7509 5.63834 71.5365C5.3296 72.8869 5.27332 73.2578 5.44216 72.8284C5.483 72.7246 5.84134 71.8061 6.23857 70.7872C7.70692 67.0206 8.44871 65.2912 10.0461 61.9107C10.3659 61.2337 10.6388 60.6902 10.6524 60.7028C10.666 60.7154 10.5126 61.1177 10.3115 61.5968C10.1104 62.0758 9.94361 62.5355 9.94078 62.6182C9.93788 62.7033 9.90328 62.75 9.861 62.7256C9.81879 62.7014 9.8082 62.7156 9.83663 62.7583C9.86426 62.7999 9.65901 63.3881 9.38059 64.0655C8.24796 66.8205 7.03954 70.1955 6.0814 73.2796C4.67172 77.8173 3.45054 83.4501 2.81717 88.3354C2.21449 92.9846 1.99887 99.0947 2.343 101.774C2.42111 102.382 2.52127 102.705 2.60714 102.625C2.74399 102.498 2.87947 101.394 3.1373 98.3051C3.74557 91.0158 4.23701 87.2316 5.13603 82.9126C6.78207 75.0047 9.0989 67.9953 12.2388 61.4237C12.9645 59.9049 14.4322 57.0458 14.3482 57.3145C14.3309 57.3701 13.8889 58.3704 13.3661 59.5375C11.7169 63.2187 9.81393 68.1978 8.75593 71.6001C7.32086 76.2145 5.97145 81.9532 5.41663 85.801C5.31713 86.491 5.18898 87.3586 5.13183 87.7291C4.52682 91.6507 4.21713 98.5755 4.44602 103.066C4.58876 105.865 4.62219 105.995 4.67767 103.964C4.73272 101.949 4.82047 100.082 4.98634 97.3957C5.04697 96.4139 5.12994 95.065 5.17077 94.3981C5.43759 90.0393 6.20651 84.9719 7.31223 80.2854C8.34449 75.9103 10.1433 70.0882 11.668 66.1875C12.9982 62.7845 14.6438 59.4475 16.3425 56.7083C16.7906 55.9858 17.734 54.3489 18.439 53.0706C19.1441 51.7924 19.8417 50.5576 19.9894 50.3268C20.2807 49.8712 21.7954 47.7681 22.5737 46.7385C23.3871 45.6624 27.5145 40.3792 27.6259 40.2716C27.7181 40.1825 27.7244 40.1864 27.6795 40.3053C27.6514 40.3794 27.8523 40.1672 28.1258 39.8337C28.3993 39.5003 29.1792 38.6058 29.859 37.846C30.5388 37.0862 31.3381 36.1843 31.6351 35.8419C31.9986 35.423 32.224 35.2192 32.3241 35.2189C32.406 35.2187 32.5546 35.1655 32.6543 35.1008C32.754 35.0362 33.8147 34.0721 35.0114 32.9585C37.8939 30.276 39.6359 28.7982 42.5178 26.5905C47.3405 22.896 52.7925 19.4711 58.2112 16.7319C64.5771 13.5139 72.1146 10.6874 79.2308 8.84981C81.0196 8.3879 84.1883 7.67155 86.5408 7.19731C87.3577 7.03261 91.0956 6.44918 91.944 6.35392C93.1875 6.21435 93.9249 6.09579 95.4977 5.78268C96.6435 5.55466 96.9995 5.5139 98.408 5.45011C101.938 5.29012 107.372 5.38315 111.816 5.67968C112.654 5.7356 114.282 5.82822 115.434 5.88561C117.29 5.9779 117.659 6.01596 118.662 6.21778C119.925 6.47215 120.562 6.58518 123.239 7.03005C128.503 7.90497 134.182 9.36103 139.445 11.1852C140.404 11.5175 141.482 11.8896 141.842 12.0122C143.927 12.7243 147.87 14.355 149.856 15.327C150.354 15.5711 151.35 16.058 152.068 16.4091C153.98 17.3442 157.668 19.4058 159.828 20.7471C164.161 23.4376 168.912 26.8687 172.23 29.7019C173.399 30.7009 175.777 32.9085 176.757 33.9058C177.082 34.2365 177.27 34.3861 177.242 34.2931C177.218 34.2098 177.177 34.0743 177.152 33.9921C177.126 33.9099 176.805 33.5689 176.438 33.2343C175.682 32.5463 176.193 32.9677 177.6 34.1931C178.208 34.7226 178.849 35.3727 179.392 36.0109C180.646 37.4851 182.587 39.8532 183.325 40.8105C183.683 41.2736 184.466 42.2593 185.065 43.0009C189.144 48.048 193.474 54.9025 196.053 60.394C196.422 61.1801 196.768 61.8773 196.822 61.9434C196.913 62.055 196.92 62.0518 196.922 61.8986C196.926 61.6072 197.04 61.8261 197.636 63.2762C198.326 64.9523 198.937 66.6034 199.57 68.4969C202.241 76.4958 203.48 81.7872 204.356 88.9416C204.455 89.7567 204.6 90.8783 204.676 91.4341C205.043 94.1015 205.065 94.401 204.993 95.7117C204.927 96.901 204.924 96.9218 204.913 96.1688C204.906 95.651 204.826 94.9493 204.681 94.1281C204.559 93.4396 204.4 92.37 204.327 91.751C204.253 91.1321 204.19 90.7167 204.185 90.8278C204.181 90.939 204.21 91.3482 204.249 91.7372C204.66 95.7876 204.705 101.904 204.358 106.321C204.201 108.326 204.174 108.751 204.209 108.679C204.34 108.409 204.823 102 204.835 100.36C204.838 99.9707 204.867 99.516 204.899 99.3493C204.955 99.053 204.957 99.0565 204.966 99.5022C204.988 100.605 204.733 105.376 204.539 107.5C204.336 109.724 203.735 114.397 203.684 114.154C203.671 114.09 203.726 113.378 203.808 112.571C203.889 111.764 203.971 110.877 203.991 110.599L204.026 110.094L203.958 110.565C203.92 110.825 203.821 111.522 203.737 112.115C203.654 112.707 203.474 113.844 203.339 114.641C202.989 116.698 202.987 116.73 203.283 115.702C203.43 115.193 203.562 114.788 203.578 114.803C203.611 114.833 203.563 115.093 203.116 117.335C202.075 122.555 200.61 127.574 198.643 132.664C198.384 133.333 198.053 134.252 197.907 134.705C197.089 137.247 193.612 143.848 190.521 148.727C186.528 155.029 181.403 161.271 175.656 166.832C174.682 167.775 174.362 168.127 174.479 168.127C174.571 168.127 175.429 167.551 176.275 166.921C178.414 165.329 181.849 162.292 184.967 159.235C185.591 158.624 186.122 158.142 186.148 158.165C186.217 158.226 185.417 159.51 184.559 160.717C180.27 166.751 172.528 173.808 163.853 179.588C161.078 181.437 156.838 183.961 154.026 185.438C151.961 186.522 151.451 186.796 151.451 186.824C151.451 186.859 152.997 186.19 155.171 185.215C155.96 184.861 156.678 184.55 156.767 184.525C157.159 184.411 155.402 185.523 153.228 186.765C151.059 188.004 147.789 189.612 144.872 190.872C143.784 191.342 142.906 191.739 142.922 191.753C142.975 191.803 147.136 190.235 148.768 189.551C163.09 183.546 174.976 175.226 185.146 164.086C192.532 155.994 198.409 146.807 202.701 136.642C202.996 135.942 203.227 135.36 203.214 135.347C203.201 135.335 202.983 135.801 202.731 136.384C200.479 141.584 197.464 147.007 194.137 151.841C193.286 153.077 191.282 155.809 191.012 156.103C190.909 156.214 191.037 156.017 191.295 155.665C200.349 143.328 206.21 129.664 208.745 114.988C208.995 113.54 209.435 110.358 209.516 109.42C209.544 109.087 209.582 108.855 209.601 108.905C209.699 109.175 209.012 114.38 208.524 117.066C207.973 120.097 207.446 122.431 206.778 124.802C206.618 125.37 206.501 125.848 206.518 125.864C206.558 125.901 207.2 123.591 207.578 122.051C210.517 110.084 211.092 98.1073 209.324 85.6745C209.206 84.8409 209.093 84.0376 209.074 83.8894L209.039 83.6199L209.107 83.8557C209.239 84.3121 209.763 87.3426 209.974 88.8743C210.897 95.5698 211.054 102.403 210.442 109.306C210.378 110.022 210.341 110.62 210.358 110.637C210.391 110.667 210.573 108.922 210.703 107.332C211.314 99.8878 210.89 90.7102 209.549 82.34C209.031 79.1024 209.089 79.1024 209.691 82.34C210.368 85.9857 210.765 89.0135 211.209 93.9265L211.276 94.6675L211.242 93.7244C211.162 91.5167 210.75 87.6627 210.263 84.563C209.349 78.7565 207.737 72.3968 205.885 67.2892C205.704 66.7918 205.57 66.3727 205.586 66.3579C205.62 66.3257 206.791 69.6067 207.251 71.023C209.259 77.2152 210.628 83.7176 211.25 90.0195C211.534 92.9009 211.588 94.0864 211.609 97.9347C211.623 100.404 211.61 101.369 211.575 100.596C211.545 99.9286 211.511 99.2162 211.499 99.0125C211.487 98.8087 211.453 99.9454 211.425 101.539C211.286 109.198 210.269 116.359 208.24 123.971C204.909 136.46 199.271 147.855 191.293 158.225C190.68 159.021 190.061 159.817 189.918 159.993C189.417 160.61 189.738 160.306 190.38 159.555C193.928 155.411 197.292 150.416 200.19 144.988C203.319 139.128 206.376 131.441 208.465 124.182C208.677 123.446 208.861 122.875 208.875 122.913C208.904 122.996 208.364 125.09 207.864 126.834C204.608 138.186 198.961 149.266 191.558 158.831C185.521 166.631 178.095 173.764 170.018 179.522C154.073 190.888 135.092 197.766 114.935 199.481C109.423 199.95 103.142 199.999 97.3834 199.618C95.0266 199.461 91.2686 199.077 89.4781 198.809C89.1191 198.755 88.7764 198.714 88.7166 198.717C88.1997 198.748 93.9541 199.548 95.9329 199.721C102.898 200.328 108.497 200.408 114.685 199.989C120.842 199.571 125.496 198.907 132.196 197.49C133.909 197.127 139.159 195.771 139.51 195.6C139.583 195.564 139.66 195.55 139.68 195.569C139.791 195.671 145.257 193.794 147.781 192.787C148.255 192.597 148.655 192.453 148.67 192.467C148.699 192.494 145.686 193.7 144.09 194.3C142.705 194.82 140.068 195.693 138.143 196.269C128.955 199.016 120.272 200.528 109.604 201.236C108.067 201.338 106.619 201.497 106.475 201.579C106.013 201.844 109.003 202.049 112.469 201.99C116.207 201.926 119.11 201.66 123.674 200.962C138.765 198.654 152.925 193.54 165.485 185.86C169.796 183.224 173.177 180.846 176.979 177.773C189.435 167.71 199.112 155.385 205.442 141.522C207.652 136.682 209.193 132.296 210.876 126.059C211.785 122.69 212.824 117.202 213.31 113.192C213.862 108.652 214 106.294 214 101.438C214 94.6506 213.545 89.5516 212.333 82.7602C210.949 75.0017 208.994 68.4517 205.934 61.3227C203.244 55.0548 198.595 47.5507 193.414 41.1136C185.977 31.873 177.38 24.1652 167.334 17.7294C162.711 14.7675 157.079 11.7381 152.321 9.6544C145.017 6.45511 137.672 4.09563 129.802 2.42105C127.649 1.96284 127.366 1.90976 125.1 1.53751C119.953 0.691829 116.013 0.269326 111.279 0.0551774C109.586 -0.0214148 103.32 -0.0173055 101.59 0.0615096ZM109.987 1.18304C110.178 1.19699 110.471 1.19679 110.64 1.18271C110.808 1.16856 110.652 1.15718 110.293 1.15738C109.934 1.15758 109.796 1.16917 109.987 1.18304ZM111.944 1.24919C112.054 1.26462 112.217 1.26422 112.307 1.24825C112.396 1.23229 112.305 1.21962 112.106 1.22009C111.907 1.22063 111.834 1.2337 111.944 1.24919ZM119.975 2.10437C129.786 3.46875 138.865 5.91882 147.535 9.54136C156.508 13.2911 165.38 18.561 173.06 24.7048C175.267 26.4695 178.965 29.6683 178.904 29.7595C178.887 29.7849 179.302 30.1977 179.826 30.6769C180.35 31.156 180.736 31.495 180.684 31.4301C180.631 31.3653 180.615 31.3123 180.646 31.3123C180.678 31.3123 180.769 31.3653 180.85 31.4301C180.992 31.5457 180.993 31.545 180.883 31.3942C180.389 30.7181 176.431 27.001 174.551 25.4475C168.784 20.6841 162.698 16.6946 155.658 13.0632C149.427 9.84941 141.579 6.65275 135.822 4.98315C132.699 4.07738 128.861 3.229 124.979 2.58616C124.201 2.45736 123.255 2.2911 122.876 2.2168C122.171 2.0785 120.959 1.97591 119.286 1.91293L118.343 1.87742L119.975 2.10437ZM177.705 28.8453C177.705 28.8592 177.762 28.9123 177.832 28.9632C177.947 29.0469 177.95 29.0445 177.86 28.9377C177.765 28.8255 177.705 28.7898 177.705 28.8453ZM178.431 29.4598C178.566 29.5894 178.693 29.6955 178.713 29.6955C178.733 29.6955 178.638 29.5894 178.503 29.4598C178.368 29.3301 178.241 29.224 178.221 29.224C178.201 29.224 178.295 29.3301 178.431 29.4598ZM179.156 29.9987C179.291 30.1284 179.418 30.2344 179.438 30.2344C179.458 30.2344 179.364 30.1284 179.228 29.9987C179.093 29.869 178.966 29.7629 178.946 29.7629C178.926 29.7629 179.021 29.869 179.156 29.9987ZM180.389 31.1439C180.483 31.2365 180.576 31.3123 180.595 31.3123C180.615 31.3123 180.555 31.2365 180.461 31.1439C180.368 31.0512 180.275 30.9754 180.255 30.9754C180.235 30.9754 180.295 31.0512 180.389 31.1439ZM184.093 34.8825C188.221 39.3516 191.3 43.2487 194.712 48.3215C194.983 48.7237 194.687 48.3759 194.311 47.85C193.747 47.0603 192.785 45.7954 192.749 45.7954C192.731 45.7954 192.886 46.0454 193.093 46.3511C198.07 53.7098 202.032 61.5464 204.699 69.3052C207.822 78.3908 209.355 86.4286 209.934 96.7558C209.948 97.0151 209.947 96.6059 209.93 95.8464C209.846 91.9193 209.26 86.6087 208.414 82.1043C206.261 70.6381 202.163 60.0547 195.959 49.9382C192.666 44.5675 189.387 40.3209 184.959 35.6891C184.406 35.111 183.894 34.5945 183.821 34.5413C183.748 34.4882 183.871 34.6417 184.093 34.8825ZM103.874 53.4852C102.764 53.5712 101.03 53.852 99.7148 54.1586C92.4964 55.8414 86.4614 60.1523 82.8089 66.2348C79.1823 72.2743 78.4498 79.4633 80.7849 86.0997C82.74 91.656 86.7607 96.3845 92.1978 99.5219C94.7912 101.018 98.0475 102.2 101.105 102.755C102.706 103.046 103.695 103.134 105.579 103.154C106.616 103.165 107.301 103.162 107.102 103.148C101.365 102.739 95.9929 100.763 91.7628 97.5061C90.9243 96.8605 89.272 95.3527 88.5047 94.5328C84.8694 90.6482 82.649 85.7671 82.1154 80.4875C82.0005 79.3503 82.0194 76.9169 82.1523 75.749C83.1153 67.2847 88.5767 59.9317 96.7669 56.0725C98.0239 55.4801 98.8801 55.1524 100.376 54.691C102.369 54.0764 104.115 53.7287 106.159 53.5392C106.638 53.4948 107.043 53.4471 107.06 53.433C107.116 53.3853 104.64 53.4258 103.874 53.4852ZM99.446 74.9022C90.9913 82.215 89.9697 83.1066 90.1308 83.0312C90.1707 83.0126 94.279 80.8976 99.2603 78.3312C108.167 73.7428 108.321 73.6669 108.507 73.7679C108.675 73.8584 124.852 82.4851 127.246 83.7602C127.754 84.0311 128.17 84.2397 128.17 84.2238C128.17 84.2079 126.716 82.9561 124.939 81.4421L121.707 78.6893L121.713 75.5803L121.72 72.4713H119.87H118.02L118 73.9963L117.981 75.5214L113.136 71.4028C110.471 69.1377 108.283 67.2843 108.272 67.2843C108.262 67.2843 104.29 70.7124 99.446 74.9022ZM133.884 77.0857C133.811 80.1172 133.319 82.438 132.185 85.1019C130.136 89.9126 126.472 93.879 121.607 96.5526C117.45 98.8372 112.165 99.9751 107.378 99.6166C104.271 99.3839 101.466 98.7066 98.7131 97.524C91.9518 94.6202 86.9017 88.9294 85.1323 82.2203C84.9934 81.6933 84.8628 81.2016 84.8422 81.1275C84.7617 80.8384 84.875 82.0368 84.9823 82.6095C85.7532 86.7267 87.5746 90.4308 90.386 93.5991C90.6773 93.9274 91.3937 94.6355 91.978 95.1728C95.8913 98.7706 100.668 100.948 106.268 101.686C107.548 101.854 111.259 101.854 112.614 101.685C116.438 101.208 120.008 99.9559 123.252 97.9531C125.662 96.466 128.1 94.2333 129.806 91.9503C132.045 88.9555 133.449 85.5954 134.007 81.8969C134.277 80.1093 134.282 77.6183 134.019 75.8731C133.928 75.2685 133.928 75.2717 133.884 77.0857ZM104.89 79.275V80.6896H106.413H107.936V79.275V77.8604H106.413H104.89V79.275ZM108.879 79.275V80.6896H110.402H111.925V79.275V77.8604H110.402H108.879V79.275ZM209.042 79.3143C209.046 79.3927 209.063 79.4087 209.086 79.355C209.107 79.3064 209.104 79.2483 209.08 79.2259C209.056 79.2035 209.039 79.2433 209.042 79.3143ZM209.12 79.6792C209.12 79.7718 209.137 79.8097 209.157 79.7634C209.177 79.7171 209.177 79.6413 209.157 79.595C209.137 79.5487 209.12 79.5866 209.12 79.6792ZM104.89 82.7779V84.1925H106.413H107.936V82.7779V81.3633H106.413H104.89V82.7779ZM108.951 82.7779V84.1925H110.474H111.997V82.7779V81.3633H110.474H108.951V82.7779ZM208.97 83.4234C208.973 83.5019 208.99 83.5179 209.013 83.4642C209.034 83.4156 209.032 83.3574 209.008 83.335C208.984 83.3127 208.967 83.3524 208.97 83.4234ZM203.458 85.377C203.461 85.4555 203.478 85.4714 203.501 85.4177C203.522 85.3691 203.52 85.311 203.496 85.2886C203.472 85.2662 203.455 85.306 203.458 85.377ZM203.539 85.7756C203.54 85.8867 203.556 85.924 203.575 85.8585C203.593 85.7929 203.592 85.702 203.572 85.6564C203.552 85.6108 203.537 85.6644 203.539 85.7756ZM203.615 86.2471C203.616 86.3953 203.631 86.448 203.648 86.3642C203.666 86.2804 203.665 86.1591 203.647 86.0947C203.629 86.0303 203.614 86.0989 203.615 86.2471ZM1.33743 86.5165C1.33889 86.6277 1.35513 86.665 1.37355 86.5995C1.39197 86.5339 1.39074 86.443 1.37087 86.3974C1.351 86.3518 1.33598 86.4054 1.33743 86.5165ZM203.686 86.8197C203.686 86.9494 203.701 87.0024 203.719 86.9376C203.738 86.8727 203.738 86.7667 203.719 86.7018C203.701 86.6369 203.686 86.69 203.686 86.8197ZM1.26759 86.9544C1.26759 87.0841 1.28253 87.1372 1.30074 87.0723C1.31901 87.0074 1.31901 86.9014 1.30074 86.8365C1.28253 86.7717 1.26759 86.8247 1.26759 86.9544ZM203.756 87.3249C203.758 87.4361 203.774 87.4734 203.792 87.4078C203.811 87.3423 203.81 87.2514 203.79 87.2057C203.77 87.1601 203.755 87.2138 203.756 87.3249ZM1.19507 87.426C1.19507 87.5556 1.21001 87.6087 1.22821 87.5439C1.24649 87.479 1.24649 87.3729 1.22821 87.3081C1.21001 87.2432 1.19507 87.2963 1.19507 87.426ZM1.12254 87.8975C1.12254 88.0272 1.13748 88.0803 1.15569 88.0154C1.17396 87.9505 1.17396 87.8445 1.15569 87.7796C1.13748 87.7148 1.12254 87.7678 1.12254 87.8975ZM203.829 87.8638C203.83 87.975 203.846 88.0123 203.865 87.9467C203.883 87.8812 203.882 87.7903 203.862 87.7447C203.842 87.6991 203.827 87.7527 203.829 87.8638ZM1.05147 88.4027C1.05226 88.5509 1.06713 88.6036 1.08447 88.5198C1.1018 88.436 1.10115 88.3148 1.08302 88.2504C1.06488 88.186 1.05067 88.2545 1.05147 88.4027ZM203.904 88.4364C203.904 88.5661 203.919 88.6192 203.937 88.5543C203.955 88.4894 203.955 88.3834 203.937 88.3185C203.919 88.2537 203.904 88.3067 203.904 88.4364ZM0.924402 89.1774C0.8959 89.4411 0.888067 89.6713 0.906996 89.6889C0.925925 89.7066 0.964364 89.5047 0.992431 89.2406C1.02043 88.9764 1.02826 88.7462 1.00984 88.729C0.991343 88.7119 0.952905 88.9137 0.924402 89.1774ZM203.976 89.0427C203.976 89.1724 203.991 89.2254 204.01 89.1606C204.028 89.0957 204.028 88.9897 204.01 88.9248C203.991 88.8599 203.976 88.913 203.976 89.0427ZM204.05 89.6153C204.051 89.7635 204.066 89.8162 204.083 89.7324C204.101 89.6486 204.1 89.5273 204.082 89.4629C204.064 89.3985 204.05 89.4671 204.05 89.6153ZM0.781454 90.2909C0.753024 90.5732 0.745047 90.8185 0.763831 90.8358C0.782615 90.8533 0.821271 90.6366 0.849773 90.3543C0.878203 90.072 0.886181 89.8267 0.867397 89.8093C0.848613 89.7919 0.809957 90.0086 0.781454 90.2909ZM204.124 90.2552C204.124 90.422 204.139 90.4901 204.156 90.4068C204.173 90.3235 204.173 90.187 204.156 90.1037C204.139 90.0203 204.124 90.0885 204.124 90.2552ZM0.636186 91.5032C0.607611 91.8224 0.599633 92.098 0.618489 92.1155C0.637418 92.133 0.676292 91.8862 0.70494 91.5671C0.733515 91.2478 0.741493 90.9723 0.722636 90.9547C0.703707 90.9372 0.664833 91.184 0.636186 91.5032ZM0.530371 92.3772C0.526672 92.4883 0.476049 93.0794 0.417811 93.6908C0.101455 97.0112 -0.0555629 101.627 0.0178329 105.446C0.0477859 107.004 0.0625813 106.554 0.103123 102.852C0.153021 98.2979 0.191677 97.348 0.457555 94.1416C0.539944 93.1484 0.59151 92.2996 0.572145 92.2554C0.552781 92.2113 0.533997 92.266 0.530371 92.3772ZM211.308 95.2064C211.309 95.4658 211.322 95.5636 211.338 95.4239C211.353 95.2841 211.353 95.0719 211.337 94.9523C211.321 94.8327 211.308 94.9471 211.308 95.2064ZM210 98.3725C210.001 98.5578 210.015 98.6255 210.031 98.5231C210.048 98.4207 210.048 98.2692 210.03 98.1863C210.013 98.1035 209.999 98.1873 210 98.3725ZM209.635 108.342C209.636 108.49 209.651 108.543 209.668 108.459C209.685 108.376 209.685 108.254 209.666 108.19C209.648 108.126 209.634 108.194 209.635 108.342ZM204.125 109.083C204.126 109.269 204.14 109.336 204.157 109.234C204.173 109.132 204.173 108.98 204.156 108.897C204.139 108.814 204.125 108.898 204.125 109.083ZM204.05 109.757C204.051 109.905 204.066 109.958 204.083 109.874C204.101 109.79 204.1 109.669 204.082 109.605C204.064 109.54 204.05 109.609 204.05 109.757ZM210.289 111.003C210.289 111.17 210.303 111.238 210.321 111.155C210.338 111.071 210.338 110.935 210.321 110.852C210.303 110.768 210.289 110.836 210.289 111.003ZM210.215 111.643C210.216 111.791 210.231 111.844 210.248 111.76C210.265 111.676 210.265 111.555 210.247 111.491C210.229 111.426 210.214 111.495 210.215 111.643ZM210.141 112.216C210.141 112.345 210.156 112.398 210.174 112.334C210.193 112.269 210.193 112.163 210.174 112.098C210.156 112.033 210.141 112.086 210.141 112.216ZM210.063 112.755C210.063 112.847 210.08 112.885 210.1 112.839C210.12 112.793 210.12 112.717 210.1 112.67C210.08 112.624 210.063 112.662 210.063 112.755ZM209.985 113.265C209.988 113.344 210.006 113.36 210.029 113.306C210.05 113.258 210.047 113.199 210.023 113.177C209.999 113.155 209.982 113.194 209.985 113.265ZM203.603 114.613C203.606 114.691 203.623 114.707 203.647 114.653C203.668 114.605 203.665 114.547 203.641 114.524C203.617 114.502 203.6 114.542 203.603 114.613ZM212.275 116.004C211.203 122.08 209.204 129.03 206.865 134.815C206.702 135.216 206.583 135.557 206.599 135.572C206.615 135.587 206.792 135.211 206.993 134.736C209.885 127.888 211.3 123.336 212.077 118.387C212.32 116.838 212.545 115.02 212.506 114.913C212.492 114.873 212.388 115.364 212.275 116.004ZM87.9188 126.227V136.669H90.3847H92.8505V135.988V135.308L93.2551 135.651C94.5578 136.757 96.4899 137.247 98.4633 136.972C101.965 136.485 104.503 133.881 104.963 130.303C105.058 129.561 105.017 128.68 104.847 127.777C104.147 124.072 100.856 121.492 97.057 121.67C95.5909 121.738 94.3504 122.164 93.3567 122.941L92.8505 123.337V119.562V115.786H90.3847H87.9188V126.227ZM170.38 119.559V123.332L169.868 122.932C169.26 122.458 168.391 122.042 167.588 121.841C166.879 121.663 165.087 121.623 164.433 121.77C161.912 122.337 160.187 123.616 159.089 125.73C157.875 128.067 157.951 131.055 159.283 133.348C160.912 136.153 164.195 137.571 167.443 136.87C168.376 136.669 169.236 136.263 170.033 135.645L170.375 135.38L170.396 136.008L170.417 136.635L172.864 136.653L175.312 136.67V126.228V115.786H172.846H170.38V119.559ZM38.3838 116.67C38.3838 116.712 39.8198 121.213 41.575 126.671C43.3301 132.13 44.7661 136.612 44.7661 136.632C44.7661 136.652 45.9886 136.669 47.4828 136.669H50.1993L50.3434 136.214C50.4227 135.964 51.2402 133.334 52.1601 130.37C53.0801 127.406 53.8522 124.936 53.8762 124.88C53.9 124.824 54.7414 127.447 55.7457 130.707L57.5719 136.635L60.2724 136.653L62.9729 136.67L63.0353 136.518C63.1199 136.311 69.4248 116.696 69.4248 116.639C69.4248 116.614 68.2207 116.594 66.7491 116.594C64.6744 116.594 64.066 116.613 64.0406 116.679C64.0225 116.725 63.1469 119.698 62.0948 123.286C60.8275 127.607 60.1633 129.767 60.1271 129.685C60.097 129.617 59.2051 126.669 58.145 123.133C57.0848 119.598 56.201 116.68 56.1807 116.649C56.1606 116.619 55.1224 116.594 53.8738 116.594H51.6037L51.4965 116.948C51.4376 117.143 50.5442 120.115 49.5112 123.553C48.287 127.629 47.6145 129.763 47.5796 129.683C47.5503 129.617 46.6716 126.644 45.627 123.078L43.7276 116.594H41.0558C39.1183 116.594 38.3838 116.615 38.3838 116.67ZM106.485 126.631V136.669H114.1H121.716V134.479V132.29H116.639H111.562V124.442V116.594H109.024H106.485V126.631ZM202.95 116.768C202.953 116.847 202.971 116.863 202.994 116.809C203.015 116.76 203.012 116.702 202.988 116.68C202.964 116.658 202.947 116.697 202.95 116.768ZM128.122 121.742C125.29 122.245 123.131 124.029 122.19 126.643C121.432 128.749 121.619 131.239 122.682 133.172C123.859 135.314 125.982 136.722 128.461 137.003C130.397 137.222 132.337 136.679 133.592 135.567L133.9 135.293V135.981V136.669H136.366H138.832V129.36V122.051H136.366H133.9V122.699V123.348L133.592 123.103C132.805 122.477 132 122.071 131.106 121.85C130.357 121.664 128.864 121.61 128.122 121.742ZM149.602 121.746C148.489 121.939 147.44 122.424 146.659 123.109L146.157 123.549V122.8V122.051H143.691H141.225V129.36V136.669H143.691H146.157L146.158 132.745C146.159 128.449 146.173 128.284 146.586 127.464C147.088 126.468 148.045 125.894 149.206 125.891C150.279 125.889 151.148 126.354 151.596 127.17C151.969 127.85 151.98 127.986 152.012 132.476L152.042 136.67L154.484 136.653L156.927 136.635L156.948 132.66C156.961 130.358 156.938 128.228 156.893 127.598C156.786 126.07 156.472 124.979 155.865 124.021C155.554 123.531 154.648 122.688 154.125 122.402C152.96 121.765 151.075 121.492 149.602 121.746ZM69.7881 126.345C69.7888 131.62 69.8554 132.459 70.3726 133.705C71.1863 135.664 72.7592 136.767 75.0852 137.009C76.9944 137.207 78.8122 136.691 80.1181 135.579L80.5937 135.175V135.922V136.669H83.0596H85.5254V129.36V122.051H83.0596H80.5937V125.918C80.5937 130.169 80.5713 130.448 80.1644 131.255C79.8933 131.793 79.3769 132.309 78.8985 132.518C77.4443 133.156 75.8048 132.733 75.1571 131.554C74.7682 130.846 74.7662 130.822 74.7368 126.278L74.7094 122.051H72.2484H69.7874L69.7881 126.345ZM208.97 122.427C208.973 122.505 208.99 122.521 209.013 122.468C209.034 122.419 209.032 122.361 209.008 122.338C208.984 122.316 208.967 122.356 208.97 122.427ZM208.897 122.696C208.901 122.775 208.918 122.791 208.941 122.737C208.962 122.688 208.959 122.63 208.935 122.608C208.911 122.586 208.894 122.625 208.897 122.696ZM96.0054 125.765C93.998 125.937 92.5789 127.596 92.7357 129.587C92.8677 131.262 93.9021 132.488 95.525 132.894C96.0429 133.024 97.1242 132.989 97.6479 132.827C99.2058 132.343 100.118 131.078 100.121 129.393C100.127 127.006 98.4786 125.553 96.0054 125.765ZM129.766 125.767C128.34 125.905 127.309 126.695 126.818 128.023C126.657 128.46 126.623 128.673 126.62 129.259C126.618 129.648 126.66 130.133 126.713 130.336C126.94 131.209 127.556 132.041 128.298 132.48C129.38 133.121 131.078 133.147 132.159 132.54C133.571 131.749 134.261 130.221 133.945 128.59C133.575 126.686 131.908 125.56 129.766 125.767ZM166.319 125.767C165.367 125.861 164.74 126.149 164.087 126.791C163.411 127.454 163.128 128.203 163.128 129.326C163.128 130.522 163.445 131.309 164.214 132.022C164.689 132.461 165.205 132.745 165.804 132.894C166.307 133.02 167.378 132.988 167.925 132.831C169.801 132.293 170.862 130.444 170.417 128.49C169.998 126.655 168.36 125.566 166.319 125.767ZM206.394 126.131C206.368 126.23 206.36 126.324 206.377 126.339C206.394 126.355 206.43 126.287 206.457 126.189C206.483 126.09 206.491 125.996 206.474 125.98C206.457 125.965 206.421 126.032 206.394 126.131ZM206.286 126.536C206.29 126.614 206.307 126.63 206.33 126.577C206.351 126.528 206.348 126.47 206.324 126.448C206.3 126.425 206.283 126.465 206.286 126.536ZM206.214 126.805C206.217 126.884 206.234 126.9 206.257 126.846C206.278 126.798 206.276 126.739 206.252 126.717C206.228 126.695 206.211 126.734 206.214 126.805ZM203.497 134.549C203.427 134.719 203.448 134.762 203.533 134.626C203.576 134.558 203.595 134.489 203.576 134.471C203.558 134.454 203.522 134.489 203.497 134.549ZM203.28 135.088C203.21 135.258 203.23 135.301 203.316 135.165C203.358 135.097 203.377 135.028 203.359 135.01C203.34 134.993 203.304 135.028 203.28 135.088ZM206.471 135.762C206.401 135.931 206.421 135.975 206.507 135.838C206.549 135.771 206.569 135.701 206.55 135.684C206.531 135.667 206.496 135.702 206.471 135.762ZM206.326 136.099C206.256 136.268 206.276 136.312 206.362 136.175C206.404 136.108 206.424 136.038 206.405 136.021C206.386 136.003 206.351 136.038 206.326 136.099ZM206.181 136.435C206.111 136.605 206.131 136.649 206.217 136.512C206.259 136.444 206.278 136.375 206.26 136.358C206.241 136.34 206.205 136.375 206.181 136.435ZM205.6 137.783C205.53 137.952 205.551 137.996 205.637 137.859C205.679 137.792 205.698 137.722 205.68 137.705C205.661 137.687 205.625 137.723 205.6 137.783ZM205.455 138.12C205.385 138.289 205.406 138.333 205.492 138.196C205.534 138.128 205.553 138.059 205.535 138.042C205.516 138.024 205.48 138.059 205.455 138.12ZM205.163 138.793C204.65 139.984 203.392 142.52 202.29 144.584C198.197 152.249 193.141 159.326 187.032 165.938C183.483 169.779 179.232 173.712 175.022 177.049C172.542 179.015 170.184 180.722 167.443 182.537C166.645 183.066 165.911 183.557 165.811 183.629C164.738 184.401 163.822 185.014 162.729 185.691C161.458 186.478 158.133 188.333 156.6 189.112C155.346 189.749 154.57 190.163 154.57 190.197C154.57 190.277 157.827 188.683 159.806 187.635C161.744 186.607 164.82 184.848 166.37 183.88C166.905 183.546 167.019 183.495 166.928 183.631C166.896 183.68 166.909 183.691 166.962 183.66C167.008 183.633 167.029 183.586 167.008 183.554C166.987 183.522 167.065 183.434 167.181 183.357C167.44 183.186 167.531 183.176 167.397 183.335C167.307 183.441 167.31 183.444 167.424 183.361C167.493 183.31 167.535 183.245 167.515 183.217C167.464 183.139 169.51 181.794 169.6 181.846C169.643 181.87 169.657 181.859 169.631 181.82C169.567 181.725 169.772 181.576 169.881 181.638C169.932 181.668 169.949 181.66 169.922 181.619C169.896 181.581 170.324 181.235 170.871 180.851C172.734 179.543 175.306 177.586 177.59 175.739C180.118 173.696 184.91 169.085 187.471 166.232C193.794 159.188 198.543 152.346 202.496 144.584C203.681 142.257 205.456 138.44 205.384 138.374C205.369 138.359 205.269 138.547 205.163 138.793ZM9.0519 139.787C9.07917 139.853 9.11972 139.891 9.14205 139.87C9.16439 139.849 9.14212 139.795 9.09252 139.749C9.02086 139.683 9.01259 139.691 9.0519 139.787ZM9.15953 139.978C9.15765 140.001 9.42933 140.607 9.76323 141.325C12.6137 147.452 16.0359 153.062 20.503 158.932C25.8958 166.018 32.9066 172.913 40.3783 178.478C45.1208 182.01 50.3149 185.223 55.8262 188.033C57.3137 188.791 60.5039 190.313 60.5388 190.28C60.5534 190.267 59.9234 189.94 59.1387 189.555C47.3653 183.773 37.1579 176.331 28.0426 166.881C23.9957 162.686 19.7058 157.277 16.4212 152.23C15.9269 151.47 15.3027 150.545 15.034 150.175C13.8452 148.536 11.7422 144.943 10.2615 142.021C9.58185 140.679 9.16541 139.907 9.15953 139.978ZM80.7387 145.022V146.908H80.9563H81.1739V145.022V143.135H80.9563H80.7387V145.022ZM130.852 143.961C130.85 144.556 130.829 144.753 130.775 144.668C130.647 144.463 130.164 144.281 129.751 144.281C129.281 144.281 128.943 144.432 128.65 144.772C128.47 144.981 128.426 145.103 128.401 145.455C128.364 146.007 128.473 146.303 128.823 146.597C129.376 147.061 130.157 147.07 130.691 146.618L130.854 146.48V146.694C130.854 146.887 130.875 146.908 131.071 146.908H131.289V145.022V143.135H131.071H130.854L130.852 143.961ZM133.61 145.022V146.908H133.791C133.944 146.908 133.973 146.876 133.973 146.706C133.973 146.461 134.001 146.457 134.274 146.67C134.691 146.996 135.371 147.038 135.85 146.768C135.971 146.7 136.161 146.516 136.272 146.36C136.446 146.116 136.474 146.009 136.474 145.599C136.473 145.188 136.445 145.084 136.266 144.839C136.145 144.671 135.935 144.499 135.755 144.418C135.229 144.181 134.48 144.259 134.194 144.579C134.142 144.637 134.071 144.685 134.036 144.685C134.001 144.685 133.973 144.336 133.973 143.91V143.135H133.791H133.61V145.022ZM52.0186 145.089V146.908H52.2362H52.4538V146.066V145.224H53.6142H54.7746V146.066V146.908H54.9922H55.2098V145.089V143.27H54.9945H54.7792L54.7588 144.062L54.7383 144.853H53.6142H52.4901L52.4696 144.062L52.4492 143.27H52.2339H52.0186V145.089ZM72.2533 145.089V146.908H73.2941C73.878 146.908 74.4431 146.874 74.5814 146.831C75.3968 146.578 75.6182 145.654 74.9773 145.179L74.7331 144.998L74.9337 144.812C75.2929 144.478 75.2737 143.969 74.8879 143.595C74.613 143.328 74.3171 143.271 73.2142 143.271L72.2533 143.27V145.089ZM79.4747 143.376C79.255 143.58 79.4167 143.84 79.7375 143.797C79.9296 143.772 80.0037 143.523 79.8651 143.368C79.7522 143.241 79.6168 143.244 79.4747 143.376ZM93.6483 143.439C93.6483 143.607 93.6484 143.607 94.3723 143.607H95.0962L95.1156 145.241L95.1351 146.874H95.3526H95.5702L95.5897 145.241L95.6091 143.607H96.2968C96.9819 143.607 96.9845 143.606 96.9845 143.439V143.27H95.3164H93.6483V143.439ZM110.837 145.089V146.908H111.054H111.272V145.089V143.27H111.054H110.837V145.089ZM121.975 143.399C121.795 143.585 121.937 143.826 122.21 143.796C122.429 143.773 122.515 143.535 122.365 143.368C122.247 143.235 122.125 143.245 121.975 143.399ZM141.66 145.089V146.908H142.769C143.775 146.908 143.908 146.894 144.2 146.756C144.383 146.67 144.581 146.509 144.659 146.383C144.923 145.955 144.768 145.327 144.348 145.125L144.138 145.024L144.386 144.794C144.592 144.602 144.634 144.514 144.633 144.271C144.633 143.877 144.417 143.564 144.034 143.403C143.778 143.295 143.556 143.273 142.694 143.272L141.66 143.27V145.089ZM82.2618 143.876V144.348H81.9666C81.702 144.348 81.6739 144.364 81.6946 144.5C81.7133 144.621 81.7714 144.655 81.9898 144.672L82.2618 144.693V145.487C82.2618 145.924 82.2969 146.375 82.3398 146.489C82.4461 146.773 82.6964 146.908 83.1114 146.907C83.5412 146.906 83.6714 146.837 83.6063 146.647C83.564 146.523 83.5197 146.509 83.2802 146.545C83.0574 146.578 82.973 146.558 82.85 146.444C82.7113 146.315 82.6969 146.226 82.6969 145.493V144.685H83.1684C83.6229 144.685 83.6398 144.679 83.6398 144.516C83.6398 144.354 83.6229 144.348 83.1684 144.348H82.6969V143.876V143.405H82.4794H82.2618V143.876ZM105.978 143.876V144.348H105.724C105.501 144.348 105.47 144.369 105.47 144.516C105.47 144.663 105.502 144.685 105.717 144.685H105.963L105.989 145.6L106.014 146.515L106.251 146.711C106.442 146.87 106.553 146.908 106.831 146.907C107.257 146.906 107.387 146.837 107.322 146.647C107.28 146.523 107.236 146.509 106.996 146.545C106.773 146.578 106.689 146.558 106.566 146.444C106.427 146.315 106.413 146.226 106.413 145.493V144.685H106.884C107.336 144.685 107.356 144.678 107.356 144.52C107.356 144.364 107.329 144.353 106.902 144.334L106.449 144.314L106.428 143.86C106.406 143.405 106.406 143.405 106.192 143.405H105.978V143.876ZM156.02 143.876V144.348H155.766C155.544 144.348 155.513 144.369 155.513 144.516C155.513 144.664 155.544 144.685 155.766 144.685H156.02V145.462C156.02 146.594 156.21 146.909 156.889 146.907C157.28 146.906 157.422 146.836 157.385 146.664C157.362 146.56 157.303 146.541 157.056 146.558C156.828 146.574 156.718 146.545 156.605 146.44C156.471 146.316 156.455 146.22 156.455 145.493V144.685H156.927C157.379 144.685 157.398 144.678 157.398 144.52C157.398 144.364 157.372 144.353 156.945 144.334L156.492 144.314L156.47 143.86C156.449 143.405 156.449 143.405 156.234 143.405H156.02V143.876ZM72.6884 144.245V144.899L73.521 144.876C74.3072 144.855 74.3642 144.843 74.5436 144.677C74.8052 144.433 74.8054 144.061 74.5439 143.818C74.3652 143.652 74.3057 143.64 73.5213 143.617L72.6884 143.592V144.245ZM142.095 144.247V144.887H142.823C143.852 144.887 144.199 144.726 144.199 144.247C144.199 143.768 143.852 143.607 142.823 143.607H142.095V144.247ZM56.6952 144.371C56.405 144.493 56.0443 144.883 55.9341 145.193C55.7368 145.748 56.0448 146.48 56.5988 146.773C56.9745 146.971 57.6507 146.996 58.002 146.824C58.5111 146.575 58.7877 146.151 58.7877 145.62C58.7877 145.159 58.6082 144.808 58.2273 144.521C57.9889 144.342 57.8904 144.314 57.4346 144.298C57.1081 144.286 56.8325 144.313 56.6952 144.371ZM60.2402 144.41C60.115 144.481 59.9952 144.579 59.974 144.629C59.9527 144.678 59.9328 144.635 59.9297 144.533C59.9247 144.374 59.894 144.348 59.7064 144.348H59.4888V145.628V146.908H59.7064H59.9239V146.057C59.9239 145.322 59.9439 145.176 60.0696 144.987C60.2506 144.715 60.5628 144.587 60.9024 144.647C61.3329 144.722 61.4069 144.907 61.4359 145.982L61.461 146.916L61.6534 146.895L61.8459 146.874L61.8821 145.953C61.9158 145.096 61.9306 145.02 62.0932 144.859C62.4155 144.541 63.0205 144.565 63.261 144.906C63.3368 145.013 63.3741 145.318 63.393 145.985L63.4192 146.916L63.6116 146.895L63.804 146.874L63.7998 145.931C63.7964 145.184 63.7703 144.944 63.674 144.774C63.4833 144.439 63.1876 144.281 62.7546 144.281C62.3593 144.281 62.1653 144.346 61.9031 144.568L61.7427 144.703L61.4835 144.492C61.2638 144.313 61.1669 144.281 60.8461 144.281C60.6015 144.281 60.3874 144.327 60.2402 144.41ZM65.2908 144.356C64.7822 144.544 64.4669 145.026 64.4715 145.608C64.4779 146.418 65.0385 146.938 65.9073 146.94C66.4066 146.941 66.9273 146.709 67.1007 146.408C67.2122 146.215 67.2069 146.203 66.9815 146.138C66.8644 146.105 66.8019 146.129 66.7436 146.23C66.5467 146.572 65.67 146.706 65.2954 146.453C65.0824 146.308 64.8229 145.866 64.891 145.764C64.9191 145.722 65.3843 145.695 66.0929 145.695H67.249L67.2474 145.476C67.2441 145.026 66.8654 144.506 66.4284 144.353C66.1766 144.264 65.5351 144.266 65.2908 144.356ZM68.2146 144.408C67.937 144.57 67.8292 144.74 67.8292 145.017C67.8292 145.315 68.0302 145.461 68.713 145.661C69.4967 145.891 69.6575 145.989 69.6286 146.222C69.5972 146.474 69.1692 146.667 68.776 146.605C68.5013 146.562 68.1728 146.349 68.1097 146.174C68.0759 146.08 67.6842 146.14 67.6842 146.239C67.6842 146.38 68.1547 146.775 68.446 146.878C69.0077 147.077 69.7963 146.868 69.9925 146.469C70.2437 145.956 69.9826 145.669 69.0148 145.391C68.3396 145.197 68.2993 145.175 68.2763 144.989C68.2441 144.729 68.4172 144.617 68.8528 144.617C69.1168 144.617 69.2479 144.658 69.4205 144.793C69.5859 144.922 69.6927 144.957 69.8266 144.926C69.9789 144.89 69.9962 144.863 69.9342 144.755C69.6879 144.328 68.696 144.128 68.2146 144.408ZM86.3011 144.422C85.5134 144.808 85.3514 145.911 85.9872 146.561C86.2389 146.818 86.5468 146.93 87.0122 146.936C87.5611 146.942 87.947 146.766 88.2451 146.374C88.4385 146.119 88.4627 146.033 88.4627 145.599C88.4627 145.176 88.4361 145.076 88.2623 144.843C87.9678 144.448 87.6003 144.28 87.0386 144.284C86.7214 144.286 86.4907 144.329 86.3011 144.422ZM89.9367 144.447C89.7915 144.539 89.656 144.653 89.6355 144.7C89.6151 144.747 89.5957 144.687 89.5926 144.567C89.5874 144.369 89.5655 144.348 89.3677 144.348H89.1485L89.1682 145.611L89.188 146.874L89.3874 146.895L89.5869 146.917L89.5885 146.154C89.5904 145.224 89.7216 144.873 90.1262 144.716C90.519 144.564 90.7864 144.592 91.0543 144.814L91.2912 145.01L91.3149 145.959L91.3384 146.908H91.5559H91.7734L91.7499 145.948C91.7235 144.874 91.6628 144.685 91.2624 144.435C90.9087 144.214 90.2978 144.219 89.9367 144.447ZM98.1837 144.49L97.9273 144.699V144.523C97.9273 144.373 97.8959 144.348 97.7081 144.348H97.489L97.5087 145.611L97.5284 146.874L97.7279 146.895L97.9273 146.917L97.929 146.222C97.9319 145.092 98.103 144.725 98.6665 144.641C98.8963 144.607 98.9427 144.574 98.9427 144.44C98.9427 144.19 98.5171 144.218 98.1837 144.49ZM103.172 144.412C102.899 144.567 102.786 144.74 102.789 145C102.793 145.32 102.964 145.439 103.783 145.691L104.563 145.931V146.167C104.563 146.373 104.529 146.418 104.291 146.526C103.902 146.703 103.51 146.63 103.225 146.328C103.048 146.142 102.97 146.105 102.824 146.139C102.589 146.194 102.594 146.247 102.862 146.531C103.277 146.969 104.023 147.084 104.616 146.799C104.83 146.696 105.035 146.391 105.035 146.173C105.035 145.807 104.799 145.613 104.128 145.43C103.377 145.224 103.222 145.149 103.222 144.993C103.222 144.602 103.962 144.468 104.369 144.786C104.585 144.955 104.847 145.006 104.921 144.895C104.985 144.798 104.667 144.474 104.408 144.374C104.055 144.236 103.449 144.255 103.172 144.412ZM113.049 144.341C112.969 144.373 112.842 144.464 112.766 144.542C112.584 144.73 112.505 144.722 112.505 144.516C112.505 144.374 112.471 144.348 112.286 144.348H112.067L112.086 145.611L112.106 146.874L112.298 146.895L112.49 146.915L112.516 146.086C112.538 145.415 112.569 145.216 112.684 145.04C113.037 144.494 113.962 144.488 114.165 145.03C114.209 145.148 114.246 145.618 114.246 146.076V146.908H114.463H114.681L114.68 146.049C114.68 145.048 114.617 144.782 114.317 144.516C114.131 144.35 114.031 144.318 113.646 144.301C113.397 144.291 113.129 144.308 113.049 144.341ZM115.791 144.408C115.514 144.57 115.406 144.74 115.406 145.017C115.406 145.315 115.607 145.461 116.29 145.661C117.073 145.891 117.234 145.989 117.205 146.222C117.189 146.354 117.11 146.436 116.91 146.526C116.528 146.7 116.126 146.628 115.816 146.332C115.641 146.165 115.537 146.115 115.42 146.144C115.21 146.195 115.219 146.252 115.482 146.531C116.173 147.262 117.654 146.99 117.654 146.131C117.654 145.826 117.312 145.586 116.603 145.392C115.933 145.209 115.747 145.092 115.82 144.897C115.893 144.702 116.077 144.617 116.43 144.617C116.694 144.617 116.825 144.658 116.997 144.793C117.163 144.922 117.27 144.957 117.403 144.926C117.556 144.89 117.573 144.863 117.511 144.755C117.265 144.328 116.273 144.128 115.791 144.408ZM119.203 144.41C119.078 144.481 118.954 144.572 118.927 144.612C118.841 144.741 118.742 144.69 118.742 144.516C118.742 144.382 118.706 144.348 118.561 144.348H118.38V146.167V147.986H118.561H118.742V147.245C118.742 146.837 118.762 146.504 118.786 146.504C118.81 146.504 118.926 146.579 119.043 146.67C119.681 147.169 120.741 146.957 121.1 146.259C121.451 145.577 121.208 144.755 120.561 144.437C120.151 144.236 119.533 144.224 119.203 144.41ZM124.035 144.395C123.936 144.459 123.815 144.557 123.767 144.614C123.692 144.703 123.678 144.691 123.676 144.533C123.674 144.373 123.645 144.348 123.456 144.348H123.239V145.628V146.908H123.456H123.674V146.183C123.674 145.785 123.706 145.355 123.745 145.229C123.845 144.906 124.091 144.689 124.413 144.641C124.643 144.607 124.689 144.574 124.689 144.44C124.689 144.305 124.653 144.281 124.452 144.281C124.321 144.281 124.133 144.332 124.035 144.395ZM125.77 144.435C125.305 144.659 125.026 145.173 125.076 145.717C125.125 146.262 125.377 146.599 125.898 146.821C126.231 146.962 126.361 146.983 126.666 146.946C127.12 146.89 127.372 146.772 127.618 146.501C127.849 146.246 127.854 146.194 127.65 146.144C127.535 146.116 127.415 146.17 127.214 146.338C127.051 146.476 126.855 146.574 126.738 146.578C126.109 146.601 125.865 146.505 125.629 146.146C125.336 145.701 125.349 145.695 126.684 145.695C127.876 145.695 127.88 145.695 127.88 145.544C127.879 145.062 127.533 144.538 127.106 144.373C126.735 144.229 126.141 144.256 125.77 144.435ZM146.121 144.387C145.593 144.641 145.359 145.016 145.359 145.605C145.359 146.068 145.486 146.349 145.819 146.62C146.437 147.124 147.512 147.033 147.969 146.438L148.125 146.234L147.932 146.166C147.764 146.107 147.719 146.121 147.591 146.272C147.51 146.368 147.358 146.477 147.253 146.514C146.955 146.621 146.405 146.593 146.187 146.46C145.99 146.34 145.7 145.849 145.767 145.749C145.787 145.719 146.323 145.695 146.959 145.695H148.115V145.436C148.115 145.044 147.839 144.619 147.465 144.436C147.087 144.25 146.451 144.227 146.121 144.387ZM149.384 144.406C149.211 144.479 149.005 144.647 148.876 144.82C148.684 145.077 148.659 145.167 148.659 145.593C148.659 146.008 148.687 146.115 148.861 146.36C149.325 147.011 150.242 147.154 150.86 146.67C151.132 146.457 151.161 146.461 151.161 146.706C151.161 146.876 151.189 146.908 151.342 146.908H151.524V145.628V144.348H151.342C151.187 144.348 151.161 144.379 151.161 144.563V144.777L150.962 144.605C150.852 144.51 150.691 144.398 150.604 144.356C150.363 144.241 149.711 144.268 149.384 144.406ZM76.0246 145.222C76.0246 146.204 76.121 146.549 76.4575 146.772C76.8878 147.056 77.5388 147.009 77.9846 146.66L78.2004 146.492V146.7C78.2004 146.877 78.2274 146.908 78.3817 146.908H78.563V145.628V144.348H78.3906C78.2206 144.348 78.2178 144.359 78.1877 145.143C78.1621 145.811 78.1319 145.976 77.9992 146.176C77.7458 146.557 77.2614 146.681 76.8329 146.475C76.5221 146.326 76.4597 146.11 76.4597 145.187V144.348H76.2422H76.0246V145.222ZM79.4498 145.611L79.4696 146.874L79.669 146.895L79.8684 146.917V145.632V144.348H79.6493H79.4301L79.4498 145.611ZM99.4503 145.127C99.4503 146.032 99.54 146.434 99.7946 146.67C100.19 147.037 100.942 147.048 101.378 146.692L101.626 146.49V146.699C101.626 146.886 101.649 146.908 101.844 146.908H102.061V145.628V144.348H101.844H101.626V145.091C101.626 146.173 101.437 146.495 100.767 146.555C100.452 146.583 100.387 146.564 100.168 146.382L99.9218 146.178L99.8965 145.263L99.8713 144.348H99.6608H99.4503V145.127ZM121.95 145.611L121.97 146.874L122.169 146.895L122.368 146.917V145.632V144.348H122.149H121.93L121.95 145.611ZM136.874 144.375C136.874 144.395 137.151 144.96 137.491 145.63L138.109 146.849L137.854 147.396C137.714 147.696 137.599 147.954 137.599 147.968C137.599 147.982 137.699 147.985 137.821 147.973C138.039 147.952 138.062 147.913 138.873 146.181C139.329 145.207 139.702 144.394 139.702 144.375C139.702 144.355 139.601 144.349 139.478 144.361C139.263 144.381 139.235 144.422 138.814 145.342C138.572 145.87 138.351 146.302 138.324 146.302C138.297 146.302 138.062 145.87 137.802 145.342C137.351 144.424 137.32 144.381 137.102 144.361C136.976 144.349 136.874 144.356 136.874 144.375ZM152.394 145.26C152.394 145.882 152.426 146.242 152.494 146.393C152.77 147.006 153.745 147.158 154.305 146.676L154.489 146.517L154.511 146.696C154.528 146.834 154.578 146.879 154.733 146.895L154.932 146.917V145.632V144.348H154.721H154.509L154.485 145.229L154.461 146.11L154.19 146.341C153.964 146.533 153.864 146.571 153.586 146.571C153.315 146.571 153.214 146.535 153.041 146.374L152.829 146.177V145.263V144.348H152.612H152.394V145.26ZM157.781 144.432C157.801 144.479 158.086 145.038 158.415 145.676L159.014 146.836L158.754 147.394L158.495 147.952L158.681 147.974C158.783 147.986 158.892 147.971 158.923 147.94C158.984 147.88 160.589 144.461 160.589 144.39C160.589 144.367 160.495 144.348 160.38 144.348C160.18 144.348 160.152 144.39 159.696 145.375L159.22 146.403L158.991 145.936C158.179 144.276 158.225 144.348 157.975 144.348C157.821 144.348 157.757 144.376 157.781 144.432ZM56.8228 144.752C56.3391 145.026 56.1658 145.585 56.4141 146.071C56.578 146.392 56.9214 146.571 57.3734 146.571C57.6833 146.571 57.7845 146.537 57.9986 146.363C58.7569 145.744 58.328 144.617 57.3348 144.618C57.1832 144.618 56.9528 144.678 56.8228 144.752ZM65.2795 144.783C65.0722 144.914 64.8557 145.23 64.8557 145.402C64.8557 145.415 65.2962 145.426 65.8348 145.426C66.7199 145.426 66.8136 145.415 66.8113 145.308C66.7987 144.73 65.8688 144.411 65.2795 144.783ZM86.5433 144.736C85.8617 145.055 85.8301 146.065 86.49 146.439C86.7712 146.598 87.2625 146.611 87.563 146.467C88.234 146.144 88.227 145.077 87.5517 144.741C87.2405 144.586 86.8672 144.584 86.5433 144.736ZM119.263 144.754C118.931 144.942 118.714 145.407 118.782 145.784C118.847 146.142 119.278 146.568 119.586 146.578C120.419 146.607 120.845 146.272 120.845 145.59C120.845 144.821 119.966 144.356 119.263 144.754ZM125.944 144.75C125.728 144.872 125.487 145.191 125.487 145.355C125.487 145.401 125.831 145.426 126.466 145.426C127.24 145.426 127.445 145.407 127.445 145.335C127.445 145.186 127.129 144.794 126.935 144.704C126.669 144.579 126.208 144.6 125.944 144.75ZM129.28 144.749C128.931 144.947 128.792 145.19 128.792 145.603C128.792 146.404 129.657 146.853 130.391 146.432C131.237 145.945 130.842 144.617 129.851 144.618C129.643 144.618 129.423 144.669 129.28 144.749ZM134.493 144.754C134.161 144.942 133.944 145.407 134.013 145.784C134.078 146.142 134.509 146.568 134.816 146.578C135.649 146.607 136.076 146.272 136.076 145.59C136.076 144.821 135.196 144.356 134.493 144.754ZM146.227 144.732C146 144.878 145.891 145.008 145.801 145.241L145.729 145.426H146.704C147.537 145.426 147.68 145.411 147.68 145.321C147.68 145.127 147.461 144.822 147.247 144.72C146.963 144.583 146.45 144.589 146.227 144.732ZM149.529 144.751C148.925 145.121 148.9 146.044 149.484 146.43C149.817 146.651 150.361 146.64 150.691 146.406C151.019 146.174 151.115 145.997 151.114 145.628C151.114 145.027 150.692 144.618 150.073 144.618C149.87 144.618 149.664 144.669 149.529 144.751ZM72.6884 145.864V146.504H73.5788C74.5591 146.504 74.704 146.459 74.8612 146.106C74.9309 145.95 74.9318 145.852 74.8652 145.664C74.7349 145.298 74.5098 145.224 73.5261 145.224H72.6884V145.864ZM142.095 145.864V146.504H142.996C143.86 146.504 143.907 146.496 144.12 146.329C144.431 146.087 144.436 145.703 144.132 145.421C143.92 145.224 143.919 145.224 143.008 145.224H142.095V145.864ZM108.089 146.723C107.901 147.608 107.9 147.581 108.106 147.581C108.265 147.581 108.305 147.538 108.373 147.295C108.418 147.138 108.499 146.865 108.554 146.689L108.653 146.369H108.408C108.171 146.369 108.161 146.38 108.089 146.723ZM161.112 146.45C161.064 146.494 161.025 146.581 161.025 146.644C161.025 146.934 161.549 147.004 161.592 146.719C161.636 146.434 161.319 146.257 161.112 146.45ZM181.25 160.027C181.16 160.134 181.162 160.136 181.277 160.052C181.347 160.001 181.404 159.948 181.404 159.934C181.404 159.879 181.345 159.915 181.25 160.027ZM180.887 160.431C180.797 160.538 180.8 160.54 180.915 160.457C180.984 160.406 181.042 160.353 181.042 160.339C181.042 160.283 180.982 160.319 180.887 160.431ZM180.491 160.869L180.353 161.02L180.516 160.892C180.669 160.772 180.712 160.717 180.654 160.717C180.64 160.717 180.567 160.786 180.491 160.869ZM180.058 161.34L179.845 161.559L180.081 161.362C180.3 161.177 180.35 161.122 180.294 161.122C180.281 161.122 180.175 161.22 180.058 161.34ZM179.587 161.846L179.337 162.098L179.609 161.866C179.862 161.65 179.915 161.593 179.859 161.593C179.847 161.593 179.725 161.707 179.587 161.846ZM178.279 163.193C174.729 166.796 170.607 170.354 166.446 173.407C165.897 173.809 165.449 174.154 165.449 174.172C165.449 174.191 165.489 174.176 165.539 174.14C165.589 174.103 166.168 173.715 166.827 173.278C167.485 172.841 168.79 171.947 169.728 171.291C171.314 170.18 171.533 170 172.884 168.691C175.298 166.354 177.018 164.625 178.89 162.654C179.745 161.755 179.371 162.084 178.279 163.193ZM165.222 174.308C165.132 174.415 165.134 174.417 165.249 174.333C165.319 174.283 165.376 174.229 165.376 174.215C165.376 174.16 165.316 174.196 165.222 174.308ZM41.575 174.754C41.575 174.768 41.6321 174.821 41.7019 174.872C41.8169 174.956 41.8194 174.954 41.7293 174.847C41.6345 174.735 41.575 174.699 41.575 174.754ZM42.2277 175.275C42.4072 175.428 43.2068 176.048 44.0046 176.653C52.4154 183.034 61.9224 188.133 71.383 191.336C77.7637 193.497 83.3669 194.844 90.566 195.948C91.0047 196.015 91.5922 196.087 91.8714 196.106C92.4795 196.149 92.4818 196.149 90.245 195.807C85.2612 195.045 80.1784 193.852 74.973 192.221C70.2479 190.74 67.1079 189.538 62.7162 187.525C55.5567 184.245 49.8591 180.877 43.4214 176.12C42.5854 175.502 42.0482 175.122 42.2277 175.275ZM57.5306 179.878C57.5306 179.896 57.5959 179.944 57.6756 179.983C57.7554 180.023 57.8207 180.04 57.8207 180.022C57.8207 180.003 57.7554 179.956 57.6756 179.916C57.5959 179.876 57.5306 179.859 57.5306 179.878ZM57.8932 180.071C57.8932 180.111 59.4418 180.96 60.4679 181.483C62.6909 182.615 65.0397 183.693 65.2735 183.687C65.3029 183.686 64.106 183.109 62.6137 182.404C60.246 181.285 59.3141 180.821 58.1652 180.187C58.0156 180.105 57.8932 180.053 57.8932 180.071ZM141.225 186.695C140.687 186.901 139.087 187.429 137.671 187.869C134.248 188.933 134.402 188.929 138.215 187.856C140.205 187.296 142.612 186.493 142.393 186.462C142.308 186.45 142.257 186.412 142.28 186.378C142.349 186.275 142.246 186.306 141.225 186.695ZM58.9811 186.816C58.9811 186.834 59.0464 186.882 59.1261 186.922C59.2059 186.961 59.2712 186.979 59.2712 186.96C59.2712 186.942 59.2059 186.894 59.1261 186.854C59.0464 186.815 58.9811 186.797 58.9811 186.816ZM59.7789 187.223C59.7789 187.242 60.0073 187.364 60.2866 187.494C60.5658 187.625 60.7942 187.717 60.7942 187.698C60.7942 187.68 60.5658 187.558 60.2866 187.427C60.0073 187.296 59.7789 187.205 59.7789 187.223ZM149.565 188.404C149.506 188.44 149.489 188.469 149.529 188.469C149.569 188.469 149.651 188.44 149.711 188.404C149.77 188.368 149.787 188.338 149.747 188.338C149.707 188.338 149.625 188.368 149.565 188.404ZM134.734 188.741C134.643 188.777 134.629 188.798 134.698 188.798C134.758 188.798 134.872 188.772 134.952 188.741C135.043 188.704 135.056 188.683 134.988 188.683C134.928 188.683 134.814 188.709 134.734 188.741ZM148.55 188.842C148.371 188.931 148.256 189.004 148.296 189.004C148.336 189.004 148.516 188.931 148.695 188.842C148.875 188.752 148.989 188.679 148.949 188.679C148.909 188.679 148.73 188.752 148.55 188.842ZM134.394 188.854C134.446 188.873 134.509 188.871 134.533 188.849C134.557 188.826 134.514 188.81 134.438 188.813C134.353 188.816 134.336 188.832 134.394 188.854ZM63.6953 189.077C63.9146 189.185 64.1268 189.273 64.1667 189.273C64.2066 189.273 64.0597 189.185 63.8403 189.077C63.6209 188.97 63.4088 188.882 63.3689 188.882C63.329 188.882 63.4759 188.97 63.6953 189.077ZM147.39 189.347C147.33 189.383 147.314 189.412 147.353 189.412C147.393 189.412 147.475 189.383 147.535 189.347C147.595 189.311 147.611 189.281 147.571 189.281C147.531 189.281 147.45 189.311 147.39 189.347ZM64.7831 189.549C64.9228 189.62 65.0696 189.678 65.1095 189.678C65.1494 189.678 65.0678 189.62 64.9282 189.549C64.7886 189.478 64.6417 189.42 64.6018 189.42C64.5619 189.42 64.6435 189.478 64.7831 189.549ZM65.5084 189.852C65.6081 189.905 65.7223 189.948 65.7622 189.948C65.8021 189.948 65.7532 189.905 65.6534 189.852C65.5537 189.799 65.4395 189.756 65.3996 189.756C65.3597 189.756 65.4087 189.799 65.5084 189.852ZM66.1611 190.121C66.2608 190.174 66.3751 190.218 66.415 190.218C66.4548 190.218 66.4059 190.174 66.3062 190.121C66.2065 190.069 66.0922 190.025 66.0523 190.025C66.0125 190.025 66.0614 190.069 66.1611 190.121ZM66.7413 190.357C66.8809 190.428 67.0278 190.486 67.0677 190.486C67.1076 190.486 67.026 190.428 66.8864 190.357C66.7468 190.286 66.5999 190.228 66.56 190.228C66.5201 190.228 66.6017 190.286 66.7413 190.357ZM67.3215 190.593C67.4213 190.646 67.5355 190.689 67.5754 190.689C67.6152 190.689 67.5663 190.646 67.4666 190.593C67.3669 190.54 67.2526 190.497 67.2127 190.497C67.1729 190.497 67.2218 190.54 67.3215 190.593ZM67.7567 190.761C67.8165 190.797 67.8981 190.827 67.938 190.827C67.9779 190.827 67.9616 190.797 67.9017 190.761C67.8419 190.726 67.7603 190.696 67.7204 190.696C67.6805 190.696 67.6968 190.726 67.7567 190.761ZM68.2644 190.964C68.3242 190.999 68.4058 191.029 68.4457 191.029C68.4856 191.029 68.4692 190.999 68.4094 190.964C68.3496 190.928 68.268 190.898 68.2281 190.898C68.1882 190.898 68.2045 190.928 68.2644 190.964ZM68.627 191.098C68.6868 191.134 68.7684 191.163 68.8083 191.163C68.8482 191.163 68.8319 191.134 68.772 191.098C68.7122 191.062 68.6306 191.033 68.5907 191.033C68.5508 191.033 68.5671 191.062 68.627 191.098ZM69.0621 191.267C69.1619 191.32 69.2761 191.363 69.316 191.363C69.3559 191.363 69.3069 191.32 69.2072 191.267C69.1075 191.214 68.9932 191.17 68.9534 191.17C68.9135 191.17 68.9624 191.214 69.0621 191.267ZM64.0579 191.873C64.3172 191.999 64.5619 192.102 64.6018 192.102C64.6417 192.102 64.4622 191.999 64.2029 191.873C63.9437 191.747 63.6989 191.644 63.659 191.644C63.6191 191.644 63.7986 191.747 64.0579 191.873ZM149.928 191.907C149.868 191.942 149.852 191.972 149.892 191.972C149.932 191.972 150.013 191.942 150.073 191.907C150.133 191.871 150.149 191.841 150.109 191.841C150.07 191.841 149.988 191.871 149.928 191.907ZM71.0203 191.974C71.0802 192.01 71.1618 192.039 71.2016 192.039C71.2415 192.039 71.2252 192.01 71.1654 191.974C71.1055 191.938 71.024 191.909 70.9841 191.909C70.9442 191.909 70.9605 191.938 71.0203 191.974ZM65.6534 192.555C68.7882 193.988 73.1318 195.628 75.9521 196.444C78.6719 197.231 80.2023 197.59 82.987 198.094C85.3202 198.516 85.9943 198.586 84.4375 198.245C77.7085 196.77 71.824 194.978 66.1611 192.68C64.5453 192.025 64.4326 191.997 65.6534 192.555ZM149.058 192.277C148.878 192.366 148.764 192.439 148.804 192.439C148.844 192.439 149.023 192.366 149.203 192.277C149.382 192.188 149.497 192.115 149.457 192.115C149.417 192.115 149.237 192.188 149.058 192.277ZM72.1807 192.378C72.2406 192.414 72.3222 192.443 72.3621 192.443C72.4019 192.443 72.3856 192.414 72.3258 192.378C72.266 192.342 72.1844 192.313 72.1445 192.313C72.1046 192.313 72.1209 192.342 72.1807 192.378ZM105.162 192.423C105.212 192.441 105.293 192.441 105.343 192.423C105.393 192.404 105.352 192.389 105.252 192.389C105.153 192.389 105.112 192.404 105.162 192.423ZM107.029 192.445C106.231 192.466 105.693 192.491 105.833 192.501C105.972 192.51 106.413 192.546 106.812 192.581C107.335 192.626 108.012 192.616 109.241 192.542C110.179 192.487 111.011 192.431 111.091 192.419C111.311 192.385 108.671 192.403 107.029 192.445ZM137.585 194.243C137.637 194.262 137.7 194.26 137.724 194.238C137.748 194.215 137.705 194.199 137.629 194.202C137.545 194.206 137.527 194.221 137.585 194.243ZM136.692 194.466C136.601 194.503 136.587 194.524 136.656 194.524C136.716 194.524 136.83 194.498 136.91 194.466C137.001 194.43 137.015 194.409 136.946 194.409C136.886 194.409 136.772 194.435 136.692 194.466ZM135.917 194.715C135.969 194.734 136.032 194.732 136.056 194.709C136.08 194.687 136.037 194.671 135.961 194.674C135.876 194.677 135.859 194.693 135.917 194.715ZM135.409 194.849C135.462 194.869 135.524 194.866 135.548 194.844C135.572 194.822 135.53 194.806 135.453 194.809C135.369 194.812 135.352 194.828 135.409 194.849ZM135.05 194.903C134.987 194.961 131.35 195.803 129.693 196.143C125.012 197.104 119.951 197.814 115.515 198.133C111.889 198.394 111.395 198.407 105.777 198.4C102.694 198.396 100.182 198.402 100.194 198.413C100.205 198.423 101.161 198.486 102.317 198.552C103.818 198.637 105.392 198.671 107.827 198.67C111.102 198.669 112.396 198.624 115.478 198.403C120.913 198.012 127.358 196.941 133.22 195.453C134.987 195.004 135.405 194.882 135.199 194.875C135.136 194.873 135.069 194.885 135.05 194.903ZM92.5074 196.197C92.578 196.214 92.6759 196.213 92.725 196.195C92.7741 196.176 92.7163 196.162 92.5967 196.164C92.477 196.165 92.4368 196.18 92.5074 196.197ZM93.0876 196.265C93.1582 196.282 93.2561 196.281 93.3052 196.262C93.3543 196.244 93.2966 196.23 93.1769 196.231C93.0572 196.232 93.017 196.247 93.0876 196.265ZM93.6302 196.33C93.6801 196.349 93.7617 196.349 93.8115 196.33C93.8614 196.311 93.8205 196.296 93.7208 196.296C93.6211 196.296 93.5803 196.311 93.6302 196.33ZM94.1755 196.399C94.246 196.416 94.344 196.415 94.3931 196.397C94.4422 196.378 94.3844 196.364 94.2648 196.366C94.1451 196.367 94.1049 196.382 94.1755 196.399ZM94.7557 196.467C94.8263 196.484 94.9242 196.483 94.9733 196.464C95.0224 196.446 94.9646 196.432 94.845 196.433C94.7253 196.434 94.6851 196.45 94.7557 196.467ZM95.3708 196.532C95.4207 196.551 95.5023 196.551 95.5521 196.532C95.602 196.513 95.5612 196.498 95.4614 196.498C95.3617 196.498 95.3209 196.513 95.3708 196.532ZM87.9052 198.622C87.9575 198.641 88.0201 198.639 88.0442 198.616C88.0682 198.594 88.0255 198.578 87.949 198.581C87.8645 198.584 87.8473 198.6 87.9052 198.622ZM88.2633 198.688C88.3132 198.706 88.3948 198.706 88.4446 198.688C88.4945 198.669 88.4537 198.654 88.3539 198.654C88.2542 198.654 88.2134 198.669 88.2633 198.688Z" fill="url(#paint0_linear_45_2462)"/>
<defs>
<linearGradient id="paint0_linear_45_2462" x1="107" y1="0" x2="107" y2="202" gradientUnits="userSpaceOnUse">
<stop stop-color="#FFC205"/>
<stop offset="1" stop-color="#967102"/>
</linearGradient>
</defs>
</svg>
