<svg width="360" height="350" viewBox="0 0 360 350" fill="none" xmlns="http://www.w3.org/2000/svg">
<path d="M179.806 320.523V325.388L8.08557 229.005V224.14L179.806 320.523Z" fill="#E0E0E0"/>
<path d="M351.518 228.998L179.806 325.388V320.523L351.518 224.14V228.998Z" fill="#EBEBEB"/>
<path d="M321.149 207.088L179.806 286.426L38.4624 207.088L8.08557 224.14L179.806 320.523L351.518 224.14L321.149 207.088Z" fill="#F5F5F5"/>
<path d="M187.164 282.17L217.541 299.215L215.417 300.405L184.91 283.43L187.164 282.17Z" fill="#E0E0E0"/>
<path d="M321.142 207.088L269.77 235.935L267.509 237.195L267.286 237.321L242.618 251.167V251.174H242.611L240.358 252.434H240.35L214.949 266.707L212.688 267.967L187.286 282.233L185.026 283.5L179.806 286.433L177.545 285.166L38.4623 207.088L66.1607 191.541L156.067 141.071L179.806 127.75L321.142 207.088Z" fill="#FFC100"/>
<path opacity="0.3" d="M321.142 207.088L269.77 235.935L267.509 237.195L267.286 237.321L242.618 251.167V251.174H242.611L240.358 252.434H240.35L214.949 266.707L212.688 267.967L187.286 282.233L185.026 283.5L179.806 286.433L177.545 285.166L38.4623 207.088L66.1607 191.541L156.067 141.071L179.806 127.75L321.142 207.088Z" fill="white"/>
<path d="M270.007 238.602L245.261 252.658L242.503 251.104L240.35 249.9L220.399 238.7L218.261 237.503L202.673 228.753L227.57 214.774L243.158 223.524L245.405 224.784L265.255 235.935L267.509 237.195L270.007 238.602Z" fill="#F5F5F5"/>
<path d="M321.149 207.088L351.518 224.14L321.149 207.088Z" fill="#F5F5F5"/>
<path d="M214.891 266.672L245.261 283.717L243.137 284.907L212.63 267.939L214.891 266.672Z" fill="#E0E0E0"/>
<path d="M177.552 285.166L147.175 302.211L149.299 303.401L179.806 286.433L177.552 285.166Z" fill="#E0E0E0"/>
<path d="M149.558 269.486L119.189 286.531L121.313 287.728L151.819 270.753L149.558 269.486Z" fill="#E0E0E0"/>
<path d="M121.572 253.806L91.2024 270.851L93.3264 272.048L123.833 255.073L121.572 253.806Z" fill="#E0E0E0"/>
<path d="M93.5855 238.126L63.2159 255.171L65.3399 256.368L95.8463 239.393L93.5855 238.126Z" fill="#E0E0E0"/>
<path d="M65.5992 222.446L35.2296 239.491L37.3536 240.688L67.8528 223.713L65.5992 222.446Z" fill="#E0E0E0"/>
<path d="M269.77 235.928L300.139 252.98L298.015 254.17L267.509 237.195L269.77 235.928Z" fill="#E0E0E0"/>
<path d="M297.49 220.43L327.859 237.482L325.742 238.672L295.236 221.697L297.49 220.43Z" fill="#E0E0E0"/>
<path d="M242.611 251.174L272.988 268.219L270.864 269.416L240.358 252.441L242.611 251.174Z" fill="#E0E0E0"/>
<path d="M267.509 237.195L242.503 251.104L240.35 249.9L265.255 235.935L267.509 237.195Z" fill="#E0E0E0"/>
<path d="M245.405 224.784L220.399 238.7L218.261 237.503L243.158 223.524L245.405 224.784Z" fill="#E0E0E0"/>
<g opacity="0.1">
<path d="M257.479 197.995L255.197 199.185L230.292 213.157L167.486 248.416L66.1608 191.541L156.067 141.071L257.479 197.995Z" fill="black"/>
</g>
<path opacity="0.1" d="M205.142 302.666C214.101 302.666 221.364 298.589 221.364 293.559C221.364 288.529 214.101 284.452 205.142 284.452C196.183 284.452 188.921 288.529 188.921 293.559C188.921 298.589 196.183 302.666 205.142 302.666Z" fill="black"/>
<path opacity="0.1" d="M157.054 304.171C166.013 304.171 173.275 300.094 173.275 295.064C173.275 290.034 166.013 285.957 157.054 285.957C148.095 285.957 140.832 290.034 140.832 295.064C140.832 300.094 148.095 304.171 157.054 304.171Z" fill="black"/>
<g opacity="0.1">
<path d="M295.603 201.271C297.763 202.496 297.763 204.47 295.603 205.688C294.383 206.288 293.036 206.601 291.668 206.601C290.301 206.601 288.953 206.288 287.734 205.688C285.574 204.47 285.574 202.496 287.734 201.271C288.953 200.671 290.301 200.358 291.668 200.358C293.036 200.358 294.383 200.671 295.603 201.271Z" fill="black"/>
</g>
<g opacity="0.1">
<path d="M272.7 228.9C274.86 230.125 274.86 232.099 272.7 233.317C271.482 233.918 270.135 234.231 268.769 234.231C267.403 234.231 266.056 233.918 264.838 233.317C262.678 232.099 262.678 230.125 264.838 228.9C266.056 228.299 267.403 227.986 268.769 227.986C270.135 227.986 271.482 228.299 272.7 228.9Z" fill="black"/>
</g>
<g opacity="0.1">
<path d="M73.584 210.546C75.744 211.764 75.744 213.745 73.584 214.963C72.3642 215.563 71.0163 215.876 69.6492 215.876C68.282 215.876 66.9341 215.563 65.7144 214.963C63.5544 213.745 63.5544 211.764 65.7144 210.546C66.9341 209.946 68.282 209.633 69.6492 209.633C71.0163 209.633 72.3642 209.946 73.584 210.546Z" fill="black"/>
</g>
<path d="M77.8176 138.663V193.011L167.551 243.376V169.582L95.1192 128.667L77.8176 138.663Z" fill="#EBEBEB"/>
<path d="M252.245 122.045V195.832L222.343 212.611L197.446 226.59L167.551 243.376V169.589L211.838 112.819L252.245 122.045Z" fill="#FAFAFA"/>
<path d="M222.343 160.174V212.611L197.446 226.611V174.153C197.539 169.829 198.608 165.578 200.578 161.7C200.75 161.35 200.923 161 201.11 160.671C203.35 156.471 206.467 152.971 209.894 151.039C211.381 150.141 213.084 149.639 214.834 149.583C219.254 149.562 222.343 153.538 222.343 160.174Z" fill="#FFC100"/>
<path opacity="0.3" d="M222.343 160.174V212.611L197.446 226.611V174.153C197.539 169.829 198.608 165.578 200.578 161.7C200.75 161.35 200.923 161 201.11 160.671C203.35 156.471 206.467 152.971 209.894 151.039C211.381 150.141 213.084 149.639 214.834 149.583C219.254 149.562 222.343 153.538 222.343 160.174Z" fill="black"/>
<path d="M220.154 158.515L213.372 162.316L211.385 163.436L210.485 163.94L209.311 164.64L208.253 165.228L207.108 165.872L199.44 170.142C199.836 167.503 200.627 164.935 201.787 162.519C201.798 162.493 201.81 162.467 201.823 162.442C201.974 162.113 202.14 161.791 202.306 161.483C202.314 161.455 202.329 161.428 202.349 161.406C202.608 160.909 202.882 160.433 203.17 159.964C204.57 157.593 206.417 155.498 208.613 153.79C208.843 153.629 209.074 153.468 209.333 153.321C209.592 153.174 209.65 153.111 209.815 153.013L210.118 152.838C210.254 152.761 210.384 152.691 210.506 152.635C212.962 151.354 215.215 151.277 216.986 152.173C217.217 152.283 217.436 152.415 217.642 152.565L217.966 152.796L218.052 152.873C218.208 153.048 218.352 153.233 218.484 153.426C219.466 154.961 220.04 156.71 220.154 158.515Z" fill="#FAFAFA"/>
<path d="M220.91 159.257L212.4 164.045L209.333 165.767L209.246 165.816L208.109 166.453L199.318 171.388C199.354 170.975 199.404 170.555 199.462 170.142L207.13 165.837L208.274 165.193L209.333 164.605L210.506 163.905L211.406 163.401L213.394 162.281L220.176 158.48C220.061 156.678 219.487 154.931 218.506 153.398C218.374 153.205 218.229 153.02 218.074 152.845V152.796C218.262 152.948 218.44 153.112 218.606 153.286C219.823 154.637 220.666 156.653 220.91 159.257Z" fill="#FFC100"/>
<path opacity="0.6" d="M220.91 159.257L212.4 164.045L209.333 165.767L209.246 165.816L208.109 166.453L199.318 171.388C199.354 170.975 199.404 170.555 199.462 170.142L207.13 165.837L208.274 165.193L209.333 164.605L210.506 163.905L211.406 163.401L213.394 162.281L220.176 158.48C220.061 156.678 219.487 154.931 218.506 153.398C218.374 153.205 218.229 153.02 218.074 152.845V152.796C218.262 152.948 218.44 153.112 218.606 153.286C219.823 154.637 220.666 156.653 220.91 159.257Z" fill="black"/>
<path d="M208.534 165.473L207.468 166.068L207.396 166.11L207.029 165.879L206.417 165.494L201.787 162.519C201.798 162.493 201.81 162.467 201.823 162.442C201.974 162.113 202.14 161.791 202.306 161.483L207.562 164.85L208.174 165.235L208.534 165.473Z" fill="#FFC100"/>
<path opacity="0.6" d="M208.534 165.473L207.468 166.068L207.396 166.11L207.029 165.879L206.417 165.494L201.787 162.519C201.798 162.493 201.81 162.467 201.823 162.442C201.974 162.113 202.14 161.791 202.306 161.483L207.562 164.85L208.174 165.235L208.534 165.473Z" fill="black"/>
<path d="M217.958 152.796L217.858 152.978L217.793 153.09L212.681 161.973L212.062 163.058L211.687 163.702L211.01 164.08L210.485 164.381L209.311 165.039L208.591 165.424V153.79C208.822 153.629 209.052 153.468 209.311 153.321C209.57 153.174 209.628 153.111 209.794 153.013V164.654L210.067 164.171L210.485 163.471L210.694 163.114L216.979 152.194C217.21 152.304 217.429 152.436 217.634 152.586L217.958 152.796Z" fill="#FFC100"/>
<path opacity="0.6" d="M217.958 152.796L217.858 152.978L217.793 153.09L212.681 161.973L212.062 163.058L211.687 163.702L211.01 164.08L210.485 164.381L209.311 165.039L208.591 165.424V153.79C208.822 153.629 209.052 153.468 209.311 153.321C209.57 153.174 209.628 153.111 209.794 153.013V164.654L210.067 164.171L210.485 163.471L210.694 163.114L216.979 152.194C217.21 152.304 217.429 152.436 217.634 152.586L217.958 152.796Z" fill="black"/>
<path d="M209.225 165.816L208.087 166.453L207.468 166.068L207.108 165.837L201.823 162.442C201.974 162.113 202.14 161.791 202.306 161.483L201.982 161.273L202.025 161.196L202.349 161.406L208.253 165.193L208.613 165.424L209.225 165.816Z" fill="#FFC100"/>
<path d="M218.368 153.152C218.26 153.054 218.152 152.957 218.045 152.873C218.048 152.857 218.048 152.84 218.045 152.824L218.368 153.152Z" fill="#455A64"/>
<path d="M218.542 153.3L218.477 153.412L213.372 162.302L212.4 164.045L209.333 165.767V153.3C209.491 153.188 209.65 153.09 209.815 152.992L210.118 152.817C210.254 152.74 210.384 152.67 210.506 152.614V164.976L211.032 164.059L211.406 163.415L217.634 152.6L217.958 152.831L218.045 152.908V152.859C218.219 152.997 218.385 153.144 218.542 153.3Z" fill="#FFC100"/>
<path opacity="0.3" d="M218.542 153.3L218.477 153.412L213.372 162.302L212.4 164.045L209.333 165.767V153.3C209.491 153.188 209.65 153.09 209.815 152.992L210.118 152.817C210.254 152.74 210.384 152.67 210.506 152.614V164.976L211.032 164.059L211.406 163.415L217.634 152.6L217.958 152.831L218.045 152.908V152.859C218.219 152.997 218.385 153.144 218.542 153.3Z" fill="black"/>
<path opacity="0.3" d="M209.225 165.816L208.087 166.453L207.468 166.068L207.108 165.837L201.823 162.442C201.974 162.113 202.14 161.791 202.306 161.483L201.982 161.273L202.025 161.196L202.349 161.406L208.253 165.193L208.613 165.424L209.225 165.816Z" fill="black"/>
<path d="M200.88 194.894C200.849 194.9 200.817 194.9 200.786 194.894C200.758 194.877 200.735 194.853 200.719 194.825C200.702 194.797 200.694 194.765 200.693 194.733V176.4C200.694 176.368 200.702 176.336 200.719 176.308C200.735 176.28 200.758 176.256 200.786 176.239L208.634 171.836C208.662 171.818 208.695 171.809 208.728 171.809C208.761 171.809 208.794 171.818 208.822 171.836C208.851 171.852 208.876 171.875 208.894 171.903C208.912 171.932 208.922 171.964 208.922 171.997V190.288C208.92 190.321 208.91 190.353 208.892 190.381C208.875 190.409 208.85 190.432 208.822 190.449L200.981 194.852C200.951 194.873 200.916 194.887 200.88 194.894ZM201.074 176.519V194.383L208.534 190.183V172.333L201.074 176.519Z" fill="#FFC100"/>
<path d="M211.061 189.189C211.03 189.198 210.998 189.198 210.967 189.189C210.938 189.173 210.913 189.15 210.897 189.122C210.88 189.093 210.872 189.061 210.874 189.028V170.716C210.873 170.683 210.882 170.65 210.898 170.62C210.914 170.591 210.938 170.566 210.967 170.548L218.815 166.145C218.844 166.131 218.876 166.124 218.909 166.124C218.941 166.124 218.973 166.131 219.002 166.145C219.032 166.161 219.057 166.184 219.075 166.212C219.093 166.241 219.102 166.273 219.103 166.306V184.597C219.105 184.631 219.096 184.664 219.078 184.693C219.06 184.721 219.034 184.744 219.002 184.758L211.162 189.161C211.132 189.181 211.097 189.191 211.061 189.189ZM211.255 170.821V188.678L218.714 184.478V166.635L211.255 170.821Z" fill="#FFC100"/>
<path d="M200.88 217C200.849 217.006 200.817 217.006 200.786 217C200.758 216.983 200.735 216.959 200.719 216.931C200.702 216.903 200.694 216.871 200.693 216.839V198.555C200.691 198.522 200.699 198.49 200.716 198.461C200.732 198.433 200.757 198.41 200.786 198.394L208.634 193.991C208.662 193.974 208.695 193.964 208.728 193.964C208.761 193.964 208.794 193.974 208.822 193.991C208.852 194.006 208.877 194.029 208.895 194.058C208.913 194.086 208.922 194.119 208.922 194.152V212.436C208.921 212.47 208.912 212.503 208.894 212.532C208.876 212.562 208.852 212.586 208.822 212.604L200.974 217C200.943 217.006 200.911 217.006 200.88 217ZM201.074 198.632V216.489L208.534 212.289V194.474L201.074 198.632Z" fill="#FFC100"/>
<path d="M211.061 211.33C211.03 211.339 210.998 211.339 210.967 211.33C210.938 211.314 210.914 211.29 210.898 211.262C210.881 211.234 210.873 211.202 210.874 211.169V192.85C210.874 192.818 210.883 192.786 210.9 192.758C210.916 192.73 210.939 192.706 210.967 192.689L218.815 188.286C218.843 188.269 218.876 188.259 218.909 188.259C218.942 188.259 218.974 188.269 219.002 188.286C219.032 188.302 219.057 188.325 219.075 188.353C219.093 188.382 219.102 188.414 219.103 188.447V206.738C219.102 206.771 219.093 206.803 219.075 206.832C219.057 206.86 219.032 206.883 219.002 206.899L211.162 211.302C211.132 211.322 211.097 211.332 211.061 211.33ZM211.255 192.962V210.819L218.714 206.619V188.769L211.255 192.962Z" fill="#FFC100"/>
<path d="M218.326 189.98C218.155 189.982 217.988 189.928 217.852 189.828C217.716 189.728 217.618 189.586 217.574 189.426C217.529 189.266 217.541 189.096 217.607 188.943C217.672 188.79 217.788 188.662 217.937 188.58L220.442 187.18L219.794 186.816C219.707 186.767 219.631 186.702 219.57 186.625C219.509 186.548 219.464 186.459 219.438 186.365C219.412 186.271 219.405 186.172 219.418 186.076C219.431 185.979 219.463 185.886 219.514 185.801C219.564 185.716 219.63 185.642 219.71 185.583C219.79 185.523 219.88 185.48 219.977 185.454C220.074 185.429 220.176 185.422 220.275 185.435C220.375 185.448 220.471 185.479 220.558 185.528L222.365 186.536C222.481 186.602 222.578 186.696 222.645 186.81C222.713 186.924 222.748 187.052 222.748 187.183C222.748 187.315 222.713 187.443 222.645 187.557C222.578 187.671 222.481 187.765 222.365 187.831L218.707 189.882C218.592 189.949 218.46 189.983 218.326 189.98Z" fill="#263238"/>
<path d="M252.238 190.414L247.363 193.172V187.747L252.238 184.989V190.414Z" fill="#E0E0E0"/>
<path d="M252.238 179.564L247.363 182.322V176.897L252.238 174.139V179.564Z" fill="#E0E0E0"/>
<path d="M252.238 168.721L247.363 171.479V166.054L252.238 163.296V168.721Z" fill="#E0E0E0"/>
<path d="M252.238 157.871L247.363 160.629V155.204L252.238 152.446V157.871Z" fill="#E0E0E0"/>
<path d="M252.238 147.028L247.363 149.786V144.361L252.238 141.603V147.028Z" fill="#E0E0E0"/>
<path d="M252.238 136.178L247.363 138.936V133.511L252.238 130.753V136.178Z" fill="#E0E0E0"/>
<path d="M252.238 125.335L247.363 128.093V122.668L252.238 119.91V125.335Z" fill="#E0E0E0"/>
<path d="M172.426 235.193L167.551 237.951V232.526L172.426 229.768V235.193Z" fill="#E0E0E0"/>
<path d="M172.426 224.35L167.551 227.101V221.683L172.426 218.925V224.35Z" fill="#E0E0E0"/>
<path d="M172.426 213.5L167.551 216.258V210.833L172.426 208.075V213.5Z" fill="#E0E0E0"/>
<path d="M172.426 202.65L167.551 205.408V199.99L172.426 197.232V202.65Z" fill="#E0E0E0"/>
<path d="M172.426 191.807L167.551 194.565V189.14L172.426 186.382V191.807Z" fill="#E0E0E0"/>
<path d="M172.426 180.964L167.551 183.715V178.297L172.426 175.539V180.964Z" fill="#E0E0E0"/>
<path d="M172.426 170.114L167.551 172.872V167.447L172.426 164.689V170.114Z" fill="#E0E0E0"/>
<path d="M162.67 229.768L167.551 232.526V227.101L162.67 224.35V229.768Z" fill="#E0E0E0"/>
<path d="M162.67 240.618L167.551 243.376V237.951L162.67 235.193V240.618Z" fill="#E0E0E0"/>
<path d="M162.67 218.925L167.551 221.683V216.258L162.67 213.5V218.925Z" fill="#E0E0E0"/>
<path d="M162.67 208.075L167.551 210.833V205.408L162.67 202.65V208.075Z" fill="#E0E0E0"/>
<path d="M162.67 197.232L167.551 199.99V194.565L162.67 191.807V197.232Z" fill="#E0E0E0"/>
<path d="M162.67 186.382L167.551 189.14V183.715L162.67 180.964V186.382Z" fill="#E0E0E0"/>
<path d="M162.67 175.539L167.551 178.297V172.872L162.67 170.114V175.539Z" fill="#E0E0E0"/>
<path d="M162.67 164.689L167.551 167.447V162.029L162.67 159.271V164.689Z" fill="#E0E0E0"/>
<path d="M77.8176 182.161L82.6992 184.919V179.494L77.8176 176.736V182.161Z" fill="#E0E0E0"/>
<path d="M77.8176 193.011L82.6992 195.762V190.344L77.8176 187.586V193.011Z" fill="#E0E0E0"/>
<path d="M77.8176 171.318L82.6992 174.069V168.651L77.8176 165.893V171.318Z" fill="#E0E0E0"/>
<path d="M77.8176 160.468L82.6992 163.226V157.801L77.8176 155.043V160.468Z" fill="#E0E0E0"/>
<path d="M77.8176 149.625L82.6992 152.383V146.958L77.8176 144.2V149.625Z" fill="#E0E0E0"/>
<path d="M114.329 173.362V197.771L97.6248 188.391V163.975L114.329 173.362Z" fill="#FAFAFA"/>
<path d="M98.5248 176.596L114.329 185.465V173.362L98.5248 164.486V176.596Z" fill="#FFC100"/>
<path opacity="0.6" d="M98.5248 176.596L114.329 185.465V173.362L98.5248 164.486V176.596Z" fill="white"/>
<path d="M98.9208 187.649V177.324L114.329 185.969V184.716L98.9208 176.064V164.703L97.6176 163.975V188.391L114.329 197.771V196.301L98.9208 187.649Z" fill="#FFC100"/>
<path opacity="0.2" d="M98.9208 187.649V177.324L114.329 185.969V184.716L98.9208 176.064V164.703L97.6176 163.975V188.391L114.329 197.771V196.301L98.9208 187.649Z" fill="black"/>
<path d="M147.744 192.122V216.531L131.04 207.158V182.742L147.744 192.122Z" fill="#FAFAFA"/>
<path d="M131.94 195.356L147.744 204.225V192.122L131.94 183.246V195.356Z" fill="#FFC100"/>
<path opacity="0.6" d="M131.94 195.356L147.744 204.225V192.122L131.94 183.246V195.356Z" fill="white"/>
<path d="M132.336 206.416V196.084L147.744 204.736V203.483L132.336 194.831V183.47L131.04 182.742V207.151L147.751 216.531V215.068L132.336 206.416Z" fill="#FFC100"/>
<path opacity="0.2" d="M132.336 206.416V196.084L147.744 204.736V203.483L132.336 194.831V183.47L131.04 182.742V207.151L147.751 216.531V215.068L132.336 206.416Z" fill="black"/>
<path d="M226.606 163.975V188.384L243.31 179.004V154.588L226.606 163.975Z" fill="#FAFAFA"/>
<path d="M242.402 167.209L226.606 176.078V163.975L242.402 155.099V167.209Z" fill="#FFC100"/>
<path opacity="0.8" d="M242.402 167.209L226.606 176.078V163.975L242.402 155.099V167.209Z" fill="white"/>
<path d="M242.014 178.269V155.323L243.31 154.595V179.004L226.598 188.384V186.921L242.014 178.269Z" fill="#FFC100"/>
<path d="M226.606 175.329V176.589L243 167.384V166.124L226.606 175.329Z" fill="#FFC100"/>
<path d="M176.479 192.122V216.531L193.183 207.158V182.742L176.479 192.122Z" fill="#FAFAFA"/>
<path d="M192.283 195.356L176.479 204.225V192.122L192.283 183.246V195.356Z" fill="#FFC100"/>
<path opacity="0.8" d="M192.283 195.356L176.479 204.225V192.122L192.283 183.246V195.356Z" fill="white"/>
<path d="M191.887 206.416V183.47L193.19 182.742V207.151L176.479 216.531V215.068L191.887 206.416Z" fill="#FFC100"/>
<path d="M176.479 203.483V204.736L192.881 195.531V194.278L176.479 203.483Z" fill="#FFC100"/>
<path d="M151.085 188.384L159.077 182.938L211.061 118.104L257.962 128.366L263.534 125.258L210.6 113.239L151.085 188.384Z" fill="#455A64"/>
<path d="M210.6 113.239L126.13 67.074L67.032 141.211L151.085 188.384L210.6 113.239Z" fill="#263238"/>
<path d="M210.6 113.239L263.534 125.258L178.884 79.093L126.13 67.074L210.6 113.239Z" fill="#37474F"/>
<path d="M89.3304 217.637L86.328 219.331C87.2309 216.269 87.4615 213.056 87.0048 209.902C86.804 208.787 86.3888 207.718 85.7808 206.752C85.5504 206.276 83.736 203.322 85.3344 201.964C86.9328 200.606 90.6624 203.308 90.4968 210.595C90.4154 212.981 90.0235 215.347 89.3304 217.637Z" fill="#FFC100"/>
<path opacity="0.5" d="M89.3304 217.637L86.328 219.331C87.2309 216.269 87.4615 213.056 87.0048 209.902C86.804 208.787 86.3888 207.718 85.7808 206.752C85.5504 206.276 83.736 203.322 85.3344 201.964C86.9328 200.606 90.6624 203.308 90.4968 210.595C90.4154 212.981 90.0235 215.347 89.3304 217.637Z" fill="black"/>
<path d="M87.9408 218.568H87.8832C87.8472 218.553 87.8185 218.525 87.8025 218.49C87.7866 218.455 87.7845 218.415 87.7968 218.379C88.5985 215.818 88.9586 213.145 88.8624 210.469C88.8048 205.639 86.2128 203.077 86.1912 203.056C86.1639 203.027 86.1487 202.99 86.1487 202.951C86.1487 202.912 86.1639 202.875 86.1912 202.846C86.2193 202.82 86.2567 202.805 86.2956 202.805C86.3345 202.805 86.3719 202.82 86.4 202.846C86.4 202.846 89.1072 205.513 89.1648 210.462C89.2558 213.176 88.8885 215.886 88.0776 218.484C88.0653 218.509 88.046 218.53 88.0217 218.545C87.9975 218.56 87.9695 218.568 87.9408 218.568Z" fill="white"/>
<path d="M87.0048 218.96L82.08 221.802C82.08 221.802 79.8048 221.473 79.9776 219.394C80.1504 217.315 81.072 216.825 79.9272 215.894C78.7824 214.963 78.4872 214.914 78.5376 214.025C78.632 213.377 78.9771 212.789 79.5024 212.38C79.8239 212.124 80.05 211.772 80.1463 211.379C80.2425 210.986 80.2035 210.573 80.0352 210.203C79.4592 209.125 78.6888 208.103 79.8336 207.585C80.5536 207.291 81.6768 207.662 82.44 208.446C83.003 209.142 83.7495 209.677 84.6 209.993C85.32 210.175 86.8392 210.189 86.76 211.393C86.6808 212.597 86.3856 213.031 86.688 213.57C87.2136 214.613 89.6544 215.159 87.0048 218.96Z" fill="#FFC100"/>
<path opacity="0.2" d="M87.0048 218.96L82.08 221.802C82.08 221.802 79.8048 221.473 79.9776 219.394C80.1504 217.315 81.072 216.825 79.9272 215.894C78.7824 214.963 78.4872 214.914 78.5376 214.025C78.632 213.377 78.9771 212.789 79.5024 212.38C79.8239 212.124 80.05 211.772 80.1463 211.379C80.2425 210.986 80.2035 210.573 80.0352 210.203C79.4592 209.125 78.6888 208.103 79.8336 207.585C80.5536 207.291 81.6768 207.662 82.44 208.446C83.003 209.142 83.7495 209.677 84.6 209.993C85.32 210.175 86.8392 210.189 86.76 211.393C86.6808 212.597 86.3856 213.031 86.688 213.57C87.2136 214.613 89.6544 215.159 87.0048 218.96Z" fill="black"/>
<path d="M84.96 220.262C84.9404 220.261 84.9212 220.256 84.9036 220.248C84.886 220.24 84.8703 220.228 84.8575 220.214C84.8447 220.199 84.835 220.182 84.8291 220.164C84.8232 220.146 84.8212 220.127 84.8232 220.108C84.8232 220.038 85.356 212.975 80.316 208.341C80.2892 208.314 80.2742 208.277 80.2742 208.239C80.2742 208.202 80.2892 208.165 80.316 208.138C80.3453 208.111 80.3839 208.097 80.424 208.097C80.4641 208.097 80.5027 208.111 80.532 208.138C85.6728 212.863 85.1328 220.038 85.1256 220.136C85.1202 220.174 85.0999 220.208 85.069 220.232C85.0381 220.255 84.999 220.266 84.96 220.262Z" fill="white"/>
<path d="M84.096 214.102C84.0762 214.1 84.0568 214.095 84.0392 214.086C84.0215 214.077 84.0058 214.064 83.9931 214.049C83.9804 214.034 83.9709 214.017 83.965 213.998C83.9592 213.98 83.9573 213.96 83.9592 213.941C83.9961 213.347 84.1598 212.767 84.4399 212.238C84.7201 211.709 85.1106 211.242 85.5864 210.868C85.6196 210.848 85.6592 210.84 85.6977 210.847C85.7363 210.853 85.771 210.873 85.7952 210.903C85.8221 210.93 85.8371 210.967 85.8371 211.005C85.8371 211.042 85.8221 211.079 85.7952 211.106C85.3615 211.46 85.0054 211.896 84.7481 212.386C84.4909 212.877 84.3377 213.413 84.2976 213.962C84.2964 213.985 84.2898 214.008 84.2784 214.028C84.2669 214.048 84.2509 214.066 84.2315 214.079C84.2122 214.093 84.1899 214.102 84.1665 214.106C84.143 214.11 84.1189 214.108 84.096 214.102Z" fill="white"/>
<path d="M84.4632 215.327C84.4414 215.328 84.4198 215.324 84.3998 215.315C84.3799 215.307 84.3622 215.294 84.348 215.278C84.348 215.278 83.0952 213.969 80.2656 214.347C80.2265 214.353 80.1865 214.344 80.1542 214.322C80.1219 214.3 80.0998 214.266 80.0928 214.228C80.0898 214.209 80.0907 214.189 80.0956 214.17C80.1005 214.151 80.1092 214.133 80.1213 214.118C80.1334 214.102 80.1485 214.089 80.1659 214.079C80.1833 214.069 80.2025 214.063 80.2224 214.06C83.2176 213.661 84.5424 215.026 84.5424 215.082C84.5697 215.111 84.5849 215.148 84.5849 215.187C84.5849 215.226 84.5697 215.263 84.5424 215.292C84.5195 215.31 84.4922 215.322 84.4632 215.327Z" fill="white"/>
<path d="M128.088 239.33L125.086 241.031C125.989 237.967 126.219 234.752 125.762 231.595C125.562 230.48 125.146 229.411 124.538 228.445C124.308 227.969 122.494 225.022 124.085 223.657C125.676 222.292 129.42 225.001 129.254 232.288C129.174 234.674 128.782 237.04 128.088 239.33Z" fill="#FFC100"/>
<path opacity="0.5" d="M128.088 239.33L125.086 241.031C125.989 237.967 126.219 234.752 125.762 231.595C125.562 230.48 125.146 229.411 124.538 228.445C124.308 227.969 122.494 225.022 124.085 223.657C125.676 222.292 129.42 225.001 129.254 232.288C129.174 234.674 128.782 237.04 128.088 239.33Z" fill="black"/>
<path d="M126.72 240.268H126.662C126.626 240.253 126.598 240.225 126.582 240.19C126.566 240.155 126.564 240.115 126.576 240.079C127.378 237.515 127.738 234.84 127.642 232.162C127.584 227.339 124.992 224.777 124.97 224.749C124.943 224.721 124.928 224.683 124.928 224.644C124.928 224.605 124.943 224.568 124.97 224.539C124.999 224.513 125.036 224.498 125.075 224.498C125.114 224.498 125.151 224.513 125.179 224.539C125.179 224.539 127.886 227.206 127.944 232.162C128.036 234.874 127.669 237.581 126.857 240.177C126.846 240.204 126.828 240.227 126.803 240.244C126.779 240.26 126.75 240.268 126.72 240.268Z" fill="white"/>
<path d="M125.762 240.66L120.802 243.495C120.802 243.495 118.526 243.166 118.699 241.094C118.872 239.022 119.794 238.525 118.649 237.594C117.504 236.663 117.209 236.621 117.259 235.725C117.351 235.078 117.697 234.491 118.224 234.087C118.545 233.829 118.771 233.476 118.867 233.082C118.963 232.688 118.924 232.274 118.757 231.903C118.181 230.825 117.41 229.803 118.555 229.285C119.275 228.991 120.398 229.362 121.162 230.153C121.712 230.845 122.447 231.377 123.286 231.693C124.006 231.875 125.525 231.889 125.446 233.093C125.366 234.297 125.071 234.724 125.374 235.263C126 236.313 128.412 236.859 125.762 240.66Z" fill="#FFC100"/>
<path opacity="0.2" d="M125.762 240.66L120.802 243.495C120.802 243.495 118.526 243.166 118.699 241.094C118.872 239.022 119.794 238.525 118.649 237.594C117.504 236.663 117.209 236.621 117.259 235.725C117.351 235.078 117.697 234.491 118.224 234.087C118.545 233.829 118.771 233.476 118.867 233.082C118.963 232.688 118.924 232.274 118.757 231.903C118.181 230.825 117.41 229.803 118.555 229.285C119.275 228.991 120.398 229.362 121.162 230.153C121.712 230.845 122.447 231.377 123.286 231.693C124.006 231.875 125.525 231.889 125.446 233.093C125.366 234.297 125.071 234.724 125.374 235.263C126 236.313 128.412 236.859 125.762 240.66Z" fill="black"/>
<path d="M123.739 241.962C123.719 241.96 123.7 241.955 123.682 241.946C123.665 241.937 123.649 241.924 123.636 241.909C123.624 241.894 123.614 241.877 123.608 241.858C123.602 241.84 123.6 241.82 123.602 241.801C123.602 241.731 124.135 234.668 119.095 230.041C119.081 230.027 119.069 230.011 119.062 229.993C119.054 229.975 119.05 229.956 119.05 229.936C119.05 229.916 119.054 229.897 119.062 229.879C119.069 229.861 119.081 229.845 119.095 229.831C119.123 229.805 119.161 229.79 119.2 229.79C119.238 229.79 119.276 229.805 119.304 229.831C124.452 234.556 123.912 241.731 123.905 241.822C123.901 241.862 123.882 241.898 123.851 241.924C123.82 241.951 123.78 241.964 123.739 241.962Z" fill="white"/>
<path d="M122.854 235.795C122.815 235.791 122.779 235.773 122.753 235.745C122.728 235.716 122.715 235.679 122.717 235.641C122.752 235.047 122.915 234.466 123.196 233.937C123.476 233.408 123.867 232.941 124.344 232.568C124.36 232.556 124.378 232.548 124.397 232.543C124.417 232.538 124.437 232.538 124.456 232.541C124.476 232.544 124.495 232.551 124.511 232.562C124.528 232.573 124.542 232.587 124.553 232.603C124.575 232.635 124.584 232.674 124.578 232.712C124.571 232.75 124.549 232.783 124.517 232.806C124.081 233.159 123.724 233.594 123.466 234.084C123.209 234.575 123.057 235.112 123.019 235.662C123.017 235.681 123.012 235.7 123.002 235.717C122.993 235.734 122.98 235.75 122.965 235.762C122.95 235.774 122.932 235.784 122.913 235.789C122.894 235.795 122.873 235.797 122.854 235.795Z" fill="white"/>
<path d="M123.221 237.02C123.178 237.021 123.137 237.006 123.106 236.978C123.106 236.978 121.853 235.669 119.023 236.047C119.003 236.05 118.983 236.049 118.964 236.044C118.944 236.04 118.926 236.031 118.91 236.019C118.893 236.008 118.88 235.993 118.87 235.976C118.86 235.959 118.853 235.94 118.85 235.921C118.847 235.902 118.848 235.883 118.853 235.864C118.858 235.846 118.867 235.828 118.879 235.813C118.891 235.798 118.907 235.786 118.924 235.776C118.941 235.767 118.96 235.762 118.98 235.76C121.975 235.361 123.3 236.719 123.3 236.782C123.327 236.809 123.342 236.846 123.342 236.884C123.342 236.921 123.327 236.958 123.3 236.985C123.278 237.005 123.25 237.017 123.221 237.02Z" fill="white"/>
<path d="M264.737 216.3L261.734 217.994C262.638 214.93 262.868 211.715 262.411 208.558C262.208 207.443 261.793 206.375 261.187 205.408C260.95 204.932 259.142 201.985 260.734 200.627C262.325 199.269 266.069 201.971 265.903 209.258C265.822 211.644 265.43 214.01 264.737 216.3Z" fill="#FFC100"/>
<path opacity="0.5" d="M264.737 216.3L261.734 217.994C262.638 214.93 262.868 211.715 262.411 208.558C262.208 207.443 261.793 206.375 261.187 205.408C260.95 204.932 259.142 201.985 260.734 200.627C262.325 199.269 266.069 201.971 265.903 209.258C265.822 211.644 265.43 214.01 264.737 216.3Z" fill="black"/>
<path d="M263.34 217.203H263.29C263.252 217.189 263.223 217.161 263.206 217.126C263.19 217.09 263.189 217.05 263.203 217.014C264.001 214.452 264.36 211.78 264.269 209.104C264.211 204.267 261.619 201.712 261.598 201.684C261.583 201.671 261.572 201.655 261.564 201.638C261.557 201.62 261.553 201.602 261.553 201.583C261.553 201.564 261.557 201.545 261.564 201.527C261.572 201.51 261.583 201.494 261.598 201.481C261.627 201.454 261.666 201.44 261.706 201.44C261.746 201.44 261.784 201.454 261.814 201.481C261.814 201.481 264.521 204.148 264.578 209.097C264.674 211.807 264.316 214.514 263.52 217.112C263.507 217.146 263.481 217.174 263.448 217.191C263.415 217.208 263.376 217.212 263.34 217.203Z" fill="white"/>
<path d="M262.411 217.595L257.45 220.395C257.45 220.395 255.175 220.073 255.348 217.994C255.521 215.915 256.442 215.425 255.29 214.494C254.138 213.563 253.85 213.521 253.901 212.625C254.001 211.981 254.345 211.397 254.866 210.987C255.189 210.732 255.417 210.38 255.513 209.987C255.609 209.593 255.569 209.179 255.398 208.81C254.83 207.725 254.052 206.71 255.204 206.192C255.924 205.898 257.047 206.262 257.81 207.053C258.361 207.745 259.095 208.277 259.934 208.593C260.654 208.782 262.174 208.796 262.094 209.993C262.015 211.19 261.713 211.631 262.022 212.17C262.62 213.248 265.061 213.794 262.411 217.595Z" fill="#FFC100"/>
<path opacity="0.2" d="M262.411 217.595L257.45 220.395C257.45 220.395 255.175 220.073 255.348 217.994C255.521 215.915 256.442 215.425 255.29 214.494C254.138 213.563 253.85 213.521 253.901 212.625C254.001 211.981 254.345 211.397 254.866 210.987C255.189 210.732 255.417 210.38 255.513 209.987C255.609 209.593 255.569 209.179 255.398 208.81C254.83 207.725 254.052 206.71 255.204 206.192C255.924 205.898 257.047 206.262 257.81 207.053C258.361 207.745 259.095 208.277 259.934 208.593C260.654 208.782 262.174 208.796 262.094 209.993C262.015 211.19 261.713 211.631 262.022 212.17C262.62 213.248 265.061 213.794 262.411 217.595Z" fill="black"/>
<path d="M260.388 218.897C260.368 218.895 260.349 218.89 260.331 218.881C260.313 218.872 260.298 218.859 260.285 218.844C260.272 218.829 260.263 218.812 260.257 218.793C260.251 218.775 260.249 218.755 260.251 218.736C260.251 218.666 260.784 211.603 255.751 206.976C255.732 206.965 255.715 206.949 255.703 206.931C255.69 206.913 255.682 206.892 255.679 206.87C255.676 206.849 255.677 206.827 255.684 206.806C255.691 206.785 255.703 206.765 255.718 206.749C255.733 206.733 255.752 206.721 255.773 206.713C255.794 206.705 255.817 206.701 255.839 206.703C255.862 206.705 255.884 206.711 255.903 206.722C255.923 206.733 255.94 206.748 255.953 206.766C261.101 211.491 260.561 218.666 260.554 218.764C260.552 218.783 260.546 218.802 260.537 218.819C260.527 218.836 260.515 218.852 260.499 218.864C260.484 218.876 260.466 218.886 260.447 218.891C260.428 218.897 260.408 218.899 260.388 218.897Z" fill="white"/>
<path d="M259.502 212.73C259.483 212.729 259.464 212.724 259.446 212.716C259.428 212.708 259.413 212.696 259.4 212.682C259.387 212.667 259.377 212.65 259.372 212.632C259.366 212.614 259.364 212.595 259.366 212.576C259.401 211.982 259.564 211.401 259.844 210.872C260.125 210.343 260.516 209.876 260.993 209.503C261.022 209.478 261.059 209.465 261.097 209.465C261.136 209.465 261.173 209.478 261.202 209.503C261.224 209.535 261.233 209.574 261.226 209.612C261.22 209.65 261.198 209.683 261.166 209.706C260.729 210.058 260.371 210.493 260.112 210.984C259.854 211.475 259.7 212.012 259.661 212.562C259.666 212.584 259.665 212.606 259.659 212.628C259.653 212.649 259.642 212.669 259.626 212.686C259.611 212.702 259.591 212.715 259.57 212.722C259.548 212.73 259.525 212.733 259.502 212.73Z" fill="white"/>
<path d="M259.862 213.962C259.821 213.959 259.783 213.942 259.754 213.913C259.754 213.913 258.502 212.604 255.665 212.982C255.631 212.975 255.601 212.957 255.58 212.93C255.558 212.904 255.546 212.872 255.546 212.838C255.546 212.805 255.558 212.773 255.58 212.747C255.601 212.72 255.631 212.702 255.665 212.695C258.66 212.296 259.985 213.661 259.985 213.717C260.002 213.739 260.012 213.765 260.015 213.793C260.018 213.82 260.013 213.847 260.001 213.872C259.99 213.897 259.971 213.919 259.948 213.935C259.925 213.95 259.898 213.96 259.87 213.962H259.862Z" fill="white"/>
<path d="M189.533 257.803L186.53 259.497C187.429 256.432 187.658 253.217 187.2 250.061C187.001 248.946 186.588 247.878 185.983 246.911C185.746 246.435 183.938 243.488 185.53 242.123C187.121 240.758 190.865 243.474 190.692 250.754C190.616 253.142 190.226 255.511 189.533 257.803Z" fill="#FFC100"/>
<path opacity="0.5" d="M189.533 257.803L186.53 259.497C187.429 256.432 187.658 253.217 187.2 250.061C187.001 248.946 186.588 247.878 185.983 246.911C185.746 246.435 183.938 243.488 185.53 242.123C187.121 240.758 190.865 243.474 190.692 250.754C190.616 253.142 190.226 255.511 189.533 257.803Z" fill="black"/>
<path d="M188.136 258.734H188.086C188.067 258.728 188.049 258.718 188.034 258.705C188.019 258.692 188.007 258.676 187.998 258.659C187.989 258.641 187.984 258.622 187.983 258.602C187.982 258.583 187.985 258.563 187.992 258.545C188.794 255.984 189.157 253.311 189.065 250.635C189.007 245.805 186.415 243.243 186.386 243.215C186.36 243.188 186.345 243.151 186.345 243.113C186.345 243.076 186.36 243.039 186.386 243.012C186.4 242.997 186.417 242.985 186.435 242.977C186.454 242.969 186.474 242.965 186.494 242.965C186.515 242.965 186.535 242.969 186.554 242.977C186.572 242.985 186.589 242.997 186.602 243.012C186.602 243.012 189.302 245.7 189.36 250.6C189.448 253.311 189.081 256.019 188.273 258.615C188.267 258.647 188.25 258.675 188.225 258.697C188.2 258.719 188.169 258.731 188.136 258.734Z" fill="white"/>
<path d="M187.2 259.126L182.239 261.961C182.239 261.961 179.971 261.639 180.144 259.56C180.317 257.481 181.238 256.991 180.086 256.06C178.934 255.129 178.646 255.087 178.697 254.191C178.795 253.546 179.14 252.962 179.662 252.553C179.985 252.298 180.213 251.946 180.309 251.553C180.405 251.159 180.365 250.745 180.194 250.376C179.626 249.291 178.848 248.276 180 247.758C180.684 247.457 181.843 247.828 182.606 248.619C183.155 249.312 183.89 249.845 184.73 250.159C185.45 250.341 186.962 250.362 186.89 251.559C186.818 252.756 186.516 253.197 186.818 253.736C187.416 254.8 189.85 255.325 187.2 259.126Z" fill="#FFC100"/>
<path opacity="0.2" d="M187.2 259.126L182.239 261.961C182.239 261.961 179.971 261.639 180.144 259.56C180.317 257.481 181.238 256.991 180.086 256.06C178.934 255.129 178.646 255.087 178.697 254.191C178.795 253.546 179.14 252.962 179.662 252.553C179.985 252.298 180.213 251.946 180.309 251.553C180.405 251.159 180.365 250.745 180.194 250.376C179.626 249.291 178.848 248.276 180 247.758C180.684 247.457 181.843 247.828 182.606 248.619C183.155 249.312 183.89 249.845 184.73 250.159C185.45 250.341 186.962 250.362 186.89 251.559C186.818 252.756 186.516 253.197 186.818 253.736C187.416 254.8 189.85 255.325 187.2 259.126Z" fill="black"/>
<path d="M185.184 260.4C185.164 260.398 185.145 260.393 185.127 260.384C185.109 260.375 185.094 260.362 185.081 260.347C185.068 260.332 185.059 260.315 185.053 260.296C185.047 260.278 185.045 260.258 185.047 260.239C185.047 260.169 185.58 253.106 180.54 248.479C180.513 248.45 180.497 248.413 180.497 248.374C180.497 248.335 180.513 248.298 180.54 248.269C180.568 248.243 180.606 248.228 180.644 248.228C180.683 248.228 180.721 248.243 180.749 248.269C185.897 252.994 185.35 260.169 185.35 260.267C185.348 260.286 185.342 260.305 185.333 260.322C185.323 260.339 185.311 260.355 185.295 260.367C185.28 260.379 185.262 260.389 185.243 260.394C185.224 260.4 185.204 260.402 185.184 260.4Z" fill="white"/>
<path d="M184.32 254.261C184.3 254.26 184.281 254.255 184.264 254.247C184.246 254.239 184.23 254.227 184.218 254.213C184.205 254.198 184.195 254.181 184.189 254.163C184.183 254.145 184.181 254.126 184.183 254.107C184.22 253.514 184.383 252.934 184.662 252.405C184.941 251.876 185.329 251.409 185.803 251.034C185.819 251.022 185.837 251.014 185.856 251.009C185.876 251.004 185.896 251.004 185.916 251.007C185.935 251.01 185.954 251.017 185.97 251.028C185.987 251.039 186.001 251.053 186.012 251.069C186.039 251.096 186.054 251.133 186.054 251.171C186.054 251.208 186.039 251.245 186.012 251.272C185.575 251.624 185.216 252.058 184.957 252.549C184.698 253.04 184.545 253.578 184.507 254.128C184.506 254.149 184.5 254.17 184.489 254.189C184.478 254.208 184.463 254.224 184.446 254.237C184.428 254.25 184.407 254.258 184.386 254.263C184.364 254.267 184.341 254.266 184.32 254.261Z" fill="white"/>
<path d="M184.658 255.5C184.638 255.499 184.618 255.495 184.599 255.486C184.581 255.478 184.564 255.466 184.55 255.451C184.55 255.451 183.298 254.142 180.461 254.52C180.441 254.524 180.421 254.524 180.401 254.52C180.382 254.515 180.363 254.507 180.348 254.495C180.332 254.483 180.319 254.467 180.31 254.45C180.301 254.433 180.296 254.414 180.295 254.394C180.292 254.376 180.293 254.357 180.297 254.339C180.302 254.321 180.31 254.303 180.322 254.288C180.333 254.273 180.347 254.261 180.364 254.251C180.38 254.242 180.399 254.236 180.418 254.233C183.42 253.834 184.738 255.199 184.738 255.255C184.764 255.282 184.779 255.319 184.779 255.357C184.779 255.394 184.764 255.431 184.738 255.458C184.717 255.48 184.689 255.495 184.658 255.5Z" fill="white"/>
<path d="M291.672 205.219C291.366 205.219 291.073 205.101 290.857 204.891C290.641 204.681 290.52 204.396 290.52 204.099V158.039C290.52 157.742 290.641 157.457 290.857 157.247C291.073 157.037 291.366 156.919 291.672 156.919C291.978 156.919 292.271 157.037 292.487 157.247C292.703 157.457 292.824 157.742 292.824 158.039V204.099C292.824 204.396 292.703 204.681 292.487 204.891C292.271 205.101 291.978 205.219 291.672 205.219Z" fill="#37474F"/>
<path d="M291.672 174.909C291.536 174.909 291.402 174.874 291.285 174.808C291.167 174.741 291.07 174.646 291.002 174.531L284.443 163.331C284.344 163.158 284.318 162.954 284.372 162.763C284.426 162.572 284.555 162.409 284.731 162.309C284.819 162.26 284.915 162.229 285.015 162.217C285.115 162.205 285.216 162.212 285.313 162.238C285.41 162.264 285.501 162.308 285.58 162.369C285.66 162.429 285.726 162.504 285.775 162.589L292.334 173.789C292.385 173.874 292.419 173.969 292.432 174.066C292.445 174.164 292.438 174.264 292.411 174.359C292.384 174.454 292.338 174.543 292.276 174.621C292.213 174.698 292.135 174.763 292.046 174.811C291.933 174.876 291.804 174.91 291.672 174.909Z" fill="#37474F"/>
<path d="M291.542 177.94C291.411 177.941 291.281 177.907 291.168 177.842C291.08 177.794 291.003 177.73 290.941 177.652C290.879 177.575 290.833 177.487 290.807 177.393C290.78 177.298 290.773 177.2 290.785 177.103C290.798 177.006 290.83 176.912 290.88 176.827L299.642 161.875C299.744 161.702 299.911 161.576 300.108 161.523C300.305 161.471 300.516 161.497 300.694 161.595C300.871 161.693 301.001 161.856 301.055 162.048C301.109 162.24 301.083 162.444 300.982 162.617L292.212 177.562C292.149 177.68 292.053 177.779 291.934 177.846C291.815 177.913 291.679 177.946 291.542 177.94Z" fill="#37474F"/>
<path d="M311.337 163.975C319.956 160.504 324.048 150.898 320.478 142.518C316.908 134.139 307.028 130.16 298.409 133.631C289.79 137.102 285.697 146.708 289.267 155.087C292.837 163.467 302.718 167.446 311.337 163.975Z" fill="#FFC100"/>
<path opacity="0.3" d="M311.337 163.975C319.956 160.504 324.048 150.898 320.478 142.518C316.908 134.139 307.028 130.16 298.409 133.631C289.79 137.102 285.697 146.708 289.267 155.087C292.837 163.467 302.718 167.446 311.337 163.975Z" fill="black"/>
<path d="M301.219 144.158C301.213 141.977 301.656 139.816 302.522 137.804C303.387 135.792 304.658 133.968 306.259 132.44C305.798 132.44 305.33 132.384 304.855 132.384C302.083 132.383 299.354 133.046 296.908 134.313C294.461 135.58 292.373 137.413 290.828 139.651C289.283 141.888 288.327 144.46 288.046 147.141C287.765 149.822 288.167 152.529 289.217 155.023C290.266 157.518 291.931 159.723 294.064 161.443C296.197 163.164 298.733 164.349 301.448 164.891C304.163 165.434 306.974 165.319 309.632 164.556C312.291 163.793 314.715 162.406 316.692 160.517C312.474 160.171 308.542 158.298 305.677 155.269C302.811 152.239 301.22 148.274 301.219 144.158Z" fill="#FFC100"/>
<path opacity="0.4" d="M301.219 144.158C301.213 141.977 301.656 139.816 302.522 137.804C303.387 135.792 304.658 133.968 306.259 132.44C305.798 132.44 305.33 132.384 304.855 132.384C302.083 132.383 299.354 133.046 296.908 134.313C294.461 135.58 292.373 137.413 290.828 139.651C289.283 141.888 288.327 144.46 288.046 147.141C287.765 149.822 288.167 152.529 289.217 155.023C290.266 157.518 291.931 159.723 294.064 161.443C296.197 163.164 298.733 164.349 301.448 164.891C304.163 165.434 306.974 165.319 309.632 164.556C312.291 163.793 314.715 162.406 316.692 160.517C312.474 160.171 308.542 158.298 305.677 155.269C302.811 152.239 301.22 148.274 301.219 144.158Z" fill="black"/>
<path d="M277.286 165.228C283.971 165.228 289.39 159.96 289.39 153.461C289.39 146.962 283.971 141.694 277.286 141.694C270.602 141.694 265.183 146.962 265.183 153.461C265.183 159.96 270.602 165.228 277.286 165.228Z" fill="#FFC100"/>
<path opacity="0.3" d="M277.286 165.228C283.971 165.228 289.39 159.96 289.39 153.461C289.39 146.962 283.971 141.694 277.286 141.694C270.602 141.694 265.183 146.962 265.183 153.461C265.183 159.96 270.602 165.228 277.286 165.228Z" fill="black"/>
<path d="M278.597 141.757C276.986 141.585 275.357 141.731 273.805 142.186C272.254 142.641 270.813 143.395 269.568 144.403C269.525 144.907 269.503 145.411 269.503 145.929C269.499 151.028 271.403 155.955 274.86 159.789C275.098 160.053 275.254 160.377 275.309 160.723C275.365 161.07 275.318 161.425 275.173 161.746C275.029 162.068 274.794 162.343 274.495 162.539C274.196 162.736 273.845 162.845 273.485 162.855H273.442C271.928 162.852 270.429 162.574 269.021 162.036C270.422 163.307 272.114 164.237 273.958 164.748C275.801 165.26 277.743 165.338 279.623 164.977C281.504 164.616 283.269 163.826 284.774 162.672C286.279 161.517 287.481 160.032 288.28 158.338C289.079 156.644 289.453 154.79 289.37 152.928C289.288 151.066 288.752 149.25 287.807 147.629C286.861 146.008 285.533 144.628 283.932 143.604C282.331 142.579 280.502 141.939 278.597 141.736V141.757Z" fill="#FFC100"/>
<path opacity="0.4" d="M278.597 141.757C276.986 141.585 275.357 141.731 273.805 142.186C272.254 142.641 270.813 143.395 269.568 144.403C269.525 144.907 269.503 145.411 269.503 145.929C269.499 151.028 271.403 155.955 274.86 159.789C275.098 160.053 275.254 160.377 275.309 160.723C275.365 161.07 275.318 161.425 275.173 161.746C275.029 162.068 274.794 162.343 274.495 162.539C274.196 162.736 273.845 162.845 273.485 162.855H273.442C271.928 162.852 270.429 162.574 269.021 162.036C270.422 163.307 272.114 164.237 273.958 164.748C275.801 165.26 277.743 165.338 279.623 164.977C281.504 164.616 283.269 163.826 284.774 162.672C286.279 161.517 287.481 160.032 288.28 158.338C289.079 156.644 289.453 154.79 289.37 152.928C289.288 151.066 288.752 149.25 287.807 147.629C286.861 146.008 285.533 144.628 283.932 143.604C282.331 142.579 280.502 141.939 278.597 141.736V141.757Z" fill="black"/>
<path d="M312.751 146.821C315.5 135.495 308.286 124.147 296.637 121.474C284.988 118.801 273.315 125.815 270.566 137.141C267.816 148.466 275.031 159.814 286.68 162.487C298.329 165.16 310.001 158.146 312.751 146.821Z" fill="#FFC100"/>
<path opacity="0.2" d="M297.85 155.834C294.147 155.833 290.507 154.91 287.275 153.153C284.044 151.396 281.33 148.863 279.391 145.796C277.452 142.729 276.354 139.231 276.201 135.634C276.049 132.038 276.846 128.463 278.518 125.251C275.943 127.179 273.847 129.645 272.386 132.467C270.924 135.289 270.135 138.394 270.075 141.553C270.016 144.712 270.688 147.843 272.042 150.716C273.396 153.588 275.397 156.127 277.898 158.145C280.398 160.163 283.333 161.608 286.486 162.374C289.639 163.14 292.929 163.206 296.111 162.568C299.294 161.93 302.289 160.604 304.873 158.688C307.457 156.772 309.565 154.316 311.04 151.501C307.256 154.321 302.618 155.845 297.85 155.834Z" fill="black"/>
<path d="M69.768 213.661C69.4624 213.661 69.1694 213.543 68.9534 213.333C68.7373 213.123 68.616 212.838 68.616 212.541V166.481C68.616 166.184 68.7373 165.899 68.9534 165.689C69.1694 165.479 69.4624 165.361 69.768 165.361C70.0735 165.361 70.3665 165.479 70.5826 165.689C70.7986 165.899 70.92 166.184 70.92 166.481V212.541C70.92 212.838 70.7986 213.123 70.5826 213.333C70.3665 213.543 70.0735 213.661 69.768 213.661Z" fill="#37474F"/>
<path d="M69.768 183.351C69.6321 183.355 69.4978 183.322 69.3806 183.255C69.2634 183.188 69.168 183.09 69.1056 182.973L62.5392 171.773C62.4379 171.6 62.4114 171.396 62.4654 171.204C62.5195 171.012 62.6496 170.849 62.8272 170.751C63.0047 170.653 63.2153 170.627 63.4124 170.679C63.6095 170.732 63.7771 170.858 63.8784 171.031L70.4376 182.231C70.4875 182.316 70.5197 182.41 70.5323 182.507C70.5449 182.604 70.5376 182.702 70.5108 182.797C70.484 182.891 70.4383 182.979 70.3763 183.056C70.3143 183.134 70.2373 183.198 70.1496 183.246C70.035 183.315 69.9028 183.351 69.768 183.351Z" fill="#37474F"/>
<path d="M69.6456 186.389C69.5113 186.388 69.3796 186.353 69.2637 186.287C69.1477 186.221 69.0515 186.127 68.9846 186.013C68.9176 185.9 68.8823 185.772 68.882 185.641C68.8818 185.511 68.9167 185.382 68.9832 185.269L77.76 170.317C77.8612 170.144 78.0288 170.018 78.2259 169.965C78.4231 169.913 78.6336 169.939 78.8112 170.037C78.9888 170.135 79.1189 170.298 79.1729 170.49C79.2269 170.682 79.2004 170.886 79.0992 171.059L70.3152 186.011C70.2467 186.125 70.149 186.22 70.0317 186.286C69.9143 186.352 69.7813 186.388 69.6456 186.389Z" fill="#37474F"/>
<path d="M89.4462 172.417C98.0648 168.946 102.158 159.34 98.5876 150.961C95.0177 142.582 85.1369 138.602 76.5182 142.073C67.8996 145.544 63.8068 155.15 67.3768 163.53C70.9467 171.909 80.8275 175.888 89.4462 172.417Z" fill="#FFC100"/>
<path opacity="0.3" d="M89.4462 172.417C98.0648 168.946 102.158 159.34 98.5876 150.961C95.0177 142.582 85.1369 138.602 76.5182 142.073C67.8996 145.544 63.8068 155.15 67.3768 163.53C70.9467 171.909 80.8275 175.888 89.4462 172.417Z" fill="black"/>
<path d="M79.3224 152.6C79.3173 150.419 79.7605 148.259 80.626 146.246C81.4915 144.234 82.7618 142.41 84.3624 140.882C83.8944 140.882 83.4336 140.826 82.9224 140.826C80.1502 140.824 77.4202 141.486 74.9732 142.752C72.5262 144.019 70.4374 145.851 68.8911 148.088C67.3449 150.325 66.3887 152.898 66.1069 155.579C65.8252 158.26 66.2265 160.967 67.2755 163.462C68.3245 165.957 69.989 168.162 72.122 169.884C74.255 171.605 76.791 172.79 79.5063 173.333C82.2216 173.876 85.0326 173.761 87.6914 172.999C90.3502 172.236 92.7751 170.848 94.752 168.959C90.5413 168.603 86.6207 166.726 83.7641 163.697C80.9076 160.669 79.3227 156.709 79.3224 152.6Z" fill="#FFC100"/>
<path opacity="0.4" d="M79.3224 152.6C79.3173 150.419 79.7605 148.259 80.626 146.246C81.4915 144.234 82.7618 142.41 84.3624 140.882C83.8944 140.882 83.4336 140.826 82.9224 140.826C80.1502 140.824 77.4202 141.486 74.9732 142.752C72.5262 144.019 70.4374 145.851 68.8911 148.088C67.3449 150.325 66.3887 152.898 66.1069 155.579C65.8252 158.26 66.2265 160.967 67.2755 163.462C68.3245 165.957 69.989 168.162 72.122 169.884C74.255 171.605 76.791 172.79 79.5063 173.333C82.2216 173.876 85.0326 173.761 87.6914 172.999C90.3502 172.236 92.7751 170.848 94.752 168.959C90.5413 168.603 86.6207 166.726 83.7641 163.697C80.9076 160.669 79.3227 156.709 79.3224 152.6Z" fill="black"/>
<path d="M55.3896 173.67C62.074 173.67 67.4928 168.402 67.4928 161.903C67.4928 155.404 62.074 150.136 55.3896 150.136C48.7052 150.136 43.2864 155.404 43.2864 161.903C43.2864 168.402 48.7052 173.67 55.3896 173.67Z" fill="#FFC100"/>
<path opacity="0.3" d="M55.3896 173.67C62.074 173.67 67.4928 168.402 67.4928 161.903C67.4928 155.404 62.074 150.136 55.3896 150.136C48.7052 150.136 43.2864 155.404 43.2864 161.903C43.2864 168.402 48.7052 173.67 55.3896 173.67Z" fill="black"/>
<path d="M56.7 150.199C55.0883 150.029 53.4579 150.175 51.9056 150.63C50.3533 151.084 48.9109 151.838 47.664 152.845C47.664 153.349 47.6064 153.853 47.6064 154.371C47.6002 159.472 49.5044 164.402 52.9632 168.238C53.2023 168.501 53.3589 168.826 53.4146 169.173C53.4702 169.52 53.4226 169.875 53.2772 170.197C53.1319 170.518 52.8949 170.793 52.5943 170.988C52.2937 171.183 51.942 171.29 51.5808 171.297C50.0673 171.297 48.5674 171.019 47.16 170.478C48.5616 171.745 50.2524 172.671 52.0935 173.179C53.9347 173.687 55.8735 173.763 57.7508 173.401C59.6281 173.039 61.3902 172.249 62.8923 171.096C64.3944 169.943 65.5936 168.459 66.3915 166.768C67.1893 165.077 67.563 163.226 67.4817 161.366C67.4005 159.507 66.8667 157.694 65.9241 156.074C64.9816 154.455 63.6573 153.076 62.06 152.051C60.4627 151.026 58.6381 150.384 56.736 150.178L56.7 150.199Z" fill="#FFC100"/>
<path opacity="0.4" d="M56.7 150.199C55.0883 150.029 53.4579 150.175 51.9056 150.63C50.3533 151.084 48.9109 151.838 47.664 152.845C47.664 153.349 47.6064 153.853 47.6064 154.371C47.6002 159.472 49.5044 164.402 52.9632 168.238C53.2023 168.501 53.3589 168.826 53.4146 169.173C53.4702 169.52 53.4226 169.875 53.2772 170.197C53.1319 170.518 52.8949 170.793 52.5943 170.988C52.2937 171.183 51.942 171.29 51.5808 171.297C50.0673 171.297 48.5674 171.019 47.16 170.478C48.5616 171.745 50.2524 172.671 52.0935 173.179C53.9347 173.687 55.8735 173.763 57.7508 173.401C59.6281 173.039 61.3902 172.249 62.8923 171.096C64.3944 169.943 65.5936 168.459 66.3915 166.768C67.1893 165.077 67.563 163.226 67.4817 161.366C67.4005 159.507 66.8667 157.694 65.9241 156.074C64.9816 154.455 63.6573 153.076 62.06 152.051C60.4627 151.026 58.6381 150.384 56.736 150.178L56.7 150.199Z" fill="black"/>
<path d="M90.8619 155.269C93.6113 143.943 86.3967 132.595 74.7477 129.922C63.0986 127.249 51.4264 134.263 48.6769 145.589C45.9275 156.914 53.1421 168.262 64.7911 170.935C76.4402 173.608 88.1125 166.594 90.8619 155.269Z" fill="#FFC100"/>
<path opacity="0.2" d="M75.9528 164.276C72.2498 164.278 68.608 163.358 65.3753 161.602C62.1426 159.846 59.427 157.313 57.4878 154.246C55.5487 151.179 54.4507 147.68 54.299 144.083C54.1472 140.486 54.9466 136.911 56.6208 133.7C54.0351 135.622 51.9281 138.086 50.4565 140.909C48.9848 143.732 48.1863 146.84 48.1202 150.004C48.0541 153.168 48.7221 156.306 50.0747 159.184C51.4273 162.063 53.4296 164.608 55.9329 166.631C58.4361 168.653 61.3761 170.102 64.5342 170.868C67.6923 171.634 70.9874 171.699 74.1748 171.057C77.3621 170.415 80.3597 169.083 82.9449 167.16C85.53 165.238 87.6363 162.773 89.1072 159.95C85.3317 162.76 80.7078 164.281 75.9528 164.276Z" fill="black"/>
<path d="M272.498 244.154V226.366H265V244.154C265.031 244.6 265.149 245.026 265.341 245.391C265.534 245.755 265.793 246.045 266.095 246.23C266.918 246.79 267.827 247.082 268.749 247.082C269.671 247.082 270.58 246.79 271.404 246.23C271.706 246.047 271.967 245.758 272.16 245.393C272.352 245.028 272.469 244.6 272.498 244.154Z" fill="#455A64"/>
<path d="M271.375 242.29C272.838 243.439 272.838 245.294 271.375 246.443C270.553 247.009 269.643 247.304 268.721 247.304C267.798 247.304 266.888 247.009 266.066 246.443C264.603 245.307 264.603 243.453 266.066 242.29C266.888 241.723 267.798 241.428 268.721 241.428C269.643 241.428 270.553 241.723 271.375 242.29Z" fill="#37474F"/>
<path d="M283.753 164.273C283.463 164.273 283.185 164.117 282.979 163.839C282.774 163.561 282.659 163.185 282.659 162.792V146.181C282.644 145.975 282.661 145.768 282.709 145.572C282.757 145.376 282.835 145.195 282.938 145.042C283.04 144.889 283.165 144.767 283.305 144.684C283.444 144.6 283.595 144.557 283.748 144.557C283.901 144.557 284.052 144.6 284.191 144.684C284.331 144.767 284.456 144.889 284.559 145.042C284.661 145.195 284.739 145.376 284.787 145.572C284.835 145.768 284.852 145.975 284.838 146.181V162.792C284.839 162.986 284.812 163.178 284.758 163.358C284.704 163.537 284.624 163.701 284.524 163.838C284.423 163.976 284.303 164.085 284.171 164.16C284.038 164.235 283.896 164.273 283.753 164.273Z" fill="#37474F"/>
<path d="M301.51 152.095C301.367 152.095 301.225 152.056 301.093 151.982C300.961 151.907 300.841 151.798 300.74 151.66C300.639 151.522 300.56 151.359 300.506 151.179C300.452 151 300.425 150.807 300.426 150.613V134.002C300.411 133.797 300.429 133.589 300.477 133.393C300.525 133.197 300.602 133.017 300.705 132.864C300.808 132.711 300.933 132.589 301.072 132.505C301.212 132.421 301.363 132.378 301.516 132.378C301.668 132.378 301.819 132.421 301.959 132.505C302.098 132.589 302.223 132.711 302.326 132.864C302.429 133.017 302.506 133.197 302.554 133.393C302.603 133.589 302.62 133.797 302.605 134.002V150.613C302.605 151.006 302.49 151.383 302.284 151.661C302.079 151.938 301.801 152.095 301.51 152.095Z" fill="#37474F"/>
<path d="M269.357 246C268.996 246 268.651 245.805 268.396 245.457C268.141 245.109 267.998 244.638 267.998 244.146V107.835C268.002 107.511 268.068 107.195 268.19 106.916C268.311 106.638 268.483 106.407 268.689 106.247C268.895 106.086 269.128 106.001 269.365 106C269.603 105.999 269.836 106.082 270.043 106.241L326.379 150.615C326.671 150.874 326.879 151.276 326.96 151.738C327.041 152.2 326.99 152.687 326.815 153.098C326.641 153.51 326.357 153.814 326.023 153.948C325.689 154.083 325.33 154.037 325.02 153.821L270.716 111.041V244.146C270.716 244.389 270.681 244.631 270.613 244.856C270.544 245.08 270.444 245.285 270.318 245.457C270.192 245.629 270.042 245.766 269.877 245.859C269.712 245.952 269.535 246 269.357 246Z" fill="#37474F"/>
<path d="M275.998 129.981V182.387C275.996 183.634 276.241 184.859 276.707 185.938C277.174 187.016 277.845 187.91 278.653 188.527L322.65 222.599C322.989 222.861 323.373 222.999 323.764 223C324.155 223.001 324.539 222.863 324.878 222.602C325.217 222.341 325.499 221.965 325.695 221.511C325.892 221.058 325.996 220.543 325.998 220.019V167.613C325.996 166.367 325.749 165.144 325.283 164.066C324.817 162.989 324.148 162.094 323.343 161.473L279.346 127.401C279.007 127.139 278.623 127.001 278.232 127C277.841 126.999 277.457 127.137 277.118 127.398C276.779 127.659 276.497 128.035 276.3 128.489C276.104 128.942 275.999 129.457 275.998 129.981Z" fill="#455A64"/>
<path d="M290.02 159.863C289.496 159.455 289.01 158.969 288.561 158.405C288.119 157.845 287.734 157.241 287.406 156.594C287.083 155.951 286.831 155.295 286.648 154.624C286.471 153.959 286.382 153.314 286.382 152.69C286.382 152.066 286.471 151.559 286.648 151.168C286.831 150.783 287.087 150.522 287.415 150.385C287.743 150.249 288.129 150.244 288.571 150.372C289.013 150.5 289.493 150.765 290.011 151.168C290.535 151.575 291.015 152.057 291.45 152.611C291.892 153.171 292.274 153.772 292.597 154.415C292.925 155.062 293.181 155.721 293.364 156.391C293.547 157.054 293.639 157.701 293.639 158.333C293.639 158.957 293.547 159.466 293.364 159.859C293.181 160.245 292.925 160.506 292.597 160.643C292.274 160.776 291.892 160.779 291.45 160.651C291.015 160.529 290.538 160.266 290.02 159.863ZM290.011 158.2C290.307 158.43 290.579 158.578 290.825 158.641C291.078 158.71 291.299 158.698 291.488 158.605C291.678 158.512 291.823 158.341 291.924 158.092C292.031 157.847 292.085 157.525 292.085 157.125C292.085 156.725 292.031 156.319 291.924 155.908C291.823 155.501 291.678 155.104 291.488 154.717C291.305 154.334 291.087 153.981 290.835 153.657C290.582 153.332 290.307 153.054 290.011 152.824C289.714 152.593 289.439 152.443 289.186 152.375C288.94 152.311 288.722 152.326 288.533 152.418C288.343 152.511 288.195 152.68 288.088 152.924C287.987 153.174 287.936 153.498 287.936 153.898C287.936 154.29 287.987 154.694 288.088 155.108C288.195 155.52 288.34 155.917 288.523 156.299C288.713 156.686 288.934 157.042 289.186 157.367C289.439 157.691 289.714 157.969 290.011 158.2ZM294.792 163.43V155.03L297.662 157.262C298.256 157.724 298.767 158.246 299.197 158.828C299.626 159.402 299.958 160.007 300.191 160.645C300.425 161.283 300.542 161.918 300.542 162.55C300.542 163.174 300.425 163.623 300.191 163.897C299.958 164.171 299.626 164.266 299.197 164.18C298.767 164.086 298.256 163.808 297.662 163.346L295.644 161.777L296.326 161.431V164.623L294.792 163.43ZM296.326 161.647L295.644 160.193L297.577 161.696C298.05 162.064 298.404 162.211 298.638 162.137C298.871 162.063 298.988 161.797 298.988 161.341C298.988 160.877 298.871 160.427 298.638 159.989C298.404 159.551 298.05 159.148 297.577 158.78L295.644 157.277L296.326 156.883V161.647ZM303.049 164.835L306.241 167.318V168.83L303.049 166.347V164.835ZM303.162 168.38L306.771 171.186V172.746L301.637 168.754V160.354L306.648 164.251V165.811L303.162 163.1V168.38ZM307.993 173.696V165.296L309.262 166.283L313.174 175.374L312.558 174.895V168.847L314.074 170.025V178.425L312.814 177.446L308.892 168.348L309.508 168.827V174.875L307.993 173.696Z" fill="#FAFAFA"/>
<path d="M287.17 169.269L288.705 170.462V178.862L287.17 177.669V169.269ZM284.158 175.326L282.623 174.133V165.733L284.158 166.926V175.326ZM287.284 174.313L284.044 171.794V170.15L287.284 172.669V174.313ZM293.494 182.731C292.97 182.323 292.484 181.837 292.036 181.272C291.594 180.712 291.208 180.109 290.88 179.462C290.558 178.819 290.305 178.163 290.122 177.492C289.945 176.827 289.857 176.182 289.857 175.558C289.857 174.934 289.945 174.427 290.122 174.036C290.305 173.651 290.561 173.39 290.889 173.253C291.218 173.116 291.603 173.112 292.045 173.24C292.487 173.367 292.967 173.633 293.485 174.035C294.009 174.443 294.489 174.924 294.925 175.479C295.367 176.039 295.749 176.64 296.071 177.283C296.399 177.93 296.655 178.589 296.838 179.259C297.021 179.922 297.113 180.569 297.113 181.201C297.113 181.825 297.021 182.334 296.838 182.727C296.655 183.113 296.399 183.374 296.071 183.511C295.749 183.644 295.367 183.647 294.925 183.519C294.489 183.396 294.012 183.133 293.494 182.731ZM293.485 181.067C293.782 181.298 294.053 181.445 294.3 181.509C294.552 181.577 294.773 181.565 294.963 181.473C295.152 181.38 295.297 181.209 295.398 180.959C295.506 180.715 295.559 180.393 295.559 179.993C295.559 179.593 295.506 179.187 295.398 178.775C295.297 178.369 295.152 177.972 294.963 177.585C294.779 177.202 294.562 176.849 294.309 176.524C294.056 176.2 293.782 175.922 293.485 175.691C293.188 175.461 292.913 175.311 292.661 175.242C292.414 175.179 292.197 175.194 292.007 175.286C291.818 175.379 291.669 175.547 291.562 175.792C291.461 176.041 291.41 176.366 291.41 176.766C291.41 177.158 291.461 177.561 291.562 177.976C291.669 178.387 291.815 178.784 291.998 179.167C292.187 179.554 292.408 179.91 292.661 180.234C292.913 180.559 293.188 180.837 293.485 181.067ZM301.212 188.733C300.271 188.001 299.536 187.097 299.005 186.02C298.475 184.944 298.209 183.79 298.209 182.558V177.854L299.744 179.047V183.679C299.744 184.479 299.873 185.156 300.132 185.709C300.391 186.262 300.754 186.721 301.222 187.084C301.689 187.448 302.052 187.554 302.311 187.403C302.57 187.253 302.699 186.777 302.699 185.977V181.345L304.215 182.524V187.228C304.215 188.46 303.95 189.202 303.419 189.453C302.889 189.705 302.153 189.465 301.212 188.733ZM307.91 193.942C307.38 193.529 306.871 193.046 306.385 192.492C305.899 191.93 305.507 191.389 305.21 190.87L305.731 189.811C306.016 190.288 306.35 190.761 306.736 191.228C307.127 191.693 307.522 192.08 307.92 192.389C308.223 192.625 308.466 192.778 308.649 192.848C308.839 192.916 308.977 192.916 309.066 192.848C309.154 192.781 309.198 192.66 309.198 192.484C309.198 192.26 309.129 192.03 308.99 191.794C308.851 191.549 308.668 191.299 308.441 191.042C308.213 190.777 307.961 190.501 307.683 190.213C307.411 189.922 307.137 189.612 306.859 189.284C306.587 188.961 306.338 188.623 306.11 188.27C305.883 187.917 305.697 187.54 305.552 187.139C305.413 186.743 305.343 186.321 305.343 185.873C305.343 185.393 305.444 185.036 305.646 184.801C305.855 184.563 306.164 184.488 306.575 184.575C306.991 184.659 307.512 184.944 308.138 185.431C308.554 185.755 308.965 186.138 309.369 186.58C309.773 187.015 310.13 187.476 310.439 187.965L309.966 189.072C309.656 188.608 309.347 188.203 309.037 187.858C308.728 187.506 308.425 187.214 308.128 186.983C307.831 186.752 307.588 186.607 307.399 186.548C307.209 186.489 307.073 186.499 306.991 186.579C306.909 186.651 306.868 186.779 306.868 186.963C306.868 187.179 306.938 187.409 307.077 187.653C307.216 187.889 307.399 188.136 307.626 188.393C307.853 188.65 308.103 188.924 308.374 189.215C308.652 189.511 308.927 189.816 309.198 190.132C309.476 190.452 309.729 190.788 309.956 191.141C310.184 191.494 310.367 191.868 310.506 192.264C310.651 192.665 310.724 193.086 310.724 193.526C310.724 193.998 310.619 194.349 310.411 194.579C310.203 194.808 309.89 194.881 309.473 194.797C309.063 194.718 308.542 194.433 307.91 193.942ZM313.184 192.883L316.376 195.365V196.877L313.184 194.395V192.883ZM313.297 196.427L316.906 199.234V200.794L311.772 196.801V188.401L316.783 192.298V193.858L313.297 191.147V196.427Z" fill="#FAFAFA"/>
<path d="M212.4 286.51C212.4 286.51 212.011 287.126 212.184 289.933C212.357 292.74 212.357 292.95 212.4 294.777C212.443 296.604 212.357 298.641 214.769 298.025C217.181 297.409 217.591 295.778 217.31 294.343C216.916 292.439 216.647 290.512 216.504 288.575C216.446 286.853 215.856 286.279 215.856 286.279L212.4 286.51Z" fill="#37474F"/>
<path d="M214.632 256.774L214.452 260.274C214.388 261.486 214.473 262.701 214.704 263.893C215.28 266.896 216.36 273.168 216.144 277.151C215.842 282.548 215.892 286.251 215.892 286.251C215.892 286.251 216.367 291.851 216.389 293.027C216.397 293.228 216.362 293.429 216.288 293.616C216.214 293.804 216.102 293.976 215.958 294.12C215.814 294.265 215.642 294.379 215.451 294.457C215.26 294.535 215.055 294.575 214.848 294.574C214.301 294.574 212.789 295.106 212.436 287.364C211.924 282.945 211.103 278.564 209.981 274.253C208.822 269.955 208.001 266.154 207.576 264.054C207.356 262.97 207.212 261.874 207.144 260.771L206.834 255.871L214.632 256.774Z" fill="#945959"/>
<path d="M202.903 286.188V286.237C202.897 286.887 202.757 287.53 202.493 288.127C202.303 288.602 202.207 289.108 202.212 289.618V291.718C202.212 291.804 202.177 291.887 202.115 291.948C202.054 292.01 201.969 292.045 201.881 292.047C201.836 292.047 201.792 292.038 201.751 292.022C201.71 292.005 201.673 291.981 201.642 291.951C201.61 291.92 201.585 291.884 201.568 291.844C201.551 291.804 201.542 291.761 201.542 291.718V288.498L202.903 286.188Z" fill="#263238"/>
<path d="M201.802 284.053C201.802 284.053 200.65 284.879 200.65 287.063C200.607 287.964 200.359 288.845 199.923 289.642C199.487 290.439 198.875 291.131 198.13 291.669C197.28 292.166 195.401 290.969 195.401 290.969C195.401 290.969 193.399 292.621 193.399 293.363C193.399 294.105 194.378 294.714 196.639 294.413C198.9 294.112 200.779 293.79 201.132 291.41C201.542 288.61 201.557 288.274 202.421 287.357C203.285 286.44 202.954 284.557 201.802 284.053Z" fill="#263238"/>
<path d="M205.754 248.612L196.92 257.6L197.59 278.313L197.798 283.962C197.626 287.252 195.286 290.57 195.286 290.57C195.239 291.012 195.239 291.458 195.286 291.9H197.41C201.485 291.9 201.787 283.64 201.787 283.64L201.924 281.61C202.057 279.678 202.316 277.756 202.702 275.856C204.725 266.091 203.926 261.002 203.926 261.002L205.754 248.612Z" fill="#945959"/>
<path d="M201.787 283.668C201.787 283.668 200.851 284.319 200.614 286.678C200.573 287.584 200.321 288.468 199.879 289.266C199.436 290.064 198.813 290.754 198.058 291.284C197.194 291.774 195.286 290.584 195.286 290.584C195.286 290.584 193.255 292.236 193.255 292.978C193.255 293.72 194.249 294.329 196.546 294.021C198.842 293.713 200.34 293.321 200.765 290.955C201.19 288.589 201.197 288.036 202.075 287.119C202.954 286.202 203.515 285.362 201.787 283.668Z" fill="#37474F"/>
<path d="M212.09 238.875C212.09 238.875 215.201 243.075 215.1 253.022C215.028 260.673 214.776 262.283 214.776 262.283C212.069 264.707 208.513 266.036 204.833 266C201.175 266 196.675 262.5 196.675 262.5C196.675 262.5 196.74 253.61 196.956 250.019C197.196 246.473 197.779 242.958 198.698 239.519L212.09 238.875Z" fill="#263238"/>
<path d="M184.255 222.691C184.164 222.382 184.104 222.066 184.075 221.746C184.083 221.052 183.808 220.383 183.312 219.884C182.794 219.184 183.089 218.61 182.592 218.484C182.095 218.358 181.757 219.975 182.297 220.724C181.749 220.367 181.297 219.886 180.979 219.324C180.634 218.561 180.036 217.427 179.539 217.224C179.042 217.021 177.307 219.016 178.02 220.864C178.733 222.712 181.836 224.581 181.836 224.581L184.255 222.691Z" fill="#945959"/>
<path d="M201.42 220.724H201.362C200.074 220.712 198.815 221.094 197.762 221.816L189.49 227.416L184.133 222.271C183.433 223.202 182.484 223.928 181.39 224.371L187.358 231.861C187.639 232.214 188.037 232.462 188.484 232.564C188.931 232.666 189.4 232.616 189.814 232.421L197.366 228.872L201.42 220.724Z" fill="#37474F"/>
<path d="M203.717 220.717H201.42C201.42 220.717 193.126 228.354 198.857 233.247C199.109 235.323 199.055 237.423 198.698 239.484C198.698 239.484 202.882 242.214 212.17 239.484L211.356 233.142L213.156 227.542L212.782 221.795C212.768 221.614 212.688 221.443 212.556 221.315C212.424 221.186 212.248 221.108 212.062 221.095L208.62 220.948L203.717 220.717Z" fill="#455A64"/>
<path d="M203.868 220.08L202.608 220.78L200.254 224.357C200.193 224.452 200.153 224.559 200.137 224.669C200.121 224.78 200.129 224.893 200.16 225.001L200.83 227.262L200.563 227.57C200.436 227.718 200.346 227.894 200.302 228.083C200.259 228.272 200.262 228.468 200.311 228.655L200.88 230.72L203.602 228.935C203.791 228.811 203.942 228.637 204.036 228.435C204.13 228.232 204.164 228.008 204.134 227.787V227.591L207.612 226.373C207.733 226.331 207.842 226.261 207.929 226.17C208.017 226.079 208.081 225.968 208.116 225.848L209.556 221.018L208.584 220.318L203.868 220.08Z" fill="#263238"/>
<path d="M208.562 209.027C208.562 210.047 208.251 211.045 207.668 211.893C207.085 212.742 206.256 213.403 205.287 213.793C204.317 214.184 203.25 214.286 202.221 214.087C201.191 213.888 200.246 213.396 199.504 212.675C198.762 211.953 198.256 211.034 198.052 210.033C197.847 209.033 197.952 207.995 198.354 207.053C198.755 206.11 199.435 205.304 200.308 204.737C201.181 204.171 202.206 203.868 203.256 203.868C203.953 203.867 204.644 204 205.288 204.259C205.932 204.518 206.517 204.898 207.01 205.377C207.503 205.856 207.894 206.425 208.16 207.052C208.427 207.678 208.563 208.349 208.562 209.027Z" fill="#263238"/>
<path d="M216.115 216.447C216.115 217.017 215.941 217.575 215.615 218.049C215.289 218.524 214.826 218.893 214.284 219.111C213.742 219.33 213.146 219.387 212.57 219.276C211.995 219.164 211.466 218.89 211.051 218.486C210.636 218.083 210.354 217.569 210.239 217.01C210.125 216.45 210.184 215.87 210.408 215.343C210.633 214.816 211.013 214.366 211.501 214.049C211.989 213.732 212.562 213.563 213.149 213.563C213.539 213.562 213.925 213.636 214.285 213.781C214.645 213.925 214.973 214.138 215.249 214.406C215.524 214.674 215.743 214.992 215.891 215.342C216.04 215.693 216.116 216.068 216.115 216.447Z" fill="#263238"/>
<path d="M212.244 216.165C213.467 214.976 213.652 213.227 212.656 212.259C211.661 211.292 209.862 211.471 208.639 212.66C207.416 213.849 207.232 215.598 208.227 216.566C209.222 217.533 211.021 217.354 212.244 216.165Z" fill="#FFC100"/>
<path d="M210.96 206.717C211.165 206.491 211.317 206.224 211.407 205.935C211.496 205.647 211.521 205.343 211.478 205.044C211.392 203.924 212.479 204.736 212.573 205.38C212.562 205.767 212.439 206.144 212.217 206.466C211.995 206.788 211.684 207.043 211.32 207.2L210.96 206.717Z" fill="#263238"/>
<path d="M211.327 206.941C211.636 206.957 211.945 206.909 212.234 206.799C212.522 206.689 212.782 206.52 212.998 206.304C213.847 205.548 213.862 206.878 213.401 207.347C213.086 207.574 212.713 207.711 212.322 207.743C211.932 207.775 211.54 207.701 211.19 207.529L211.327 206.941Z" fill="#263238"/>
<path d="M203.717 217.805V220.717C203.717 220.717 201.499 227.717 202.226 227.206C204.386 225.729 207.583 222.131 208.397 221.2C208.526 221.054 208.597 220.868 208.598 220.675V215.075L203.717 217.805Z" fill="#945959"/>
<path d="M208.541 214.116V214.284C207.454 218.484 204.631 219.359 203.717 219.576V213.122H208.433L208.541 214.116Z" fill="#703838"/>
<path d="M204.538 204.778C202.979 204.875 201.521 205.561 200.475 206.688C199.429 207.815 198.876 209.295 198.936 210.812C198.878 215.425 199.606 218.946 202.068 219.093C204.231 219.04 206.291 218.179 207.819 216.689C209.347 215.2 210.227 213.195 210.276 211.092C210.535 205.1 206.287 204.638 204.538 204.778Z" fill="#945959"/>
<path d="M202.255 212.667L202.298 215.376L200.664 214.914L202.255 212.667Z" fill="#703838"/>
<path d="M204.703 212.597C204.705 212.707 204.673 212.814 204.611 212.906C204.549 212.998 204.461 213.07 204.357 213.113C204.253 213.156 204.139 213.168 204.028 213.147C203.917 213.127 203.815 213.075 203.735 212.998C203.655 212.92 203.6 212.822 203.577 212.715C203.555 212.607 203.565 212.496 203.608 212.394C203.651 212.293 203.724 212.206 203.818 212.145C203.911 212.084 204.022 212.051 204.134 212.051C204.209 212.05 204.283 212.064 204.352 212.091C204.421 212.118 204.483 212.158 204.536 212.208C204.589 212.259 204.631 212.32 204.66 212.386C204.688 212.453 204.703 212.525 204.703 212.597Z" fill="#263238"/>
<path d="M200.966 212.261C200.967 212.334 200.954 212.406 200.926 212.473C200.898 212.541 200.857 212.602 200.805 212.654C200.753 212.706 200.691 212.748 200.622 212.776C200.553 212.805 200.479 212.82 200.405 212.821C200.33 212.822 200.257 212.808 200.188 212.781C200.119 212.754 200.056 212.714 200.003 212.664C199.95 212.613 199.908 212.552 199.879 212.486C199.851 212.419 199.836 212.347 199.836 212.275C199.827 212.198 199.835 212.119 199.859 212.045C199.884 211.971 199.924 211.903 199.977 211.844C200.03 211.786 200.096 211.74 200.169 211.708C200.242 211.676 200.321 211.66 200.401 211.66C200.481 211.66 200.56 211.676 200.634 211.708C200.707 211.74 200.772 211.786 200.825 211.844C200.879 211.903 200.919 211.971 200.943 212.045C200.967 212.119 200.975 212.198 200.966 212.275V212.261Z" fill="#263238"/>
<path d="M199.692 211.127L200.794 210.476C200.794 210.476 200.362 210.049 199.937 210.315C199.817 210.411 199.729 210.539 199.685 210.684C199.641 210.829 199.644 210.983 199.692 211.127Z" fill="#FFC100"/>
<path d="M201.938 216.3C202.513 216.034 203.071 215.735 203.609 215.404C203.609 215.404 203.969 216.293 203.22 216.657C202.997 216.751 202.747 216.766 202.514 216.701C202.28 216.636 202.077 216.494 201.938 216.3Z" fill="#703838"/>
<path d="M199.692 211.127L200.794 210.476C200.794 210.476 200.362 210.049 199.937 210.315C199.817 210.411 199.729 210.539 199.685 210.684C199.641 210.829 199.644 210.983 199.692 211.127Z" fill="#263238"/>
<path d="M207.13 211.897C207.13 211.897 206.834 214.305 208.613 214.305L209.045 212.149L207.13 211.897Z" fill="#263238"/>
<path d="M207.266 212.604C207.266 212.604 200.16 211.4 200.16 204.736C200.16 202.72 201.434 201.313 204.336 203.406C207.238 205.499 213.12 203.896 213.12 211.484C213.132 212.834 212.702 214.152 211.891 215.249C211.081 216.345 209.933 217.162 208.613 217.581V212.8L207.266 212.604Z" fill="#263238"/>
<path d="M208.526 214.06C208.518 213.625 208.612 213.194 208.8 212.8C208.886 212.559 209.043 212.348 209.252 212.194C209.461 212.039 209.712 211.948 209.974 211.932C210.189 211.934 210.402 211.981 210.598 212.069C210.793 212.157 210.967 212.285 211.108 212.445C211.248 212.604 211.352 212.79 211.412 212.992C211.472 213.193 211.488 213.404 211.457 213.612C211.401 214.307 211.07 214.953 210.532 215.413C209.994 215.873 209.292 216.111 208.577 216.076L208.526 214.06Z" fill="#945959"/>
<path d="M209.858 229.173L206.431 228.83V228.2L209.858 228.543V229.173Z" fill="#263238"/>
<path d="M200.354 232.295H198.958C198.958 231.924 198.806 231.568 198.536 231.305C198.266 231.043 197.899 230.895 197.518 230.895C197.136 230.895 196.769 231.043 196.499 231.305C196.229 231.568 196.078 231.924 196.078 232.295H195.25C195.162 232.294 195.076 232.314 194.998 232.352C194.92 232.39 194.852 232.445 194.8 232.513C194.748 232.582 194.714 232.661 194.699 232.744C194.685 232.828 194.691 232.914 194.717 232.995L195.142 234.318H201.42L200.887 232.666C200.85 232.557 200.779 232.462 200.683 232.396C200.587 232.329 200.472 232.294 200.354 232.295Z" fill="#FFC100"/>
<path opacity="0.7" d="M200.354 232.295H198.958C198.958 231.924 198.806 231.568 198.536 231.305C198.266 231.043 197.899 230.895 197.518 230.895C197.136 230.895 196.769 231.043 196.499 231.305C196.229 231.568 196.078 231.924 196.078 232.295H195.25C195.162 232.294 195.076 232.314 194.998 232.352C194.92 232.39 194.852 232.445 194.8 232.513C194.748 232.582 194.714 232.661 194.699 232.744C194.685 232.828 194.691 232.914 194.717 232.995L195.142 234.318H201.42L200.887 232.666C200.85 232.557 200.779 232.462 200.683 232.396C200.587 232.329 200.472 232.294 200.354 232.295Z" fill="black"/>
<path d="M204.545 233.002L208.044 245.84L196.769 245.889L192.42 233.128L204.545 233.002Z" fill="#FFC100"/>
<path opacity="0.3" d="M204.545 233.002L208.044 245.84L196.769 245.889L192.42 233.128L204.545 233.002Z" fill="black"/>
<path d="M200.354 232.869H198.958C198.958 232.498 198.806 232.142 198.536 231.879C198.266 231.616 197.899 231.469 197.518 231.469C197.136 231.469 196.769 231.616 196.499 231.879C196.229 232.142 196.078 232.498 196.078 232.869H195.25C195.162 232.868 195.076 232.888 194.998 232.926C194.92 232.964 194.852 233.019 194.8 233.087C194.748 233.156 194.714 233.235 194.699 233.318C194.685 233.402 194.691 233.488 194.717 233.569L194.918 234.213H201.19L200.887 233.24C200.85 233.131 200.779 233.036 200.683 232.97C200.587 232.903 200.472 232.868 200.354 232.869Z" fill="#FFC100"/>
<path opacity="0.5" d="M200.354 232.869H198.958C198.958 232.498 198.806 232.142 198.536 231.879C198.266 231.616 197.899 231.469 197.518 231.469C197.136 231.469 196.769 231.616 196.499 231.879C196.229 232.142 196.078 232.498 196.078 232.869H195.25C195.162 232.868 195.076 232.888 194.998 232.926C194.92 232.964 194.852 233.019 194.8 233.087C194.748 233.156 194.714 233.235 194.699 233.318C194.685 233.402 194.691 233.488 194.717 233.569L194.918 234.213H201.19L200.887 233.24C200.85 233.131 200.779 233.036 200.683 232.97C200.587 232.903 200.472 232.868 200.354 232.869Z" fill="black"/>
<path d="M209.297 237.818C208.683 237.951 208.05 237.984 207.425 237.916C206.705 237.776 206.705 237.146 205.639 237.167L205.985 238.567C204.934 238.764 203.862 238.827 202.795 238.756C201.355 238.595 201.845 239.827 202.075 240.156C202.306 240.485 203.27 242.424 205.33 242.256C206.968 242.048 208.586 241.71 210.168 241.248C210.325 240.651 210.328 240.025 210.176 239.427C210.024 238.828 209.722 238.276 209.297 237.818Z" fill="#945959"/>
<path d="M212.09 221.116C213.065 221.129 214.01 221.441 214.792 222.006C215.574 222.572 216.153 223.363 216.446 224.266L219.938 234.976C220.078 235.399 220.128 235.845 220.086 236.288C220.045 236.73 219.912 237.16 219.697 237.551C219.481 237.943 219.187 238.289 218.832 238.568C218.476 238.847 218.066 239.054 217.627 239.176L210.154 241.276C210.185 240.081 209.89 238.9 209.297 237.853L215.143 235.445L211.615 226.387C211.311 225.639 211.142 224.846 211.118 224.042C211.075 223.516 211.138 222.987 211.305 222.485C211.471 221.983 211.738 221.518 212.09 221.116Z" fill="#37474F"/>
<path d="M211.63 240.044C211.631 240.119 211.609 240.193 211.568 240.256C211.526 240.319 211.466 240.368 211.395 240.398C211.324 240.428 211.245 240.436 211.169 240.423C211.094 240.409 211.024 240.373 210.969 240.321C210.913 240.268 210.876 240.201 210.86 240.127C210.844 240.054 210.852 239.977 210.881 239.908C210.91 239.839 210.96 239.779 211.024 239.737C211.088 239.695 211.164 239.673 211.241 239.673C211.343 239.673 211.44 239.712 211.513 239.781C211.586 239.851 211.628 239.945 211.63 240.044Z" fill="#263238"/>
<path d="M212.94 239.715C212.941 239.79 212.92 239.864 212.877 239.928C212.835 239.991 212.775 240.04 212.703 240.07C212.632 240.099 212.553 240.107 212.477 240.093C212.401 240.079 212.331 240.042 212.276 239.989C212.222 239.936 212.184 239.868 212.17 239.794C212.155 239.72 212.163 239.643 212.193 239.574C212.224 239.505 212.275 239.446 212.34 239.405C212.405 239.364 212.481 239.343 212.558 239.344C212.659 239.346 212.755 239.385 212.826 239.455C212.897 239.524 212.938 239.617 212.94 239.715Z" fill="#263238"/>
<path d="M182.758 225.078C182.662 225.124 182.552 225.132 182.45 225.099C182.349 225.066 182.265 224.996 182.218 224.903C182.17 224.81 182.162 224.703 182.196 224.604C182.23 224.506 182.302 224.424 182.398 224.378C182.493 224.332 182.604 224.324 182.705 224.357C182.806 224.39 182.89 224.46 182.938 224.553C182.985 224.646 182.993 224.753 182.959 224.852C182.926 224.95 182.853 225.032 182.758 225.078Z" fill="#263238"/>
<path d="M183.679 226.051C183.611 226.086 183.534 226.102 183.458 226.095C183.381 226.087 183.309 226.058 183.249 226.011C183.189 225.964 183.145 225.9 183.123 225.829C183.1 225.757 183.1 225.681 183.122 225.609C183.145 225.538 183.188 225.474 183.248 225.426C183.307 225.379 183.38 225.35 183.456 225.342C183.533 225.335 183.61 225.35 183.678 225.385C183.746 225.42 183.801 225.474 183.838 225.54C183.886 225.628 183.897 225.732 183.867 225.827C183.837 225.923 183.77 226.004 183.679 226.051Z" fill="#263238"/>
<path d="M156.24 285.712C156.24 285.712 155.606 286.048 155.52 287.364C155.434 288.68 154.181 291.137 157.082 291.235C159.984 291.333 159.581 291.48 160.762 291.935C161.942 292.39 164.498 293.44 166.522 292.04C168.545 290.64 166.212 289.898 165.362 289.618C163.854 289.134 162.42 288.454 161.1 287.595C160.567 287.249 160.083 286.838 159.66 286.37L156.24 285.712Z" fill="#263238"/>
<path d="M146.88 288.988C146.88 288.988 146.383 289.128 146.362 290.094C146.34 291.06 145.555 292.53 146.621 293.405C147.686 294.28 147.852 294.168 148.5 295.505C148.896 296.481 149.654 297.277 150.624 297.737C151.595 298.197 152.707 298.287 153.742 297.99C156.845 297.325 154.886 295.512 154.627 295.246C154.368 294.98 151.33 292.061 151.027 291.102C150.845 290.573 150.616 290.06 150.343 289.569L146.88 288.988Z" fill="#263238"/>
<path d="M146.88 287.784V289.569C146.88 289.569 147.103 290.402 148.802 290.402C149.717 290.402 150.314 289.877 150.329 289.569V287.609L146.88 287.784Z" fill="#FFA8A7"/>
<path d="M156.24 284.599V286.377C156.24 286.377 156.463 287.217 158.162 287.217C159.077 287.217 159.682 286.685 159.696 286.377V284.424L156.24 284.599Z" fill="#FFA8A7"/>
<path d="M161.424 242.984L162.72 263.585C162.779 264.557 162.74 265.532 162.605 266.497L159.905 285.558C159.246 285.818 158.528 285.905 157.824 285.809C157.12 285.713 156.454 285.438 155.894 285.012L154.843 269.773C154.751 268.489 154.93 267.2 155.369 265.986L155.786 264.838L151.999 244.412L161.424 242.984Z" fill="#455A64"/>
<path d="M158.825 248.374C158.825 248.374 158.184 250.81 154.98 252.315L154.339 256.907L152.95 249.431L158.825 248.374Z" fill="#37474F"/>
<path d="M159.84 243.817C159.84 243.817 160.294 247.716 157.19 250.243C156.334 250.982 155.285 251.478 154.159 251.678L153.13 266.154L150.638 288.778C150.638 288.778 149.134 290.003 146.354 288.778L145.037 271.824C144.891 269.921 145.246 268.013 146.066 266.28L146.124 266.154C145.437 258.628 145.196 251.069 145.404 243.516L159.84 243.817Z" fill="#455A64"/>
<path d="M164.11 228.837L165.233 231.007C165.233 231.007 170.273 232.743 173.254 232.68L174.542 235.725C172.146 235.898 169.742 235.924 167.342 235.802C163.836 235.585 163.318 235.494 162.302 234.199C161.287 232.904 159.725 230.531 159.725 230.531L164.11 228.837Z" fill="#FFA8A7"/>
<path d="M173.254 232.68C173.525 232.499 173.779 232.293 174.01 232.064C174.23 231.794 174.503 231.569 174.813 231.402C175.123 231.235 175.464 231.129 175.817 231.091C176.659 230.888 176.818 230.244 177.257 230.461C177.696 230.678 176.926 232.127 176.018 232.372C176.671 232.44 177.33 232.354 177.941 232.12C178.704 231.742 179.906 231.231 180.396 231.42C180.886 231.609 180.95 234.185 179.194 235.165C177.437 236.145 173.815 235.683 173.815 235.683L173.254 232.68Z" fill="#FFA8A7"/>
<path d="M156.24 219.1C157.03 218.946 157.85 219.043 158.579 219.377C159.308 219.711 159.906 220.264 160.286 220.955L164.542 228.704C164.542 228.704 163.404 231.07 159.703 231.189L156.24 219.1Z" fill="#FFC100"/>
<path opacity="0.5" d="M156.24 219.1C157.03 218.946 157.85 219.043 158.579 219.377C159.308 219.711 159.906 220.264 160.286 220.955L164.542 228.704C164.542 228.704 163.404 231.07 159.703 231.189L156.24 219.1Z" fill="black"/>
<path d="M145.591 232.666L144.317 235.851L142.985 246.624L139.774 247.611C139.774 247.611 139.5 241.129 139.637 236.775C139.672 235.61 139.896 234.457 140.299 233.359L141.199 230.909L145.591 232.666Z" fill="#FFA8A7"/>
<path d="M150.235 220.171L146.196 221.298L145.44 232.281V243.516C145.44 243.516 147.953 245.616 153.922 245.616C156.664 245.562 159.311 244.629 161.453 242.963V228.837C161.453 227.57 161.971 220.311 156.29 219.037L155.318 219.226L150.235 220.171Z" fill="#FFC100"/>
<path opacity="0.3" d="M150.235 220.171L146.196 221.298L145.44 232.281V243.516C145.44 243.516 147.953 245.616 153.922 245.616C156.664 245.562 159.311 244.629 161.453 242.963V228.837C161.453 227.57 161.971 220.311 156.29 219.037L155.318 219.226L150.235 220.171Z" fill="black"/>
<path d="M148.478 220.661C148.478 220.661 149.832 221.963 148.86 225.603C148.062 228.359 147.101 231.068 145.98 233.716C144.968 233.902 143.923 233.817 142.957 233.47C141.991 233.124 141.139 232.529 140.494 231.749L143.374 224.049C143.617 223.38 144.02 222.777 144.551 222.29C145.082 221.803 145.725 221.446 146.426 221.249L148.478 220.661Z" fill="#FFC100"/>
<path opacity="0.5" d="M148.478 220.661C148.478 220.661 149.832 221.963 148.86 225.603C148.062 228.359 147.101 231.068 145.98 233.716C144.968 233.902 143.923 233.817 142.957 233.47C141.991 233.124 141.139 232.529 140.494 231.749L143.374 224.049C143.617 223.38 144.02 222.777 144.551 222.29C145.082 221.803 145.725 221.446 146.426 221.249L148.478 220.661Z" fill="black"/>
<path d="M142.985 246.624C143.154 246.898 143.349 247.156 143.568 247.394C144.092 247.864 144.407 248.515 144.446 249.207C144.598 250.04 145.253 250.236 145.001 250.663C144.749 251.09 143.309 250.236 143.122 249.34C143.007 249.969 143.051 250.615 143.251 251.223C143.59 251.986 144.043 253.19 143.842 253.652C143.64 254.114 140.962 254.009 140.076 252.252C139.19 250.495 139.889 247.009 139.889 247.009L142.985 246.624Z" fill="#FFA8A7"/>
<path d="M159.941 206.36C159.941 206.36 160.884 207.298 160.884 209.769C160.884 212.24 158.782 214.375 158.782 214.375V206.5L159.941 206.36Z" fill="#263238"/>
<path d="M159.941 207.004C160.347 206.773 160.69 206.45 160.941 206.062C161.191 205.675 161.342 205.234 161.381 204.778C161.51 203.203 160.56 203.77 160.236 203.903C159.912 204.036 158.926 204.386 158.926 204.386C158.926 204.386 159.826 203.476 159.293 202.867C158.897 202.419 156.974 203.833 154.555 204.113C152.136 204.393 149.803 204.372 149.119 206.479C149.119 206.479 146.779 206.934 147.341 210.924C147.902 214.914 149.501 217.224 150.221 217.182L159.941 207.004Z" fill="#263238"/>
<path d="M150.235 220.171L152.352 221.473C152.819 221.763 153.359 221.922 153.913 221.933C154.466 221.944 155.012 221.807 155.491 221.536C155.679 221.431 155.836 221.282 155.947 221.102C156.059 220.922 156.122 220.717 156.129 220.507C156.137 220.297 156.09 220.089 155.992 219.901C155.895 219.714 155.749 219.554 155.57 219.436L155.29 219.261V213.584H150.25L150.235 220.171Z" fill="#FFA8A7"/>
<path d="M155.29 219.261C154.193 219.113 153.167 218.651 152.341 217.934C151.516 217.218 150.928 216.278 150.653 215.236V213.584H155.29V219.261Z" fill="#F28F8F"/>
<path d="M156.47 205.527C156.47 205.527 161.28 205.702 160.409 213.227C160.006 216.769 159.689 218.722 156.586 218.722C153.482 218.722 148.874 216.44 149.17 210.364C149.465 204.288 156.47 205.527 156.47 205.527Z" fill="#FFA8A7"/>
<path d="M156.953 211.736V214.375L158.544 213.899L156.953 211.736Z" fill="#F28F8F"/>
<path d="M154.634 212.191C154.634 212.298 154.667 212.402 154.728 212.491C154.79 212.58 154.877 212.649 154.978 212.69C155.08 212.73 155.192 212.74 155.3 212.719C155.407 212.698 155.506 212.646 155.583 212.57C155.661 212.493 155.713 212.397 155.733 212.292C155.754 212.187 155.742 212.078 155.699 211.98C155.656 211.881 155.584 211.798 155.492 211.739C155.399 211.681 155.292 211.651 155.182 211.652C155.036 211.654 154.897 211.711 154.794 211.812C154.692 211.913 154.634 212.049 154.634 212.191Z" fill="#263238"/>
<path d="M158.27 211.813C158.27 211.92 158.303 212.024 158.364 212.112C158.425 212.201 158.511 212.27 158.613 212.311C158.714 212.352 158.825 212.362 158.933 212.342C159.04 212.321 159.139 212.269 159.217 212.194C159.294 212.119 159.347 212.023 159.369 211.918C159.39 211.814 159.379 211.705 159.337 211.607C159.295 211.508 159.224 211.424 159.133 211.365C159.042 211.306 158.934 211.274 158.825 211.274C158.678 211.274 158.537 211.331 158.433 211.432C158.329 211.533 158.27 211.67 158.27 211.813Z" fill="#263238"/>
<path d="M159.502 210.7L158.4 210.07C158.4 210.07 158.818 209.65 159.235 209.902C159.358 209.993 159.449 210.118 159.497 210.26C159.545 210.403 159.546 210.556 159.502 210.7Z" fill="#263238"/>
<path d="M154.894 210.511L153.922 211.288C153.922 211.288 153.655 210.763 154.044 210.469C154.172 210.387 154.323 210.347 154.476 210.355C154.629 210.362 154.775 210.417 154.894 210.511Z" fill="#263238"/>
<path d="M156.701 215.6C156.701 215.6 154.728 215.11 155.21 215.215C155.21 215.215 155.11 215.978 155.765 216.125C155.959 216.157 156.159 216.122 156.33 216.026C156.501 215.93 156.632 215.779 156.701 215.6Z" fill="#F28F8F"/>
<path d="M159.941 207.004C159.941 207.004 158.407 208.404 154.469 208.117C150.53 207.83 150.869 208.887 151.308 210.679C151.603 211.911 151.632 215.187 150.653 213.584H148.702V209.797C148.702 209.162 148.83 208.533 149.08 207.946C149.33 207.359 149.697 206.826 150.159 206.377C150.621 205.928 151.169 205.571 151.773 205.328C152.376 205.085 153.023 204.96 153.677 204.96H157.68L159.941 207.004Z" fill="#263238"/>
<path d="M150.696 213.388C150.696 213.388 150.502 211.575 149.206 211.54C148.977 211.54 148.751 211.588 148.543 211.679C148.335 211.771 148.15 211.905 147.999 212.072C147.849 212.239 147.736 212.435 147.67 212.647C147.604 212.86 147.585 213.084 147.614 213.304C147.666 214.037 148.009 214.723 148.571 215.215C149.132 215.707 149.868 215.968 150.624 215.943L150.696 213.388Z" fill="#FFA8A7"/>
<path d="M149.141 206.5C149.141 206.5 148.147 205.212 148.788 204.68C149.429 204.148 149.724 206.353 149.724 206.353L149.141 206.5Z" fill="#263238"/>
<path d="M149.227 206.906C149.227 206.906 147.571 206.906 147.535 206.066C147.499 205.226 149.465 206.367 149.465 206.367L149.227 206.906Z" fill="#263238"/>
<path d="M253.642 72.1L259.034 75.082V73.227C259.034 73.094 259.034 72.961 259.034 72.828C259.034 72.695 259.034 72.576 259.034 72.457V72.415C259.229 69.951 261.144 69.013 263.477 70.315C264.535 70.9458 265.441 71.791 266.134 72.793C266.659 69.454 269.467 68.25 272.851 70.154C276.617 72.254 279.662 77.399 279.662 81.627V85.596C279.662 85.911 279.746 86.2206 279.907 86.4943C280.067 86.7681 280.298 86.9965 280.577 87.157L283.745 88.963C284.433 89.3551 285.004 89.9154 285.401 90.5883C285.797 91.2613 286.006 92.0234 286.006 92.799C286.006 93.1202 285.919 93.4358 285.754 93.714C285.589 93.9922 285.351 94.2232 285.065 94.3836C284.779 94.544 284.454 94.6283 284.124 94.6278C283.793 94.6273 283.469 94.5422 283.183 94.381L253.714 77.833C252.932 77.3929 252.284 76.761 251.833 76.0005C251.382 75.2401 251.144 74.3778 251.143 73.5C251.143 73.2157 251.22 72.9363 251.366 72.69C251.512 72.4438 251.722 72.2394 251.976 72.0974C252.229 71.9554 252.517 71.8809 252.809 71.8813C253.102 71.8818 253.389 71.9572 253.642 72.1Z" fill="#E6E6E6"/>
<path d="M225.914 38.437L229.903 40.642V39.242C229.903 39.144 229.903 39.046 229.903 38.955C229.903 38.864 229.903 38.766 229.903 38.675C230.047 36.855 231.466 36.155 233.194 37.128C233.979 37.5917 234.65 38.2179 235.159 38.962C235.548 36.491 237.622 35.602 240.127 37.009C241.595 37.9372 242.817 39.1896 243.693 40.6639C244.569 42.1382 245.074 43.7929 245.167 45.493V48.433C245.168 48.665 245.231 48.8928 245.349 49.0941C245.468 49.2954 245.638 49.4632 245.844 49.581L248.191 50.918C248.696 51.2119 249.113 51.6285 249.403 52.1268C249.692 52.6251 249.842 53.1879 249.84 53.76C249.84 53.9976 249.776 54.231 249.654 54.4367C249.531 54.6425 249.356 54.8132 249.144 54.9318C248.932 55.0503 248.692 55.1125 248.448 55.112C248.203 55.1115 247.963 55.0484 247.752 54.929L225.979 42.7C225.399 42.3761 224.917 41.909 224.582 41.3461C224.247 40.7832 224.071 40.1443 224.071 39.494C224.068 39.2827 224.122 39.0742 224.228 38.8899C224.335 38.7056 224.489 38.5519 224.677 38.4445C224.864 38.3372 225.077 38.2799 225.295 38.2786C225.512 38.2773 225.726 38.3319 225.914 38.437Z" fill="#E6E6E6"/>
<path d="M91.9224 66.192L86.5296 69.174V67.319C86.5296 67.186 86.5296 67.053 86.5296 66.927C86.5296 66.801 86.5296 66.668 86.5296 66.549V66.5C86.3352 64.043 84.42 63.098 82.08 64.4C81.0234 65.0336 80.1197 65.8812 79.4304 66.885C78.8976 63.546 76.0968 62.335 72.7128 64.239C68.9472 66.339 65.9016 71.484 65.9016 75.712V79.688C65.902 80.0021 65.8178 80.3108 65.6574 80.5834C65.4969 80.8561 65.2659 81.0831 64.9872 81.242L61.812 83.048C61.1255 83.4415 60.5565 84.0023 60.1613 84.6751C59.7661 85.3478 59.5583 86.1092 59.5584 86.884C59.559 87.205 59.6462 87.5202 59.8114 87.7981C59.9765 88.076 60.2138 88.3069 60.4995 88.4678C60.7852 88.6286 61.1093 88.7138 61.4394 88.7147C61.7696 88.7156 62.0942 88.6323 62.3808 88.473L91.8504 71.918C92.6331 71.4795 93.2829 70.8479 93.7342 70.0872C94.1855 69.3264 94.4224 68.4633 94.4208 67.585C94.4198 67.3013 94.3421 67.0228 94.1954 66.7775C94.0487 66.5322 93.8382 66.3288 93.585 66.1876C93.3319 66.0465 93.045 65.9726 92.7531 65.9733C92.4613 65.9741 92.1748 66.0495 91.9224 66.192Z" fill="#E6E6E6"/>
</svg>
