<svg width="37" height="37" viewBox="0 0 37 37" fill="none" xmlns="http://www.w3.org/2000/svg">
<path d="M26.9792 10.0209H26.9946M10.7917 3.08337H26.2083C30.4655 3.08337 33.9167 6.53451 33.9167 10.7917V26.2084C33.9167 30.4656 30.4655 33.9167 26.2083 33.9167H10.7917C6.53447 33.9167 3.08334 30.4656 3.08334 26.2084V10.7917C3.08334 6.53451 6.53447 3.08337 10.7917 3.08337ZM24.6667 17.5288C24.8569 18.8118 24.6378 20.1222 24.0404 21.2735C23.443 22.4248 22.4978 23.3585 21.3392 23.9416C20.1806 24.5248 18.8676 24.7278 17.587 24.5217C16.3064 24.3156 15.1234 23.711 14.2062 22.7938C13.289 21.8767 12.6844 20.6936 12.4784 19.413C12.2723 18.1324 12.4753 16.8195 13.0584 15.6609C13.6416 14.5023 14.5752 13.5571 15.7265 12.9597C16.8778 12.3623 18.1882 12.1431 19.4713 12.3334C20.78 12.5274 21.9916 13.1373 22.9272 14.0728C23.8627 15.0084 24.4726 16.22 24.6667 17.5288Z" stroke="white" stroke-width="2" stroke-linecap="round" stroke-linejoin="round"/>
</svg>
