<svg width="33" height="32" viewBox="0 0 33 32" fill="none" xmlns="http://www.w3.org/2000/svg">
<path d="M22.6667 10.3334C25.1199 10.3334 27.4727 11.3079 29.2074 13.0426C30.9421 14.7773 31.9167 17.1301 31.9167 19.5834V30.375H25.75V19.5834C25.75 18.7656 25.4252 17.9814 24.8469 17.4031C24.2687 16.8249 23.4844 16.5 22.6667 16.5C21.8489 16.5 21.0647 16.8249 20.4864 17.4031C19.9082 17.9814 19.5833 18.7656 19.5833 19.5834V30.375H13.4167V19.5834C13.4167 17.1301 14.3912 14.7773 16.1259 13.0426C17.8606 11.3079 20.2134 10.3334 22.6667 10.3334Z" stroke="white" stroke-width="2" stroke-linecap="round" stroke-linejoin="round"/>
<path d="M7.25 11.875H1.08334V30.375H7.25V11.875Z" stroke="white" stroke-width="2" stroke-linecap="round" stroke-linejoin="round"/>
<path d="M4.16667 7.25004C5.86955 7.25004 7.25 5.86959 7.25 4.16671C7.25 2.46383 5.86955 1.08337 4.16667 1.08337C2.46379 1.08337 1.08334 2.46383 1.08334 4.16671C1.08334 5.86959 2.46379 7.25004 4.16667 7.25004Z" stroke="white" stroke-width="2" stroke-linecap="round" stroke-linejoin="round"/>
</svg>
