<svg width="29" height="29" viewBox="0 0 29 29" fill="none" xmlns="http://www.w3.org/2000/svg">
<path d="M14.5 26.5834C14.2181 26.5834 13.9764 26.5028 13.775 26.3417C13.5736 26.1806 13.4226 25.9691 13.3219 25.7073C12.9393 24.5795 12.4559 23.5222 11.8719 22.5354C11.308 21.5486 10.5125 20.3906 9.48544 19.0615C8.45835 17.7323 7.62259 16.4636 6.97815 15.2552C6.35384 14.0469 6.04169 12.5868 6.04169 10.875C6.04169 8.51877 6.85731 6.52502 8.48856 4.89377C10.14 3.24238 12.1438 2.41669 14.5 2.41669C16.8563 2.41669 18.85 3.24238 20.4813 4.89377C22.1327 6.52502 22.9584 8.51877 22.9584 10.875C22.9584 12.7077 22.6059 14.2382 21.9011 15.4667C21.2163 16.675 20.4209 17.8733 19.5146 19.0615C18.4271 20.5115 17.6014 21.7198 17.0375 22.6865C16.4938 23.633 16.0406 24.6399 15.6781 25.7073C15.5775 25.9893 15.4163 26.2108 15.1948 26.3719C14.9934 26.5129 14.7618 26.5834 14.5 26.5834ZM14.5 13.8959C15.3459 13.8959 16.0608 13.6038 16.6448 13.0198C17.2288 12.4358 17.5209 11.7209 17.5209 10.875C17.5209 10.0292 17.2288 9.31426 16.6448 8.73023C16.0608 8.1462 15.3459 7.85419 14.5 7.85419C13.6542 7.85419 12.9393 8.1462 12.3552 8.73023C11.7712 9.31426 11.4792 10.0292 11.4792 10.875C11.4792 11.7209 11.7712 12.4358 12.3552 13.0198C12.9393 13.6038 13.6542 13.8959 14.5 13.8959Z" fill="#FFC100"/>
</svg>
