<svg width="185" height="148" viewBox="0 0 185 148" fill="none" xmlns="http://www.w3.org/2000/svg">
<path d="M79.4944 1.42573C81.9921 0.840181 85.285 0.304027 87.3928 0.139758C88.8461 0.0264291 93.5479 -0.0510025 93.4408 0.0400722C93.4092 0.0669573 92.6397 0.158157 91.7308 0.242929C87.8492 0.604784 84.5344 1.2688 80.7504 2.44235C77.9095 3.32352 76.2838 3.9492 73.8969 5.08043C58.3451 12.45 47.975 26.4911 46.1463 42.6545C45.894 44.8847 45.8581 49.5316 46.0763 51.7032C47.0895 61.7851 51.3057 71.106 58.2084 78.524C59.6654 80.0896 62.8028 82.969 64.3949 84.2017C72.4272 90.4208 82.6282 94.1942 93.5211 94.976C93.8998 95.0031 92.5984 95.008 90.6291 94.9869C87.0525 94.9485 85.1744 94.7802 82.1343 94.2254C76.3285 93.1659 70.1453 90.9087 65.2209 88.051C54.8968 82.0599 47.2623 73.0304 43.5499 62.4202C39.1159 49.7473 40.5068 36.0193 47.3931 24.4863C54.3287 12.8712 65.7879 4.63921 79.4944 1.42573Z" fill="#FFC511"/>
<path d="M61.2961 56.5607C60.9901 56.7045 62.9301 55.002 78.984 41.0376C88.1821 33.0366 95.7239 26.4904 95.7437 26.4904C95.7634 26.4904 99.9192 30.0296 104.979 34.3552L114.178 42.2199L114.215 39.3077L114.252 36.3955H117.765H121.278L121.266 42.3324L121.254 48.2694L127.391 53.526C130.766 56.4171 133.527 58.8076 133.527 58.8381C133.527 58.8684 132.737 58.47 131.771 57.9527C127.226 55.5178 96.5081 39.0444 96.1899 38.8715C95.8352 38.6785 95.5428 38.8236 78.6315 47.5856C69.1728 52.4864 61.3719 56.5252 61.2961 56.5607Z" fill="#FFC511"/>
<path d="M141.149 60.5149C143.303 55.4279 144.237 50.9961 144.376 45.2071C144.459 41.7432 144.459 41.737 144.632 42.8916C145.131 46.2242 145.122 50.9809 144.609 54.3946C143.549 61.4571 140.883 67.8736 136.633 73.5924C133.393 77.952 128.764 82.2156 124.188 85.0554C118.027 88.8799 111.25 91.2706 103.987 92.1816C101.414 92.5045 94.3692 92.5052 91.9373 92.1829C81.3041 90.7737 72.2343 86.6164 64.8037 79.746C63.6941 78.7201 62.3338 77.3679 61.7807 76.7411C56.4423 70.6908 52.9839 63.6176 51.52 55.7553C51.3163 54.6617 51.1012 52.3732 51.2539 52.9253C51.2932 53.0668 51.541 54.0058 51.8049 55.012C55.1647 67.8237 64.7538 78.6908 77.5923 84.236C82.8206 86.4943 88.146 87.7876 94.0449 88.2319C103.136 88.9165 113.17 86.7436 121.064 82.381C130.302 77.2756 137.259 69.7013 141.149 60.5149Z" fill="#FFC511"/>
<path d="M89.3208 52.0891V49.3878V46.6864H92.2128H95.1047V49.3878V52.0891H92.2128H89.3208Z" fill="#FFC511"/>
<path d="M96.895 52.0891V49.3878V46.6864H99.787H102.679V49.3878V52.0891H99.787H96.895Z" fill="#FFC511"/>
<path d="M89.3208 58.7783V56.0769V53.3755H92.2128H95.1047V56.0769V58.7783H92.2128H89.3208Z" fill="#FFC511"/>
<path d="M97.0327 58.7783V56.0769V53.3755H99.9247H102.817V56.0769V58.7783H99.9247H97.0327Z" fill="#FFC511"/>
<path d="M54.1309 115L49.5709 100.94H52.2509L55.6309 111.76H54.7309L58.0509 100.94H60.0709L63.3909 111.76H62.4709L65.8709 100.94H68.5509L63.9709 115H61.9509L58.6109 104.2H59.4909L56.1709 115H54.1309ZM73.2195 115.2C72.3661 115.2 71.6061 115.02 70.9395 114.66C70.2861 114.3 69.7728 113.8 69.3995 113.16C69.0261 112.52 68.8395 111.78 68.8395 110.94V105.34H71.4795V110.88C71.4795 111.28 71.5461 111.627 71.6795 111.92C71.8128 112.2 72.0128 112.413 72.2795 112.56C72.5461 112.707 72.8595 112.78 73.2195 112.78C73.7661 112.78 74.1928 112.613 74.4995 112.28C74.8061 111.947 74.9595 111.48 74.9595 110.88V105.34H77.5795V110.94C77.5795 111.793 77.3928 112.54 77.0195 113.18C76.6595 113.82 76.1461 114.32 75.4795 114.68C74.8261 115.027 74.0728 115.2 73.2195 115.2ZM85.0259 115.2C84.3325 115.2 83.7059 115.053 83.1459 114.76C82.5859 114.467 82.1392 114.067 81.8059 113.56C81.4725 113.053 81.2925 112.487 81.2659 111.86V108.42C81.2925 107.793 81.4725 107.233 81.8059 106.74C82.1525 106.233 82.6059 105.84 83.1659 105.56C83.7259 105.28 84.3459 105.14 85.0259 105.14C85.9192 105.14 86.7192 105.36 87.4259 105.8C88.1325 106.24 88.6859 106.84 89.0859 107.6C89.4992 108.36 89.7059 109.22 89.7059 110.18C89.7059 111.127 89.4992 111.98 89.0859 112.74C88.6859 113.5 88.1325 114.1 87.4259 114.54C86.7192 114.98 85.9192 115.2 85.0259 115.2ZM79.6659 115V100.54H82.2859V107.72L81.8459 110.04L82.2659 112.4V115H79.6659ZM84.5859 112.78C85.0659 112.78 85.4859 112.673 85.8459 112.46C86.2192 112.233 86.5059 111.927 86.7059 111.54C86.9192 111.14 87.0259 110.68 87.0259 110.16C87.0259 109.653 86.9192 109.207 86.7059 108.82C86.5059 108.42 86.2192 108.113 85.8459 107.9C85.4725 107.673 85.0459 107.56 84.5659 107.56C84.0859 107.56 83.6592 107.673 83.2859 107.9C82.9259 108.113 82.6392 108.42 82.4259 108.82C82.2259 109.207 82.1259 109.653 82.1259 110.16C82.1259 110.68 82.2259 111.14 82.4259 111.54C82.6392 111.927 82.9325 112.233 83.3059 112.46C83.6792 112.673 84.1059 112.78 84.5859 112.78ZM91.7037 115V100.94H94.4237V115H91.7037ZM93.7037 115V112.58H100.864V115H93.7037ZM106.323 115.2C105.443 115.2 104.65 114.98 103.943 114.54C103.236 114.1 102.683 113.5 102.283 112.74C101.883 111.98 101.683 111.127 101.683 110.18C101.683 109.22 101.883 108.36 102.283 107.6C102.683 106.84 103.236 106.24 103.943 105.8C104.65 105.36 105.443 105.14 106.323 105.14C107.016 105.14 107.636 105.28 108.183 105.56C108.73 105.84 109.163 106.233 109.483 106.74C109.816 107.233 109.996 107.793 110.023 108.42V111.9C109.996 112.54 109.816 113.107 109.483 113.6C109.163 114.093 108.73 114.487 108.183 114.78C107.636 115.06 107.016 115.2 106.323 115.2ZM106.803 112.78C107.536 112.78 108.13 112.54 108.583 112.06C109.036 111.567 109.263 110.933 109.263 110.16C109.263 109.653 109.156 109.207 108.943 108.82C108.743 108.42 108.456 108.113 108.083 107.9C107.723 107.673 107.296 107.56 106.803 107.56C106.323 107.56 105.896 107.673 105.523 107.9C105.163 108.113 104.876 108.42 104.663 108.82C104.463 109.207 104.363 109.653 104.363 110.16C104.363 110.68 104.463 111.14 104.663 111.54C104.876 111.927 105.163 112.233 105.523 112.46C105.896 112.673 106.323 112.78 106.803 112.78ZM109.123 115V112.4L109.543 110.04L109.123 107.72V105.34H111.723V115H109.123ZM120.541 115V109.46C120.541 108.887 120.361 108.42 120.001 108.06C119.641 107.7 119.174 107.52 118.601 107.52C118.228 107.52 117.894 107.6 117.601 107.76C117.308 107.92 117.074 108.147 116.901 108.44C116.741 108.733 116.661 109.073 116.661 109.46L115.641 108.94C115.641 108.18 115.801 107.52 116.121 106.96C116.454 106.387 116.908 105.94 117.481 105.62C118.068 105.3 118.728 105.14 119.461 105.14C120.168 105.14 120.801 105.32 121.361 105.68C121.921 106.027 122.361 106.487 122.681 107.06C123.001 107.62 123.161 108.227 123.161 108.88V115H120.541ZM114.041 115V105.34H116.661V115H114.041ZM129.351 115.2C128.458 115.2 127.658 114.98 126.951 114.54C126.245 114.1 125.685 113.5 125.271 112.74C124.871 111.98 124.671 111.127 124.671 110.18C124.671 109.22 124.871 108.36 125.271 107.6C125.685 106.84 126.238 106.24 126.931 105.8C127.638 105.36 128.445 105.14 129.351 105.14C130.045 105.14 130.665 105.28 131.211 105.56C131.771 105.84 132.218 106.233 132.551 106.74C132.898 107.233 133.085 107.793 133.111 108.42V111.86C133.085 112.487 132.905 113.053 132.571 113.56C132.238 114.067 131.791 114.467 131.231 114.76C130.671 115.053 130.045 115.2 129.351 115.2ZM129.791 112.78C130.285 112.78 130.711 112.673 131.071 112.46C131.445 112.233 131.731 111.927 131.931 111.54C132.145 111.14 132.251 110.68 132.251 110.16C132.251 109.653 132.145 109.207 131.931 108.82C131.731 108.42 131.445 108.113 131.071 107.9C130.711 107.673 130.291 107.56 129.811 107.56C129.318 107.56 128.885 107.673 128.511 107.9C128.151 108.127 127.865 108.433 127.651 108.82C127.451 109.207 127.351 109.653 127.351 110.16C127.351 110.68 127.451 111.14 127.651 111.54C127.865 111.927 128.158 112.233 128.531 112.46C128.905 112.673 129.325 112.78 129.791 112.78ZM134.711 115H132.111V112.4L132.531 110.04L132.091 107.72V100.54H134.711V115Z" fill="#FFC511"/>
</svg>
