<svg width="33" height="34" viewBox="0 0 33 34" fill="none" xmlns="http://www.w3.org/2000/svg">
<path fill-rule="evenodd" clip-rule="evenodd" d="M29.4396 1.16919C29.2497 1.53687 29.1875 2.44094 29.3005 3.17771C29.4644 4.24057 29.867 4.54775 31.2535 4.66637C32.9333 4.81051 33 4.73348 33 2.65785C33 0.663989 32.8781 0.5 31.3925 0.5C30.5078 0.5 29.6295 0.801041 29.4396 1.16919ZM15.5346 2.10823C12.6766 3.0468 11.2927 4.47592 10.9313 6.86061C10.7217 8.24484 10.2975 9.00665 9.73606 9.00665C9.25719 9.00665 8.86596 9.21932 8.86596 9.47925C8.86596 9.73917 10.4379 9.95184 12.359 9.95184C14.2802 9.95184 15.8521 9.73917 15.8521 9.47925C15.8521 9.21932 15.4234 9.00665 14.8995 9.00665C13.5162 9.00665 13.6852 6.51657 15.1605 5.16023C16.2554 4.15361 16.968 4.02837 22.4642 3.88045C28.4107 3.72071 28.5543 3.69 28.5543 2.58082C28.5543 1.46692 28.4488 1.44566 22.9971 1.46361C19.8235 1.47401 16.6225 1.75048 15.5346 2.10823ZM7.91331 11.3176C6.51607 11.7973 4.67998 12.7501 3.83338 13.4339L2.29325 14.6778H12.359H22.4248L20.8847 13.4339C18.9616 11.88 14.8684 10.4452 12.359 10.4452C11.3111 10.4452 9.31054 10.8379 7.91331 11.3176ZM1.04717 15.4547C0.806467 15.6338 0.609585 16.0639 0.609585 16.4108C0.609585 16.9131 2.99886 17.0407 12.4054 17.0407C23.2981 17.0407 24.1854 16.9774 23.9878 16.2137C23.796 15.4693 22.6592 15.3739 12.6296 15.2581C6.50019 15.1872 1.28788 15.2756 1.04717 15.4547ZM6.10833 19.7227C5.87843 19.8938 5.69043 20.6362 5.69043 21.373C5.69043 22.3966 5.98957 22.7118 6.96065 22.7118C7.87456 22.7118 8.23086 22.3966 8.23086 21.588C8.23086 20.415 6.83109 19.1849 6.10833 19.7227ZM11.3524 20.4845C10.4404 21.9736 11.2616 23.0355 12.9516 22.553C14.1869 22.2005 14.2237 21.2836 13.05 20.0894C12.185 19.2094 12.1247 19.2231 11.3524 20.4845ZM16.8727 20.1513C16.0947 21.6598 16.458 22.7118 17.7575 22.7118C19.0569 22.7118 19.4202 21.6598 18.6422 20.1513C18.1493 19.1948 17.3656 19.1948 16.8727 20.1513ZM3.11254 25.6561C2.48505 26.6811 2.49077 27.0828 3.14112 27.666C3.75971 28.2208 4.1611 28.2667 4.82224 27.8583C5.92987 27.1745 5.92161 26.4358 4.79366 25.2879C3.92738 24.4065 3.86958 24.4193 3.11254 25.6561ZM8.61637 25.3498C7.94697 26.6471 8.19593 27.7993 9.20765 28.088C10.4271 28.4363 11.0393 27.3517 10.5103 25.7827C10.0581 24.442 9.18733 24.243 8.61637 25.3498ZM14.0281 25.6116C13.2552 27.1367 14.3025 28.6712 15.579 27.8829C16.7572 27.1551 16.7394 25.8186 15.5409 25.0786C14.7578 24.5951 14.4968 24.6868 14.0281 25.6116ZM19.6253 25.6561C18.9978 26.6811 19.0035 27.0828 19.6539 27.666C20.2725 28.2208 20.6739 28.2667 21.335 27.8583C22.4426 27.1745 22.4344 26.4358 21.3064 25.2879C20.4401 24.4065 20.3823 24.4193 19.6253 25.6561ZM0.742957 30.3631C-0.325927 31.1585 -0.218593 32.9524 0.917612 33.2771C2.32628 33.6793 3.19256 32.1296 2.27356 30.8517C1.6772 30.0223 1.34377 29.916 0.742957 30.3631ZM5.96544 30.9396C5.46053 32.4378 6.04927 33.7275 7.12006 33.4661C8.2931 33.1793 8.44298 30.9926 7.33663 30.3092C6.53131 29.812 6.31157 29.9132 5.96544 30.9396ZM11.3689 30.8546C10.7414 31.8796 10.7471 32.2813 11.3975 32.8645C12.0161 33.4193 12.4175 33.4652 13.0786 33.0569C14.1862 32.373 14.178 31.6344 13.05 30.4864C12.1838 29.605 12.126 29.6178 11.3689 30.8546ZM17.2456 30.3706C16.2072 31.1433 16.2897 32.9515 17.3777 33.262C18.5278 33.5904 19.0302 33.1934 19.0181 31.9666C19.0029 30.4387 18.1665 29.6854 17.2456 30.3706ZM22.1657 30.8546C21.5382 31.8796 21.544 32.2813 22.1943 32.8645C22.8129 33.4193 23.2143 33.4652 23.8754 33.0569C24.9831 32.373 24.9748 31.6344 23.8468 30.4864C22.9806 29.605 22.9228 29.6178 22.1657 30.8546Z" fill="#C89700"/>
</svg>
