<svg width="104" height="95" viewBox="0 0 104 95" fill="none" xmlns="http://www.w3.org/2000/svg">
<path d="M38.4944 1.42141C40.9921 0.837637 44.285 0.303074 46.3928 0.139304C47.8461 0.026319 52.5479 -0.0508389 52.4408 0.0399592C52.4092 0.0667626 51.6397 0.157686 50.7308 0.2422C46.8492 0.602955 43.5344 1.26494 39.7503 2.43493C36.9095 3.31342 35.2837 3.93719 32.8969 5.06498C17.3451 12.4122 6.97497 26.4106 5.14628 42.525C4.89399 44.7484 4.85805 49.3811 5.07632 51.5462C6.08948 61.5975 10.3057 70.89 17.2084 78.2854C18.6655 79.8463 21.8028 82.717 23.3949 83.9459C31.4272 90.1461 41.6282 93.9081 52.521 94.6874C52.8998 94.7145 51.5984 94.7194 49.6291 94.6983C46.0525 94.6601 44.1744 94.4922 41.1344 93.9391C35.3285 92.8829 29.1453 90.6326 24.2209 87.7836C13.8968 81.8106 6.26229 72.8086 2.54995 62.2306C-1.88414 49.5962 -0.493236 35.9099 6.39312 24.4119C13.3286 12.8321 24.7879 4.62512 38.4944 1.42141Z" fill="#FFC206"/>
<path d="M20.2961 56.3888C19.9901 56.5322 21.9301 54.8349 37.984 40.9129C47.182 32.9363 54.7239 26.41 54.7437 26.41C54.7634 26.41 58.9192 29.9384 63.9788 34.2508L73.1781 42.0916L73.2151 39.1882L73.2521 36.2849H76.7651H80.278L80.2662 42.2038L80.2543 48.1228L86.3905 53.3634C89.7655 56.2457 92.5268 58.6289 92.5268 58.6593C92.5268 58.6896 91.7367 58.2924 90.7709 57.7766C86.2263 55.3492 55.5081 38.9258 55.1899 38.7534C54.8352 38.561 54.5428 38.7056 37.6315 47.441C28.1728 52.3269 20.3719 56.3534 20.2961 56.3888Z" fill="#FFC206"/>
<path d="M100.149 60.331C102.303 55.2595 103.237 50.8412 103.376 45.0697C103.459 41.6163 103.459 41.6102 103.632 42.7613C104.131 46.0838 104.122 50.826 103.609 54.2293C102.549 61.2704 99.8834 67.6674 95.6328 73.3688C92.3925 77.7152 87.764 81.9659 83.1884 84.797C77.0268 88.6099 70.2497 90.9933 62.9873 91.9016C60.4141 92.2235 53.3692 92.2242 50.9374 91.9029C40.3041 90.4979 31.2343 86.3532 23.8037 79.5037C22.6941 78.481 21.3338 77.1329 20.7807 76.5079C15.4423 70.476 11.9839 63.4243 10.52 55.5859C10.3163 54.4957 10.1012 52.2141 10.2539 52.7645C10.2932 52.9056 10.541 53.8418 10.8049 54.8449C14.1647 67.6177 23.7538 78.4518 36.5923 83.9801C41.8206 86.2315 47.146 87.5209 53.0449 87.9639C62.1358 88.6464 72.1699 86.4801 80.0637 82.1308C89.3018 77.0408 96.2592 69.4895 100.149 60.331Z" fill="#FFC206"/>
<path d="M48.3208 51.9309V49.2377V46.5446H51.2128H54.1047V49.2377V51.9309H51.2128H48.3208Z" fill="#FFC206"/>
<path d="M55.895 51.9309V49.2377V46.5446H58.787H61.679V49.2377V51.9309H58.787H55.895Z" fill="#FFC206"/>
<path d="M48.3208 58.5997V55.9065V53.2134H51.2128H54.1047V55.9065V58.5997H51.2128H48.3208Z" fill="#FFC206"/>
<path d="M56.0327 58.5997V55.9065V53.2134H58.9247H61.8167V55.9065V58.5997H58.9247H56.0327Z" fill="#FFC206"/>
</svg>
