<svg width="37" height="37" viewBox="0 0 37 37" fill="none" xmlns="http://www.w3.org/2000/svg">
<path d="M18.5 0C8.29225 0 0 8.29226 0 18.5C0 28.7077 8.29225 37 18.5 37C28.7077 37 37 28.7077 37 18.5C37 8.29226 28.7077 0 18.5 0ZM18.5 1.6087C27.8383 1.6087 35.3913 9.16166 35.3913 18.5C35.3913 27.8383 27.8383 35.3913 18.5 35.3913C9.16166 35.3913 1.6087 27.8383 1.6087 18.5C1.6087 9.16167 9.16166 1.6087 18.5 1.6087ZM25.8098 9.68045C25.2597 9.68045 24.6415 9.80788 23.9184 10.0685C22.7955 10.4731 9.58842 16.0807 8.0859 16.7185C7.22686 17.0837 5.6273 17.7629 5.6273 19.3829C5.6273 20.4567 6.25652 21.2247 7.49521 21.6671C8.16121 21.9044 9.743 22.3839 10.6608 22.6364C11.0501 22.7434 11.4638 22.7982 11.8893 22.7982C12.7218 22.7982 13.5596 22.5908 14.2159 22.2248C14.2103 22.36 14.214 22.4965 14.2301 22.6333C14.329 23.4778 14.8498 24.2722 15.622 24.7588C16.1271 25.0774 20.2529 27.8418 20.8691 28.281C21.7345 28.8995 22.6913 29.2267 23.634 29.2267C25.4358 29.2267 26.0402 27.3664 26.3314 26.4728C26.7537 25.1754 28.335 14.6248 28.5135 12.7643C28.635 11.4894 28.1036 10.4396 27.0918 9.95537C26.7129 9.77279 26.2804 9.68045 25.8098 9.68045ZM25.8098 11.2892C26.031 11.2892 26.2285 11.3257 26.3958 11.407C26.7763 11.5896 26.9698 11.9966 26.9111 12.6119C26.7164 14.6413 25.139 24.942 24.8028 25.9748C24.5149 26.858 24.2115 27.618 23.634 27.618C23.0565 27.618 22.4256 27.4156 21.8038 26.9708C21.182 26.5268 17.0532 23.7579 16.4797 23.3968C15.977 23.0799 15.4449 22.2899 16.1938 21.5257C16.8107 20.8967 21.4904 16.3548 21.8902 15.955C22.1878 15.6566 22.0486 15.2967 21.7567 15.2967C21.6561 15.2967 21.5357 15.3391 21.411 15.4413C20.922 15.841 14.1041 20.4033 13.5137 20.7701C13.1228 21.013 12.5175 21.188 11.8893 21.188C11.6214 21.188 11.3502 21.1559 11.0896 21.0843C10.1823 20.8341 8.64689 20.3683 8.0372 20.1511C7.45083 19.942 7.23756 19.7416 7.23756 19.3829C7.23756 18.8729 7.95737 18.5209 8.71587 18.1984C9.517 17.8581 23.3792 11.9715 24.4635 11.5813C24.9654 11.3996 25.4245 11.2892 25.8098 11.2892Z" fill="white"/>
</svg>
